<?xml version="1.0" encoding="UTF-8"?>
<!DOCTYPE svg PUBLIC "-//W3C//DTD SVG 1.1//EN" "http://www.w3.org/Graphics/SVG/1.1/DTD/svg11.dtd">
<!-- Creator: CorelDRAW X8 -->
<svg xmlns="http://www.w3.org/2000/svg" xml:space="preserve" width="151mm" height="90mm" version="1.1" style="shape-rendering:geometricPrecision; text-rendering:geometricPrecision; image-rendering:optimizeQuality; fill-rule:evenodd; clip-rule:evenodd"
viewBox="0 0 15100 9000"
 xmlns:xlink="http://www.w3.org/1999/xlink">
 <defs>
  <style type="text/css">
   <![CDATA[
    .fil7 {fill:#060633}
    .fil3 {fill:#0B0755}
    .fil26 {fill:#163560}
    .fil20 {fill:#233862}
    .fil9 {fill:#2C3A64}
    .fil29 {fill:#2E3552}
    .fil14 {fill:#304B77}
    .fil24 {fill:#334272}
    .fil19 {fill:#505ABA}
    .fil17 {fill:#548EE2}
    .fil16 {fill:#699DEE}
    .fil11 {fill:#94B0ED}
    .fil21 {fill:#A9453D}
    .fil2 {fill:#AEC3FF}
    .fil6 {fill:#BDCFFE}
    .fil5 {fill:#CCDBFD}
    .fil1 {fill:#D9E5FC}
    .fil27 {fill:#EA642F}
    .fil0 {fill:#EBF3FA}
    .fil13 {fill:#ED7D2B}
    .fil22 {fill:#ED975D}
    .fil12 {fill:#ED985F}
    .fil28 {fill:#EF873A}
    .fil18 {fill:#F4D2B8}
    .fil4 {fill:#F78248}
    .fil8 {fill:#F99746}
    .fil25 {fill:#FCA56B}
    .fil15 {fill:#FCECDB}
    .fil10 {fill:#FFB27D}
    .fil23 {fill:white}
    .fil37 {fill:#263138;fill-rule:nonzero}
    .fil36 {fill:#445964;fill-rule:nonzero}
    .fil31 {fill:#DFDFDF;fill-rule:nonzero}
    .fil32 {fill:#E8505B;fill-rule:nonzero}
    .fil39 {fill:#EB996E;fill-rule:nonzero}
    .fil30 {fill:#EBEBEB;fill-rule:nonzero}
    .fil38 {fill:#FFBD9C;fill-rule:nonzero}
    .fil35 {fill:white;fill-rule:nonzero}
    .fil40 {fill:black;fill-rule:nonzero;fill-opacity:0.301961}
    .fil34 {fill:black;fill-rule:nonzero;fill-opacity:0.400000}
    .fil33 {fill:white;fill-rule:nonzero;fill-opacity:0.800000}
   ]]>
  </style>
 </defs>
 <g id="Layer_x0020_1">
  <metadata id="CorelCorpID_0Corel-Layer"/>
  <g id="_2043924260304">
   <path class="fil0" d="M-7736 -5402c0,0 -1868,-1646 -679,-3583 1188,-1937 2785,-963 2707,-3217 -77,-2255 3672,-2449 4865,-1795 1194,654 1186,1441 3650,1181 2463,-261 2934,1911 2293,3017 -909,1571 2524,1312 360,4397l-13196 0z"/>
   <path class="fil1" d="M422 -9692c0,0 419,-869 1174,-869 26,0 53,1 80,3 0,0 156,15 170,194 14,178 -289,113 -491,139 -201,26 -700,215 -933,533z"/>
   <path class="fil1" d="M445 -9880c0,0 99,-831 733,-993 0,0 12,-3 29,-3 41,0 112,14 152,106 57,133 -192,163 -339,236 -148,73 -480,349 -575,654z"/>
   <path class="fil1" d="M-319 -5764l-79 -4c0,0 -55,-546 -248,-827 -8,-10 -19,-25 -32,-43l0 0c-33,-39 -55,-68 -70,-89 -98,-123 -235,-281 -308,-305l0 0c-64,296 -680,477 -1045,482 -6,0 -12,0 -17,0 -343,0 -216,-131 -67,-328 152,-201 555,-245 657,-333 62,-53 18,-84 -78,-84 -61,0 -144,13 -233,39 -228,69 -291,327 -659,445 -31,9 -62,14 -93,14 -346,0 -721,-541 -721,-541 13,1 26,1 40,1 277,0 670,-226 668,-315 -1,-22 -37,-30 -93,-30 -95,0 -247,23 -388,46 -141,23 -270,46 -317,46 -2,0 -3,0 -4,0 -114,-4 -350,-178 -331,-633 18,-455 773,-478 773,-478 0,0 649,631 805,631 1,0 3,0 4,0 147,-13 -459,-661 -459,-661 51,-16 121,-23 201,-23 339,0 853,122 853,122 0,0 146,840 282,840 4,0 8,-1 11,-2 139,-49 -176,-779 -176,-779 286,22 608,281 608,281 428,442 -157,964 -157,964 0,0 60,307 327,615 0,0 390,377 346,949zm-737 -1268c0,0 0,0 0,0 0,0 0,0 0,0zm0 0c0,0 0,0 0,0zm0 0c0,0 0,0 0,0zm0 -1c0,0 0,0 0,0 0,0 0,0 0,0zm0 0c0,0 0,0 0,0 0,0 0,0 0,0zm0 0c0,0 0,0 0,0 0,0 0,0 0,0zm0 0c0,0 0,0 0,0 0,0 0,0 0,0zm0 -1c0,0 0,0 0,1 0,-1 0,-1 0,-1zm1 -3c0,1 0,2 -1,3 1,-1 1,-2 1,-3zm0 0c0,0 0,0 0,0 0,0 0,0 0,0zm0 -1c0,0 0,0 0,1 0,-1 0,-1 0,-1z"/>
   <path class="fil1" d="M1152 -5591c-88,0 -175,-19 -219,-84 -111,-161 -57,-285 -127,-383 -48,-67 -101,-110 -125,-110 -12,0 -18,10 -13,32 14,67 161,209 160,337 0,87 5,158 -38,158 -19,0 -50,-15 -96,-52 -144,-115 -334,-379 -269,-518 2,-6 5,-11 8,-17 -7,10 -8,17 -8,17 -8,-2 -19,-4 -33,-4 -47,0 -123,16 -184,31l0 0c-12,4 -30,9 -55,15l0 0 0 0c-11,3 -19,5 -26,7l0 0 0 0c-10,3 -20,7 -29,11l-25 -29c58,-19 98,-24 98,-24l0 0c201,-41 319,-145 319,-145 0,0 -74,-392 232,-437 0,0 2,0 6,0 34,0 214,4 323,76 0,0 -349,195 -309,258 4,6 10,9 18,9 81,0 356,-255 356,-255 0,0 370,168 451,288 0,0 -440,72 -386,123 18,16 77,22 150,22 154,0 367,-25 367,-25 0,0 294,244 162,432 -91,131 -191,170 -258,170 -30,0 -54,-8 -68,-18 -43,-32 -244,-277 -293,-277 -4,0 -6,1 -8,3 -30,37 68,269 186,346 0,0 -135,43 -267,43z"/>
   <path class="fil2" d="M-3923 -10418l193 3022 -95 7c-2,0 -73,-288 -73,-288l-174 -2731 149 -10z"/>
   <polygon class="fil3" points="-3805,-7391 -3759,-7198 -3749,-7394 "/>
   <path class="fil4" d="M-3865 -7709c-3,-52 37,-98 90,-101 52,-3 97,36 101,89 3,53 -37,98 -89,101 -53,4 -98,-36 -102,-89z"/>
   <path class="fil2" d="M-3852 -10436l1467 2649 83 -46c1,0 -94,-281 -94,-281l-1325 -2395 -131 73z"/>
   <polygon class="fil3" points="-2320,-7823 -2254,-7636 -2369,-7796 "/>
   <polygon class="fil4" points="-2566,-8533 -2613,-8507 -2730,-8717 -2682,-8743 "/>
   <polygon class="fil3" points="-3888,-10630 -3996,-10599 -4102,-10970 -3995,-11001 "/>
   <path class="fil4" d="M-3705 -10534l-23 214 104 365 -239 69 -105 -365 -132 -169c-31,-109 32,-223 141,-254l0 0c109,-32 222,31 254,140z"/>
   <path class="fil3" d="M-3958 -10467c-9,-30 8,-61 38,-70 30,-8 61,9 69,39 9,29 -8,60 -38,69 -30,9 -61,-9 -69,-38z"/>
   <polygon class="fil5" points="2594,-11270 2556,-11270 2556,-11284 2580,-11284 2580,-11308 2594,-11308 "/>
   <path class="fil5" d="M2491 -11270l-64 0 0 -14 64 0 0 14zm-129 0l-64 0 0 -14 64 0 0 14zm-129 0l-64 0 0 -14 64 0 0 14zm-128 0l-65 0 0 -14 65 0 0 14zm-129 0l-65 0 0 -14 65 0 0 14zm-129 0l-65 0 0 -14 65 0 0 14zm-129 0l-64 0 0 -14 64 0 0 14zm-129 0l-64 0 0 -14 64 0 0 14zm-129 0l-64 0 0 -14 64 0 0 14z"/>
   <polygon class="fil5" points="1331,-11270 1293,-11270 1293,-11308 1307,-11308 1307,-11284 1331,-11284 "/>
   <path class="fil5" d="M1307 -11368l-14 0 0 -59 14 0 0 59zm0 -118l-14 0 0 -60 14 0 0 60zm0 -119l-14 0 0 -60 14 0 0 60zm0 -119l-14 0 0 -59 14 0 0 59zm0 -119l-14 0 0 -59 14 0 0 59zm0 -118l-14 0 0 -60 14 0 0 60zm0 -119l-14 0 0 -59 14 0 0 59zm0 -119l-14 0 0 -59 14 0 0 59z"/>
   <polygon class="fil5" points="1307,-12317 1293,-12317 1293,-12355 1331,-12355 1331,-12341 1307,-12341 "/>
   <path class="fil5" d="M2491 -12341l-64 0 0 -14 64 0 0 14zm-129 0l-64 0 0 -14 64 0 0 14zm-129 0l-64 0 0 -14 64 0 0 14zm-128 0l-65 0 0 -14 65 0 0 14zm-129 0l-65 0 0 -14 65 0 0 14zm-129 0l-65 0 0 -14 65 0 0 14zm-129 0l-64 0 0 -14 64 0 0 14zm-129 0l-64 0 0 -14 64 0 0 14zm-129 0l-64 0 0 -14 64 0 0 14z"/>
   <polygon class="fil5" points="2594,-12317 2580,-12317 2580,-12341 2556,-12341 2556,-12355 2594,-12355 "/>
   <path class="fil5" d="M2594 -11368l-14 0 0 -59 14 0 0 59zm0 -118l-14 0 0 -60 14 0 0 60zm0 -119l-14 0 0 -60 14 0 0 60zm0 -119l-14 0 0 -59 14 0 0 59zm0 -119l-14 0 0 -59 14 0 0 59zm0 -118l-14 0 0 -60 14 0 0 60zm-10 -119l-4 0 0 -59 14 0 0 56c-4,1 -7,2 -10,3zm10 -119l-14 0 0 -59 14 0 0 59z"/>
   <path class="fil5" d="M2779 -10745c-23,0 -46,-1 -69,-4l1 -15c23,2 46,3 68,3l0 16zm70 -4l-2 -15c23,-2 46,-6 68,-10l3 15c-23,5 -46,8 -69,10zm-208 -10c-23,-5 -46,-11 -68,-18l5 -15c21,7 43,13 66,17l-3 16zm345 -18l-5 -15c21,-6 43,-14 64,-23l6 14c-21,9 -43,17 -65,24zm-478 -25c-22,-9 -43,-19 -63,-31l8 -13c19,11 40,21 61,30l-6 14zm606 -30l-8 -14c20,-11 39,-23 58,-36l9 12c-19,14 -39,26 -59,38zm-728 -38c-19,-14 -37,-28 -55,-44l10 -11c18,15 36,29 54,42l-9 13zm841 -43l-10 -11c17,-15 34,-31 49,-48l12 11c-16,17 -33,33 -51,48zm-946 -49c-16,-17 -31,-35 -45,-54l13 -9c13,18 28,36 43,52l-11 11zm1042 -53l-13 -9c14,-18 27,-37 39,-56l13 8c-12,20 -25,39 -39,57zm-1126 -58c-12,-20 -23,-41 -33,-62l14 -6c9,20 20,40 32,60l-13 8zm1198 -61l-14 -6c10,-21 19,-42 27,-63l14 5c-8,22 -17,43 -27,64zm-1258 -65c-8,-22 -14,-45 -20,-67l15 -4c6,22 12,44 20,66l-15 5zm1305 -66l-15 -4c6,-22 10,-44 13,-67l15 2c-3,23 -7,46 -13,69zm-1338 -70c-3,-23 -5,-46 -5,-69l15 -1c1,23 3,46 6,68l-16 2zm1357 -68l-15 -1c0,-7 0,-15 0,-23 0,-15 0,-30 -1,-45l15 -1c1,15 2,31 2,46 0,8 -1,16 -1,24zm-1347 -24l-16 0c0,-23 1,-47 4,-70l15 2c-2,22 -3,45 -3,68zm1323 -113c-4,-22 -9,-44 -15,-66l15 -4c6,22 11,45 15,68l-15 2zm-1310 -22l-15 -4c5,-22 11,-45 18,-67l15 5c-7,21 -13,43 -18,66zm1273 -109c-8,-21 -18,-42 -28,-62l13 -7c11,20 21,42 29,63l-14 6zm-1231 -21l-15 -7c10,-21 20,-42 32,-62l13 8c-11,19 -21,40 -30,61zm1168 -100c-12,-19 -26,-37 -40,-55l12 -10c15,18 28,37 41,57l-13 8zm-1101 -19l-13 -9c13,-19 28,-37 43,-55l12 10c-15,17 -29,35 -42,54zm1015 -87c-16,-16 -33,-31 -50,-45l9 -12c18,14 36,30 52,46l-11 11zm-926 -16l-10 -11c17,-16 35,-31 53,-45l9 12c-18,14 -35,29 -52,44zm821 -70c-19,-12 -39,-24 -59,-34l7 -14c20,11 41,22 60,35l-8 13zm-712 -12l-8 -13c20,-13 40,-24 61,-34l7 14c-21,10 -41,21 -60,33zm591 -51c-22,-8 -43,-15 -65,-21l4 -15c22,6 45,13 66,22l-5 14zm-468 -8l-5 -14c10,-4 21,-8 32,-11l10 0 0 -3c8,-2 16,-4 25,-6l3 15c-22,5 -44,12 -65,19z"/>
   <path class="fil6" d="M2594 -12080l-10 0c3,-1 6,-2 10,-3l0 3z"/>
   <path class="fil5" d="M2893 -12083c-22,-4 -45,-7 -67,-9l1 -15c23,2 46,4 69,8l-3 16zm-204 -4l-2 -15c23,-3 47,-5 70,-6l0 15c-22,1 -45,3 -68,6z"/>
   <polygon class="fil2" points="-5055,-5421 -5874,-6703 -4220,-7760 "/>
   <polygon class="fil0" points="-5128,-6031 -5499,-6610 -4751,-7088 "/>
   <polygon class="fil7" points="-5692,-6656 -5699,-6651 -5759,-6745 -5751,-6749 "/>
   <polygon class="fil7" points="-5673,-6722 -5680,-6717 -5716,-6772 -5708,-6777 "/>
   <polygon class="fil7" points="-5637,-6745 -5644,-6740 -5679,-6795 -5672,-6800 "/>
   <polygon class="fil7" points="-5602,-6767 -5610,-6762 -5645,-6817 -5638,-6822 "/>
   <polygon class="fil7" points="-5571,-6787 -5578,-6783 -5613,-6838 -5606,-6842 "/>
   <polygon class="fil7" points="-5535,-6810 -5542,-6805 -5578,-6860 -5570,-6865 "/>
   <polygon class="fil7" points="-5475,-6794 -5482,-6789 -5542,-6883 -5535,-6888 "/>
   <polygon class="fil7" points="-5456,-6860 -5464,-6855 -5499,-6911 -5492,-6915 "/>
   <polygon class="fil7" points="-5420,-6883 -5427,-6879 -5463,-6934 -5455,-6938 "/>
   <polygon class="fil7" points="-5386,-6905 -5393,-6901 -5428,-6956 -5421,-6960 "/>
   <polygon class="fil7" points="-5354,-6926 -5361,-6921 -5396,-6976 -5389,-6981 "/>
   <polygon class="fil7" points="-5318,-6948 -5326,-6944 -5361,-6999 -5354,-7003 "/>
   <polygon class="fil7" points="-5245,-6941 -5252,-6936 -5312,-7030 -5304,-7035 "/>
   <polygon class="fil7" points="-5226,-7007 -5233,-7003 -5269,-7058 -5261,-7062 "/>
   <polygon class="fil7" points="-5190,-7030 -5197,-7026 -5232,-7081 -5225,-7086 "/>
   <polygon class="fil7" points="-5155,-7052 -5163,-7048 -5198,-7103 -5191,-7108 "/>
   <polygon class="fil7" points="-5123,-7073 -5131,-7068 -5166,-7123 -5159,-7128 "/>
   <polygon class="fil7" points="-5088,-7096 -5095,-7091 -5131,-7146 -5123,-7151 "/>
   <polygon class="fil7" points="-5028,-7080 -5035,-7075 -5095,-7169 -5088,-7173 "/>
   <polygon class="fil7" points="-5009,-7146 -5017,-7141 -5052,-7196 -5044,-7201 "/>
   <polygon class="fil7" points="-4973,-7169 -4980,-7164 -5016,-7219 -5008,-7224 "/>
   <polygon class="fil7" points="-4939,-7191 -4946,-7186 -4981,-7241 -4974,-7246 "/>
   <polygon class="fil7" points="-4907,-7211 -4914,-7207 -4949,-7262 -4942,-7266 "/>
   <polygon class="fil7" points="-4871,-7234 -4879,-7229 -4914,-7284 -4906,-7289 "/>
   <polygon class="fil7" points="-4801,-7224 -4809,-7220 -4869,-7313 -4861,-7318 "/>
   <polygon class="fil7" points="-4783,-7290 -4790,-7286 -4825,-7341 -4818,-7345 "/>
   <polygon class="fil7" points="-4747,-7314 -4754,-7309 -4789,-7364 -4782,-7369 "/>
   <polygon class="fil7" points="-4712,-7336 -4720,-7331 -4755,-7386 -4747,-7391 "/>
   <polygon class="fil7" points="-4680,-7356 -4688,-7351 -4723,-7406 -4716,-7411 "/>
   <polygon class="fil7" points="-4645,-7379 -4652,-7374 -4687,-7429 -4680,-7434 "/>
   <polygon class="fil7" points="-4585,-7363 -4592,-7358 -4652,-7452 -4645,-7456 "/>
   <polygon class="fil7" points="-4566,-7429 -4574,-7424 -4609,-7479 -4601,-7484 "/>
   <polygon class="fil7" points="-4530,-7452 -4537,-7447 -4572,-7502 -4565,-7507 "/>
   <polygon class="fil7" points="-4495,-7474 -4503,-7469 -4538,-7524 -4531,-7529 "/>
   <polygon class="fil7" points="-4464,-7494 -4471,-7490 -4506,-7545 -4499,-7549 "/>
   <polygon class="fil7" points="-4428,-7517 -4435,-7512 -4471,-7567 -4463,-7572 "/>
   <polygon class="fil7" points="-4354,-7510 -4362,-7505 -4422,-7599 -4414,-7603 "/>
   <path class="fil4" d="M3406 -6638c0,0 9,-477 487,-536 478,-58 1390,-24 1390,-24l0 275c0,0 -1035,-9 -1380,0 -143,4 -317,17 -497,285z"/>
   <path class="fil4" d="M4176 -6976c0,0 -39,1424 -254,1541 -214,117 -500,-26 -338,-299 163,-273 260,-286 319,-605 58,-318 58,-637 58,-637l215 0z"/>
   <path class="fil4" d="M4605 -6976c0,0 -150,975 -98,1242 52,266 293,403 533,260 241,-143 169,-351 169,-351 0,0 -196,156 -351,39 -156,-117 -78,-1242 -78,-1242l-175 52z"/>
   <path class="fil2" d="M-5218 -9903c-227,0 -440,88 -601,249 -161,161 -249,374 -249,602 0,227 88,440 249,601 161,161 374,249 601,249 228,0 441,-88 602,-249 161,-161 249,-374 249,-601 0,-228 -88,-441 -249,-602 -161,-161 -374,-249 -602,-249zm0 1717c-231,0 -449,-90 -612,-254 -164,-163 -254,-381 -254,-612 0,-232 90,-450 254,-613 163,-164 381,-254 612,-254 232,0 450,90 613,254 164,163 254,381 254,613 0,231 -90,449 -254,612 -163,164 -381,254 -613,254z"/>
   <path class="fil2" d="M-5161 -9315c-13,0 -26,0 -40,-1l0 -9c14,1 27,1 41,1l-1 9zm-120 0l0 -9c13,0 27,0 40,0l0 9c-13,0 -27,0 -40,0zm201 3c-14,-1 -27,-1 -41,-2l1 -9c13,1 27,1 40,2l0 9zm-281 0l-1 -9c14,-1 27,-1 41,-2l0 9c-13,1 -27,1 -40,2zm361 5c-14,-1 -27,-2 -40,-3l0 -9c14,1 27,2 40,3l0 9zm-441 1l-1 -9c13,-1 27,-3 40,-3l1 9c-13,0 -27,1 -40,3zm520 7c-13,-2 -26,-3 -39,-4l0 -9c14,1 27,2 40,4l-1 9zm-600 1l-1 -9c13,-2 27,-3 40,-5l1 9c-13,2 -27,3 -40,5zm680 9c-13,-2 -26,-3 -40,-5l1 -9c14,2 27,4 40,6l-1 8zm-759 1l-2 -8c13,-2 27,-4 40,-6l1 9c-13,1 -26,3 -39,5zm838 13c-13,-2 -26,-5 -40,-7l2 -9c13,2 27,5 40,7l-2 9zm-917 1l-2 -8c13,-3 26,-5 40,-8l1 9c-13,2 -26,5 -39,7zm995 16c-13,-3 -26,-6 -39,-9l2 -8c13,2 26,6 39,9l-2 8zm-1073 2l-3 -9c13,-3 26,-6 40,-9l2 9c-14,3 -27,6 -39,9zm1150 20c-12,-4 -25,-8 -38,-11l2 -9c13,4 26,8 39,12l-3 8zm-1227 2l-3 -9c12,-4 25,-7 38,-11l3 8c-13,4 -26,8 -38,12zm1302 25c-12,-5 -24,-9 -37,-14l3 -9c13,5 26,10 38,15l-4 8zm-1377 3l-4 -8c12,-5 25,-11 38,-15l3 8c-13,5 -26,10 -37,15zm1449 32c-11,-6 -23,-12 -35,-18l4 -8c12,6 24,12 35,19l-4 7zm-1520 4l-5 -8c11,-7 23,-13 35,-19l4 8c-12,6 -24,12 -34,19zm1582 44c-8,-9 -18,-17 -29,-26l5 -7c12,9 22,18 31,27l-7 6zm-1644 5l-6 -6c8,-10 18,-19 29,-28l6 7c-11,9 -21,18 -29,27zm1678 62c0,-12 -4,-24 -11,-36l8 -4c7,13 11,26 12,40l-9 0zm-1716 20c0,-4 -1,-9 -1,-13 0,-14 3,-28 10,-41l8 4c-6,12 -9,24 -9,37 0,4 1,8 1,12l-9 1zm1698 56l-7 -6c9,-10 15,-21 20,-32l8 3c-5,12 -12,24 -21,35zm-1657 15c-11,-11 -20,-21 -26,-32l7 -5c7,10 15,20 25,30l-6 7zm1594 38l-4 -8c12,-8 22,-15 32,-23l6 7c-10,8 -21,16 -34,24zm-1529 10c-12,-7 -24,-15 -34,-22l5 -7c10,7 22,14 34,21l-5 8zm1458 27l-4 -8c13,-6 25,-12 36,-17l4 8c-11,6 -23,11 -36,17zm-1385 8c-13,-6 -25,-11 -37,-17l4 -8c11,6 24,11 37,16l-4 9zm1309 21l-3 -9c13,-4 26,-9 38,-13l3 8c-12,5 -25,9 -38,14zm-1233 6c-13,-5 -26,-9 -38,-13l3 -9c12,5 25,9 38,13l-3 9zm1156 16l-2 -9c13,-3 26,-6 38,-10l3 9c-13,3 -26,7 -39,10zm-1078 5c-13,-3 -26,-7 -39,-10l2 -9c13,4 26,7 39,10l-2 9zm999 13l-2 -9c14,-2 27,-5 40,-8l2 9c-13,3 -26,6 -40,8zm-920 4c-14,-3 -27,-5 -40,-8l2 -9c13,3 26,6 39,8l-1 9zm841 11l-1 -9c13,-2 26,-5 39,-7l2 9c-13,2 -27,4 -40,7zm-762 2c-13,-2 -27,-4 -40,-6l2 -9c13,2 26,5 39,7l-1 8zm682 9l-1 -9c13,-2 27,-4 40,-5l1 8c-13,2 -26,4 -40,6zm-602 2c-13,-2 -27,-3 -40,-5l1 -9c13,2 27,3 40,5l-1 9zm522 6l-1 -9c14,-1 27,-2 40,-4l1 9c-13,2 -26,3 -40,4zm-442 2c-13,-2 -27,-3 -40,-4l1 -9c13,1 26,2 40,4l-1 9zm362 4l-1 -9c14,-1 27,-2 40,-3l1 9c-13,1 -27,2 -40,3zm-282 1c-13,-1 -27,-2 -40,-3l1 -9c13,1 26,2 40,3l-1 9zm201 2l0 -9c14,-1 27,-1 40,-1l1 9c-14,0 -27,0 -41,1zm-120 0c-14,0 -27,0 -40,-1l0 -9c13,1 27,1 40,1l0 9zm50 1c-3,0 -6,0 -10,0l0 -9c13,0 27,0 40,0l0 9c-10,0 -20,0 -30,0z"/>
   <path class="fil2" d="M-5179 -9899c-13,-5 -26,-8 -39,-8l0 -9c15,0 29,3 43,9l-4 8zm-108 19l-6 -8c12,-9 25,-16 37,-21l4 9c-12,4 -24,11 -35,20zm171 31c-9,-11 -19,-21 -29,-29l6 -7c10,8 21,18 30,30l-7 6zm-226 29l-7 -5c8,-12 17,-23 25,-33l7 6c-8,9 -16,20 -25,32zm272 39c-7,-12 -14,-24 -21,-35l8 -5c7,11 14,23 21,36l-8 4zm-312 33l-8 -3c6,-14 12,-26 19,-38l8 5c-6,11 -13,24 -19,36zm347 42c-6,-13 -11,-26 -17,-38l9 -4c6,13 11,26 16,39l-8 3zm-378 35l-9 -3c5,-13 10,-26 15,-39l9 3c-5,13 -10,26 -15,39zm405 44c-4,-14 -8,-27 -13,-40l9 -3c4,13 9,26 13,40l-9 3zm-429 36l-9 -3c3,-13 7,-27 11,-40l9 3c-4,13 -8,26 -11,40zm451 44c-4,-14 -7,-27 -11,-40l9 -3c4,13 7,27 11,41l-9 2zm-471 37l-9 -2c3,-14 6,-28 9,-41l9 2c-3,13 -6,27 -9,41zm488 44c-3,-13 -6,-27 -8,-40l9 -2c3,13 5,27 8,41l-9 1zm-503 37l-9 -1c2,-14 4,-28 7,-41l9 1c-2,14 -5,28 -7,41zm516 46c-2,-14 -4,-28 -6,-42l9 -1c2,14 4,27 6,41l-9 2zm-528 37l-9 -1c1,-14 3,-28 5,-42l10 1c-2,14 -4,28 -6,42zm538 45c-1,-14 -3,-27 -5,-41l10 -1c1,13 3,27 4,41l-9 1zm-547 38l-9 -1c1,-14 3,-28 4,-42l9 1c-1,14 -2,28 -4,42zm554 45c-1,-14 -2,-28 -3,-41l9 -1c1,14 2,28 3,42l-9 0zm-559 38l-9 -1c0,-14 1,-28 2,-42l9 1c-1,14 -1,28 -2,42zm563 45c0,-13 -1,-27 -2,-41l10 -1c0,14 1,28 1,42l-9 0zm-566 38l-9 0c0,-14 0,-28 1,-42l9 0c0,14 -1,28 -1,42zm577 46l-10 0 0 -1c0,-14 0,-28 0,-41l9 0c1,13 1,27 1,41l0 1zm-586 37c-1,-13 -1,-26 -1,-38l0 -4 10 0 0 4c0,12 0,25 0,38l-9 0zm584 46l-9 0c0,-14 1,-28 1,-42l9 0c0,14 0,28 -1,42zm-582 38c0,-14 -1,-28 -1,-42l9 0c0,14 1,28 2,41l-10 1zm578 46l-9 -1c1,-14 2,-28 2,-42l10 1c-1,14 -2,28 -3,42zm-572 37c-2,-14 -3,-28 -3,-42l9 0c1,14 2,28 3,41l-9 1zm565 46l-9 -1c1,-14 2,-28 4,-42l9 1c-1,14 -2,28 -4,42zm-557 37c-2,-13 -3,-27 -5,-41l10 -1c1,14 3,28 4,41l-9 1zm547 46l-9 -1c2,-14 3,-28 5,-42l9 1c-1,14 -3,28 -5,42zm-535 37c-3,-14 -5,-27 -7,-41l10 -2c2,14 4,28 6,42l-9 1zm522 45l-10 -1c3,-14 5,-28 7,-41l10 1c-3,14 -5,28 -7,41zm-507 37c-3,-13 -6,-27 -8,-41l9 -1c2,13 5,27 8,40l-9 2zm489 45l-9 -2c3,-13 6,-27 9,-41l9 2c-3,14 -6,28 -9,41zm-470 37c-4,-13 -7,-27 -10,-41l9 -2c3,14 7,27 10,40l-9 3zm448 44l-9 -3c4,-13 8,-26 12,-40l9 3c-4,13 -8,27 -12,40zm-424 36c-4,-13 -8,-26 -13,-40l9 -3c4,14 9,27 13,40l-9 3zm397 43l-9 -3c5,-13 10,-26 14,-39l9 3c-4,13 -9,27 -14,39zm-366 35c-6,-12 -11,-25 -16,-39l8 -3c6,13 11,26 17,38l-9 4zm330 41l-8 -4c6,-12 13,-24 19,-37l8 4c-6,13 -12,25 -19,37zm-290 33c-7,-11 -14,-24 -21,-37l8 -4c7,13 14,25 21,36l-8 5zm243 37l-7 -6c8,-10 17,-21 25,-33l8 5c-9,13 -17,24 -26,34zm-188 27c-10,-9 -20,-19 -30,-30l7 -6c10,11 19,20 29,28l-6 8zm121 24l-4 -9c12,-4 23,-11 35,-20l5 7c-12,10 -24,17 -36,22zm-43 8c-14,0 -28,-4 -42,-10l4 -8c13,5 26,8 38,9l0 9z"/>
   <path class="fil2" d="M-6049 -9049l-27 0 0 -7 27 0 0 7zm56 0l-28 0 0 -7 28 0 0 7zm55 0l-28 0 0 -7 28 0 0 7zm55 0l-27 0 0 -7 27 0 0 7zm56 0l-28 0 0 -7 28 0 0 7zm55 0l-28 0 0 -7 28 0 0 7zm55 0l-28 0 0 -7 28 0 0 7zm55 0l-27 0 0 -7 27 0 0 7zm56 0l-28 0 0 -7 28 0 0 7zm55 0l-28 0 0 -7 28 0 0 7zm55 0l-27 0 0 -7 27 0 0 7zm56 0l-28 0 0 -7 28 0 0 7zm55 0l-28 0 0 -7 28 0 0 7zm55 0l-28 0 0 -7 28 0 0 7zm55 0l-27 0 0 -7 27 0 0 7zm56 0l-28 0 0 -7 28 0 0 7zm55 0l-28 0 0 -7 28 0 0 7zm55 0l-27 0 0 -7 27 0 0 7zm55 0l-27 0 0 -7 27 0 0 7zm56 0l-28 0 0 -7 28 0 0 7zm55 0l-28 0 0 -7 28 0 0 7zm55 0l-27 0 0 -7 27 0 0 7zm56 0l-28 0 0 -7 28 0 0 7zm55 0l-28 0 0 -7 28 0 0 7zm55 0l-27 0 0 -7 27 0 0 7zm55 0l-27 0 0 -7 27 0 0 7zm56 0l-28 0 0 -7 28 0 0 7zm55 0l-28 0 0 -7 28 0 0 7zm55 0l-27 0 0 -7 27 0 0 7zm56 0l-28 0 0 -7 28 0 0 7zm55 0l-28 0 0 -7 28 0 0 7zm31 0l-3 0 0 -7 3 0 0 7z"/>
   <path class="fil2" d="M-5214 -9884l-7 0 0 -27 7 0 0 27zm0 56l-7 0 0 -28 7 0 0 28zm0 55l-7 0 0 -28 7 0 0 28zm0 55l-7 0 0 -27 7 0 0 27zm0 56l-7 0 0 -28 7 0 0 28zm0 55l-7 0 0 -28 7 0 0 28zm0 55l-7 0 0 -27 7 0 0 27zm0 55l-7 0 0 -27 7 0 0 27zm0 56l-7 0 0 -28 7 0 0 28zm0 55l-7 0 0 -28 7 0 0 28zm0 55l-7 0 0 -27 7 0 0 27zm0 56l-7 0 0 -28 7 0 0 28zm0 55l-7 0 0 -28 7 0 0 28zm0 55l-7 0 0 -27 7 0 0 27zm0 55l-7 0 0 -27 7 0 0 27zm0 56l-7 0 0 -28 7 0 0 28zm0 55l-7 0 0 -28 7 0 0 28zm0 55l-7 0 0 -27 7 0 0 27zm0 56l-7 0 0 -28 7 0 0 28zm0 55l-7 0 0 -28 7 0 0 28zm0 55l-7 0 0 -27 7 0 0 27zm0 55l-7 0 0 -27 7 0 0 27zm0 56l-7 0 0 -28 7 0 0 28zm0 55l-7 0 0 -28 7 0 0 28zm0 55l-7 0 0 -27 7 0 0 27zm0 56l-7 0 0 -28 7 0 0 28zm0 55l-7 0 0 -28 7 0 0 28zm0 55l-7 0 0 -27 7 0 0 27zm0 55l-7 0 0 -27 7 0 0 27zm0 56l-7 0 0 -28 7 0 0 28zm0 55l-7 0 0 -28 7 0 0 28zm0 31l-7 0 0 -3 7 0 0 3z"/>
   <path class="fil5" d="M4134 -9296l-330 -92 96 -339 -767 -216 13 -260 1142 -755 291 82 -271 962 211 59 -79 280 -211 -59 -95 338zm-18 -1200l-554 372 417 117 137 -489z"/>
   <path class="fil8" d="M-3516 -11208l101 -346c169,56 316,68 457,6 164,-72 231,-197 167,-343 -60,-136 -211,-165 -377,-92 -101,44 -180,111 -241,176l-262 -45 -299 -806 979 -430 135 307 -678 298 102 284c57,-44 109,-80 198,-119 310,-136 624,-95 784,269 148,337 3,657 -364,818 -255,112 -482,103 -702,23z"/>
   <path class="fil9" d="M2094 -10063c1,-11 10,-134 196,-140 0,0 -92,11 -107,51 0,0 62,-50 113,-34 51,16 81,106 81,135 0,29 -28,124 -60,132 -12,3 -26,2 -39,0 8,13 17,28 25,45 74,153 -3,302 -66,286 -40,-11 -51,58 -51,58l-394 -318c0,0 145,-299 302,-215z"/>
   <path class="fil10" d="M1327 -8249c115,-11 252,-31 306,-65 83,-50 226,-262 314,-417 3,-4 9,-82 11,-86 46,-82 67,-32 69,-97 2,-40 -2,-74 -11,-103 -10,-40 -28,-70 -46,-94 -3,-4 -5,-7 -9,-11 -31,-36 -60,-51 -60,-51 -15,-6 -32,1 -49,20l0 0c-14,15 -29,37 -43,65 -1,1 -2,1 -2,2 -3,5 -6,12 -10,19 -1,1 -2,3 -2,4 -7,15 -14,30 -21,46 -78,169 -136,449 -205,525 -30,33 -190,74 -298,122 -78,34 -20,130 56,121z"/>
   <path class="fil2" d="M1958 -5558l83 32c0,0 363,-503 407,-946 8,-79 6,-155 -12,-226 0,0 4,-20 10,-56 3,-17 6,-37 10,-60 12,-67 28,-160 47,-265 43,-242 98,-552 141,-779l-23 -7 -243 -79 -50 -160 -181 -47c0,0 -41,79 -77,453 -7,49 -13,103 -18,162 -14,179 -15,401 18,655 8,65 19,132 32,201 9,51 11,120 7,199 -19,361 -151,923 -151,923z"/>
   <path class="fil11" d="M2052 -7536l394 782c3,-17 6,-37 10,-60 12,-67 28,-160 47,-265 43,-242 98,-552 141,-779l-23 -7 -243 -79 -50 -160 -248 -65c0,0 -28,484 -28,633z"/>
   <path class="fil2" d="M2226 -8051l9 -78c152,41 560,-113 560,-113 0,0 148,130 129,441 -10,152 -27,798 -45,990 -7,69 -13,118 -15,138l0 0c-1,6 1,12 4,17 27,45 49,92 67,140 178,473 -27,1055 -27,1055l-53 -21c0,0 -117,-648 -211,-934 -17,-49 -32,-87 -46,-110 -41,-66 -79,-175 -114,-304 -66,-244 -118,-562 -153,-807 -5,1 -105,-414 -105,-414z"/>
   <path class="fil10" d="M1934 -8998c48,22 106,37 176,41 262,14 322,-216 333,-368 -38,-14 -71,-13 -90,-12 -8,1 -15,1 -22,2 -26,2 -51,-9 -67,-30 -30,-38 -65,-107 -89,-201l-11 5 -189 89c0,0 20,61 35,120 6,26 12,51 14,70 2,19 -8,36 -25,43l0 0 0 1c-2,4 -43,109 -65,240z"/>
   <path class="fil12" d="M1975 -9472c0,0 20,61 35,120 110,-30 144,-147 154,-209l-189 89z"/>
   <path class="fil10" d="M1952 -9407c0,0 264,-61 224,-225 -41,-165 -34,-283 -205,-251 -171,32 -188,103 -188,161 0,58 99,327 169,315z"/>
   <path class="fil9" d="M1768 -9815c29,-60 62,-57 83,-46 125,-115 247,-21 247,-21 47,113 148,160 148,160 0,0 -40,41 -158,40 -36,0 -72,-16 -105,-39 63,64 138,103 138,103 -148,-29 -247,-199 -257,-218 -12,19 -36,58 -38,91 -3,45 12,133 -13,136 0,0 -87,-117 -45,-206z"/>
   <path class="fil8" d="M2691 -8544c-9,-10 -17,-21 -24,-33 -19,-30 -30,-63 -34,-98 -15,-138 -9,-267 -10,-345l0 0c-15,-11 -29,-21 -42,-30 -20,-14 -37,-28 -50,-42 -14,-15 -23,-30 -24,-47 -1,-14 -1,-27 1,-40 0,-7 1,-13 2,-19 10,-67 38,-127 38,-127 -70,-29 -232,-11 -232,-11 0,0 -16,134 -78,188 -25,22 -161,99 -223,21 -25,-32 -3,-115 -2,-122 1,0 -105,33 -167,92 -40,38 -63,111 -72,140 0,0 46,-2 84,24 -7,52 -11,110 10,167 2,5 5,10 7,15 66,143 189,736 189,736 38,115 801,-21 804,-118 28,-103 -103,-268 -177,-351z"/>
   <path class="fil13" d="M2285 -8274c161,-2 298,-169 382,-303 -19,-30 -30,-63 -34,-98 -15,-138 -9,-267 -10,-345l0 0c-15,-11 -29,-21 -42,-30 -20,-14 -37,-28 -50,-42 -132,224 -465,820 -246,818z"/>
   <path class="fil14" d="M2599 -5417l420 0c0,0 10,-64 -12,-113 -21,-47 -53,-68 -46,-124 -26,27 -70,58 -131,50 -7,12 -48,76 -73,94 -27,20 -150,13 -158,93z"/>
   <path class="fil14" d="M1696 -5417l421 0c0,0 15,-67 -12,-113 -25,-40 -15,-63 3,-97 -19,8 -44,15 -71,13 -21,-1 -43,-10 -62,-22 -19,21 -96,109 -120,126 -28,20 -150,13 -159,93z"/>
   <path class="fil2" d="M493 -8795c53,-445 -239,-807 -792,-873 -545,-65 -892,215 -946,674 -53,445 240,793 786,858 546,65 899,-214 952,-659zm-3064 2564l681 -771c332,337 624,511 1048,561 617,73 1003,-354 1155,-1021 -269,180 -622,276 -1061,224 -1091,-130 -1723,-817 -1600,-1851 120,-1012 992,-1666 2126,-1531 675,80 1050,292 1386,718 316,402 488,976 369,1981 -194,1630 -1094,2651 -2523,2482 -733,-87 -1199,-390 -1581,-792z"/>
   <path class="fil10" d="M1640 -8161l17 66c0,0 210,-44 256,-54l1 0c79,-19 167,-42 242,-67 52,-19 98,-38 129,-58 3,-2 6,-4 9,-6 74,-54 161,-212 230,-381 9,-23 18,-47 27,-70 31,-84 57,-168 72,-240 9,-43 16,-82 17,-114 0,-11 1,-22 0,-32 -1,-183 -92,-209 -92,-209 -2,0 -4,-1 -6,-2 -16,-2 -32,9 -49,30 -22,25 -45,68 -68,119 -36,81 -74,187 -109,292 -20,57 -39,115 -58,168 -10,32 -21,62 -31,90 -20,53 -38,96 -53,123 -10,18 -40,43 -78,70 -67,49 -456,275 -456,275z"/>
   <path class="fil8" d="M2406 -9172c122,-33 235,55 235,55 -2,-183 -93,-208 -93,-208 -36,-16 -98,55 -142,153z"/>
   <path class="fil10" d="M1681 -8184c0,0 -107,41 -128,58 -20,16 -60,69 -67,97 0,0 0,11 11,11 10,0 34,-41 52,-34 0,0 -22,54 -35,68 -14,13 -21,83 -18,98 2,14 92,-57 130,-89 20,-18 20,-60 26,-107 5,-42 120,-66 120,-66l-91 -36z"/>
   <path class="fil15" d="M-2894 -5881l-1620 0 0 -615 1625 0c132,0 238,107 238,238l0 134c0,135 -109,243 -243,243z"/>
   <path class="fil16" d="M-1261 -6243l0 93c0,49 -13,96 -35,135 -43,81 -124,134 -217,134l-3051 0c-20,0 -36,-17 -36,-39l0 -14c0,-21 16,-39 36,-39l1860 0c10,-13 19,-27 26,-42 17,-35 27,-75 27,-117l0 -118c0,-22 -2,-43 -7,-63 -9,-33 -24,-64 -43,-91l-1863 0c-20,0 -36,-17 -36,-39l0 -14c0,-22 16,-39 36,-39l3066 0c108,0 199,78 227,183 6,23 10,46 10,70z"/>
   <path class="fil17" d="M-1271 -6313l-1387 0c-9,-33 -24,-64 -43,-91l-1863 0c-20,0 -36,-17 -36,-39l0 -14c0,-22 16,-39 36,-39l3066 0c108,0 199,78 227,183z"/>
   <polygon class="fil18" points="-4514,-6188 -4288,-6178 -4514,-6172 "/>
   <polygon class="fil18" points="-4514,-6092 -3976,-6081 -4514,-6075 "/>
   <path class="fil19" d="M-3970 -5403l1590 0 0 -479 -1604 0c-119,0 -215,97 -215,216l0 33c0,127 103,230 229,230z"/>
   <path class="fil15" d="M-2456 -5403l1812 0 0 -479 -1817 0c-121,0 -219,98 -219,219l0 35c0,124 100,225 224,225z"/>
   <path class="fil19" d="M-2800 -5403l2217 0c19,0 33,-15 33,-34l0 -5c0,-18 -14,-33 -33,-33l-2217 0c-19,0 -33,15 -33,33l0 5c0,19 14,34 33,34z"/>
   <path class="fil19" d="M-2800 -5810l2217 0c19,0 33,-15 33,-34l0 -5c0,-18 -14,-33 -33,-33l-2217 0c-19,0 -33,15 -33,33l0 5c0,19 14,34 33,34z"/>
   <polygon class="fil18" points="-644,-5643 -891,-5635 -644,-5630 "/>
   <polygon class="fil18" points="-644,-5753 -1231,-5745 -644,-5740 "/>
   <path class="fil8" d="M-1225 -5746c0,0 25,20 33,54 2,6 3,12 3,19 1,45 0,147 0,147l74 -51 74 51 0 -138c0,-26 -6,-52 -18,-68 -6,-8 -13,-14 -20,-14l-146 0z"/>
   <path class="fil13" d="M-1225 -5746c0,0 25,20 33,54l149 2c0,0 -6,-48 -36,-56l-146 0z"/>
   <path class="fil15" d="M-2634 -6495l-1711 0 0 -703 1717 0c144,0 262,117 262,262l0 173c0,148 -120,268 -268,268z"/>
   <path class="fil8" d="M-2365 -6925l0 151c-1,65 -33,121 -81,151 -24,15 -51,23 -80,23l-1871 0c-22,0 -39,20 -39,44l0 18c0,24 17,43 39,43l3232 0c93,0 175,-50 225,-128 31,-49 49,-108 49,-173l0 -119c0,-44 -9,-86 -25,-123 -42,-95 -130,-160 -232,-160l-3249 0c-22,0 -39,20 -39,44l0 18c0,24 17,43 39,43l1877 0c45,0 85,21 114,55 25,30 40,69 41,113z"/>
   <path class="fil13" d="M-4436 -6556l0 18c0,24 17,43 39,43l3232 0c93,0 175,-50 225,-128l-1506 0c-24,15 -51,23 -80,23l-1871 0c-22,0 -39,20 -39,44z"/>
   <polygon class="fil18" points="-4345,-6846 -4105,-6834 -4345,-6827 "/>
   <polygon class="fil18" points="-4345,-7008 -3774,-6996 -4345,-6989 "/>
   <path class="fil8" d="M-2664 -6999c0,0 -37,23 -50,59 -2,7 -3,14 -4,21 -2,48 0,159 0,159l-111 -55 -111 55 0 -150c0,-28 10,-55 27,-73 9,-9 19,-16 31,-16l218 0z"/>
   <path class="fil13" d="M-2664 -6999c0,0 -37,23 -50,59l-223 2c0,0 9,-52 55,-61l218 0z"/>
   <path class="fil10" d="M-362 -9608c10,12 12,26 6,41l0 0c-10,27 -42,58 -80,89 -5,4 -10,7 -13,10 -1,1 -2,2 -3,3 -1,1 -2,1 -3,2 -35,33 -22,40 -86,107 -72,76 -123,77 -137,70 -12,-6 13,-46 40,-91 1,-2 2,-5 4,-7 3,-6 7,-12 11,-18 31,-54 23,-80 16,-161 -6,-65 -103,-367 -103,-367l140 -24c0,0 42,240 88,277 25,20 53,20 76,35 2,1 4,2 5,3 14,9 28,18 39,31z"/>
   <path class="fil20" d="M-362 -9608c10,12 12,26 6,41l0 0c-12,27 -44,58 -81,88 -4,4 -9,8 -12,11 -1,1 -2,2 -3,3 -1,1 -2,1 -3,2 -35,33 -22,40 -86,107 -72,76 -123,77 -137,70 -12,-6 13,-46 40,-91 14,-5 80,-32 130,-96 43,-56 73,-128 102,-169 2,1 4,2 5,3 14,9 28,18 39,31z"/>
   <path class="fil10" d="M-1487 -9696c-9,43 -70,36 -139,20 -68,-17 -52,3 -150,-8 -97,-11 -127,-47 -130,-62 -3,-13 46,-17 97,-23 7,-1 13,-2 20,-3 58,-7 101,-45 154,-75 50,-30 125,-149 125,-149l134 10c0,0 -70,107 -97,153 -16,28 -15,64 -13,92 1,15 2,30 -1,45z"/>
   <path class="fil20" d="M-1626 -9676c-68,-17 -52,3 -150,-8 -97,-11 -127,-47 -130,-62 -3,-13 46,-17 97,-23l1 1c0,0 58,41 140,43 66,2 136,-17 182,-16 1,15 2,30 -1,45 -9,43 -70,36 -139,20z"/>
   <path class="fil13" d="M-974 -10551l125 336 163 440c0,0 44,4 87,-8 39,-11 84,-41 84,-41 0,0 -45,-472 -130,-743 -22,-69 -46,-126 -73,-157 -131,-155 -256,173 -256,173z"/>
   <path class="fil8" d="M-847 -11086c73,-24 268,1 477,39 44,8 89,-12 113,-51l10 -16 507 -39c0,0 163,369 76,607 -25,67 -279,75 -493,58 -252,-20 -534,-173 -571,-181 -59,-12 -83,108 -143,233 -60,125 -561,554 -561,554 0,0 -77,1 -108,-11 -35,-13 -47,-29 -47,-29 0,0 555,-1105 740,-1164z"/>
   <path class="fil21" d="M-317 -11749c153,138 505,268 507,267 0,0 119,80 205,48 144,-53 263,-259 81,-503 -91,-121 -169,-164 -142,-318 29,-167 -36,-383 -229,-402 -16,-1 -113,-20 -184,-1 -181,46 -493,809 -238,909z"/>
   <path class="fil10" d="M-108 -11952c-1,0 80,51 144,39 61,-12 118,-91 117,-91 -25,-7 -41,-37 -28,-185l-12 1 -194 22c0,0 -1,61 -5,117 -4,48 -10,93 -22,97z"/>
   <path class="fil22" d="M-81 -12166c0,0 -1,61 -5,117 107,6 171,-87 199,-139l-194 22z"/>
   <path class="fil10" d="M-121 -12115c0,0 252,25 265,-132 14,-158 55,-261 -106,-283 -160,-23 -197,35 -214,86 -17,52 -10,319 55,329z"/>
   <path class="fil21" d="M-94 -12555c0,0 32,192 176,238 104,33 152,11 152,11 0,0 -51,-67 -69,-160 -5,-27 -24,-50 -51,-59 -74,-24 -165,-91 -208,-30z"/>
   <path class="fil21" d="M-46 -12514c0,0 -48,11 -90,72 -23,33 -50,118 -45,155 0,0 -44,-178 20,-244 68,-70 115,17 115,17z"/>
   <path class="fil2" d="M347 -11435c-5,19 -9,37 -12,53 -5,26 -8,49 -11,69 -8,62 -5,99 -10,139 -3,22 -9,46 -19,76 -11,28 -285,54 -441,44 -50,-3 -85,-14 -101,-22 -47,-25 -61,7 -58,-451 2,-248 211,-469 211,-469 0,0 17,106 230,-20 7,-5 91,119 171,272 89,169 65,204 40,309z"/>
   <path class="fil8" d="M-849 -10215l163 440c0,0 44,4 87,-8 39,-11 84,-41 84,-41 0,0 -45,-472 -130,-743l-204 352z"/>
   <path class="fil2" d="M-94 -11996c0,0 -180,15 -240,188 -31,93 -206,562 -206,562 0,0 140,19 191,-32 52,-52 175,-447 175,-447l80 -271z"/>
   <path class="fil10" d="M-985 -11365l-52 -21c0,0 -31,-7 -48,-1 -17,5 -59,4 -59,11 -1,7 48,29 48,29l1 -1c-18,42 -110,65 -114,80 -5,19 37,28 60,34 24,6 80,5 108,-24 21,-22 56,-52 56,-52l0 -55z"/>
   <path class="fil23" d="M-63 -12208c0,0 -10,26 -38,26 -28,0 -36,-4 -41,-10 -5,-6 -11,-17 -11,-17 0,0 47,-9 90,1z"/>
   <path class="fil2" d="M-480 -11426l-386 -90c0,0 -80,32 -45,90 0,0 349,219 480,195 150,-27 251,-307 251,-307l-300 112z"/>
   <path class="fil11" d="M324 -11313c-8,62 -5,99 -10,139 -199,0 -464,-153 -464,-153l474 14z"/>
   <path class="fil11" d="M-150 -11458c0,0 309,-9 361,-185 57,-193 121,80 121,80l-34 174 -339 0 -109 -69z"/>
   <polygon class="fil19" points="-1188,-11185 -1722,-11049 -1825,-11456 -1292,-11591 -1427,-12122 -1009,-12228 -873,-11698 -340,-11834 -237,-11427 -770,-11291 -635,-10761 -1053,-10654 "/>
   <path class="fil10" d="M-150 -11417l-36 -43c0,0 -23,-21 -41,-25 -17,-4 -53,-25 -57,-19 -3,6 28,48 28,48l2 1c-37,27 -128,3 -139,14 -14,14 19,43 36,59 17,16 67,44 106,32 29,-9 73,-18 73,-18l28 -49z"/>
   <path class="fil2" d="M136 -12016c0,0 200,13 251,91 50,79 112,476 86,613 -26,136 -669,-26 -669,-26l20 -119c0,0 371,2 393,-46 28,-64 -81,-513 -81,-513z"/>
   <path class="fil10" d="M-5322 -8145c0,0 112,45 150,33 38,-12 103,-48 115,-78 11,-30 -77,7 -107,0 -30,-8 -63,-17 -121,0 -59,17 -37,45 -37,45z"/>
   <path class="fil24" d="M-6339 -5570c0,0 8,136 33,168l389 0c-2,-13 -13,-47 -62,-55 -61,-11 -164,-54 -201,-135 -40,-86 -159,22 -159,22z"/>
   <path class="fil24" d="M-7030 -5589c0,0 -26,170 8,173 4,0 160,0 202,6 69,11 185,2 185,2 14,0 24,-15 16,-28 -8,-14 -23,-28 -52,-34 -62,-12 -164,-57 -200,-138 -37,-87 -159,19 -159,19z"/>
   <path class="fil11" d="M-6157 -7382c0,0 -97,342 -378,937 -280,594 -302,865 -302,865l-193 -9c0,0 18,-707 151,-1008 132,-300 159,-1121 159,-1121l563 336z"/>
   <path class="fil2" d="M-5999 -7677c0,0 7,530 -84,1181 -92,651 -61,928 -61,928l-220 7c0,0 -131,-651 -93,-977 37,-326 -180,-1118 -180,-1118l638 -21z"/>
   <path class="fil10" d="M-6433 -8918l104 77 149 -31c-2,-14 -12,-71 -21,-122 0,-3 -1,-6 -1,-9 -8,-44 -14,-81 -14,-81l-140 -70 -53 -26c1,1 5,49 5,56 10,123 -29,206 -29,206z"/>
   <path class="fil8" d="M-5979 -7659c9,94 -748,206 -751,47 -2,-139 81,-907 107,-1017 45,-195 86,-306 173,-332 32,-9 150,22 235,47 6,1 12,3 18,6 21,8 40,20 56,36 23,21 40,49 50,80 13,44 28,101 40,163 11,57 20,117 23,178 1,13 1,25 1,38 1,46 5,106 11,173 3,42 8,86 12,132 1,13 3,26 4,39 1,10 15,310 20,390 0,1 0,2 0,3l0 1c0,1 0,2 0,3 0,7 1,12 1,13z"/>
   <path class="fil25" d="M-6393 -9122c30,58 145,109 192,128 0,-3 -1,-6 -1,-9 -8,-44 -14,-81 -14,-81l-140 -70c-31,0 -50,7 -37,32z"/>
   <path class="fil10" d="M-6148 -9092c0,0 -253,78 -299,-80 -47,-157 -111,-254 48,-311 159,-56 209,-6 237,43 28,49 78,323 14,348z"/>
   <path class="fil26" d="M-6172 -9455c0,0 -16,184 -54,176 -38,-8 -73,-14 -67,41 6,56 58,120 -59,130 -117,9 -285,-293 -253,-350 93,-165 567,-198 433,3z"/>
   <path class="fil13" d="M-6190 -8956c-3,-2 -204,-61 -226,-54 -21,7 -34,50 -34,50l309 88c0,0 -7,-67 -49,-84z"/>
   <path class="fil10" d="M-5285 -8190c0,0 36,-31 67,-37 31,-7 58,-36 58,-22 0,14 -23,47 -23,59 0,11 -102,0 -102,0z"/>
   <path class="fil13" d="M-6016 -8240c-161,-61 -283,-298 -283,-298l271 87c1,13 1,25 1,38 1,46 5,106 11,173z"/>
   <path class="fil8" d="M-5280 -8164l0 -2c7,-27 -6,-56 -32,-68 -101,-49 -362,-175 -392,-191 -30,-16 -337,-311 -428,-399 -16,-16 -39,-21 -60,-14l-254 83c-47,15 -56,78 -15,106 186,128 577,394 647,430 124,63 374,96 467,107 26,3 51,-12 61,-36 2,-5 4,-11 6,-16z"/>
   <path class="fil4" d="M-5780 -5570c0,6 1,12 2,18 2,20 8,38 17,54 7,13 15,24 25,34 28,28 65,45 107,45l2120 0c83,0 150,-68 150,-151 0,-42 -17,-79 -44,-107 -27,-27 -65,-44 -106,-44l-2120 0c-83,0 -151,68 -151,151z"/>
   <path class="fil4" d="M-5618 -5748l727 0c12,0 23,-11 23,-23 0,-13 -11,-23 -23,-23l-727 0c-13,0 -23,10 -23,23 0,12 10,23 23,23z"/>
   <polygon class="fil27" points="-5578,-5721 -5499,-5721 -5499,-5748 -5578,-5748 "/>
   <path class="fil27" d="M-5761 -5498c7,13 15,24 25,34 28,28 65,45 107,45l449 0 0 -79 -581 0z"/>
   <path class="fil8" d="M-3078 -5614l0 88c0,10 -1,19 -4,28 -12,45 -54,79 -103,79l-2208 0c-49,0 -90,-34 -102,-79 -3,-9 -4,-18 -4,-28l0 -88c0,-59 48,-107 106,-107l2208 0c59,0 107,48 107,107z"/>
   <path class="fil28" d="M-3082 -5498c-12,45 -54,79 -103,79l-2208 0c-49,0 -90,-34 -102,-79l2413 0z"/>
   <path class="fil2" d="M-3297 -5570c0,47 17,89 43,117 1,0 2,1 2,2 21,20 47,33 76,33 45,0 155,-68 224,-113 34,-22 58,-39 58,-39 0,0 -24,-16 -58,-39 -69,-44 -179,-112 -224,-112 -13,0 -26,3 -37,7 -20,8 -38,22 -51,41 -16,20 -27,45 -31,73l0 1c-2,10 -2,19 -2,29z"/>
   <path class="fil0" d="M-3264 -5673l339 92 -288 -133c-20,8 -38,22 -51,41z"/>
   <path class="fil8" d="M-2974 -5570c0,18 9,34 22,39 34,-22 58,-39 58,-39 0,0 -24,-16 -58,-39 -13,6 -22,21 -22,39z"/>
   <path class="fil29" d="M5890 -5382l-14137 0c-9,0 -17,-7 -17,-16l0 -7c0,-9 8,-16 17,-16l14137 0c9,0 16,7 16,16l0 7c0,9 -7,16 -16,16z"/>
  </g>
  <g id="_2043929307200">
   <g>
    <path class="fil30" d="M9415 8694c102,-57 232,-60 336,-6 103,54 177,162 189,278 -215,0 -426,-50 -525,-272z"/>
    <g>
     <path class="fil30" d="M9665 8474c143,47 309,17 427,-77 118,-94 185,-249 171,-400 -272,54 -528,170 -598,477z"/>
     <g>
      <path class="fil31" d="M8732 8837c-1,-1 4,-3 13,-6 10,-3 23,-7 39,-13 34,-11 83,-27 144,-48 121,-42 287,-103 466,-181 90,-39 174,-79 249,-117 75,-39 142,-76 197,-109 54,-34 97,-63 124,-86 28,-22 42,-36 43,-36 0,1 -3,4 -10,11 -6,7 -16,17 -30,28 -27,24 -70,54 -123,89 -55,35 -121,73 -196,112 -76,39 -160,79 -249,118 -180,79 -347,138 -469,178 -60,20 -110,35 -145,45 -16,5 -29,9 -39,11 -9,3 -14,4 -14,4z"/>
     </g>
    </g>
    <g>
     <path class="fil31" d="M9690 8818c-1,2 -26,-15 -68,-38 -43,-24 -105,-51 -176,-71 -71,-19 -138,-27 -187,-29 -49,-2 -79,1 -79,-1 0,-1 8,-2 21,-4 14,-1 34,-2 58,-2 49,-1 117,6 190,25 72,20 134,50 176,75 22,12 38,23 49,32 11,8 17,13 16,13z"/>
    </g>
   </g>
   <g>
    <path class="fil30" d="M4634 7864c-52,138 -29,301 57,420 87,118 236,189 382,182 -40,-267 -143,-521 -439,-602z"/>
    <g>
     <path class="fil31" d="M4592 7733c2,0 9,29 25,76 15,46 40,110 75,175 35,66 74,122 105,161 30,38 51,61 49,62 0,0 -6,-5 -16,-14 -10,-10 -23,-25 -39,-44 -32,-37 -73,-93 -109,-159 -35,-67 -59,-131 -73,-179 -7,-24 -11,-43 -14,-57 -3,-13 -4,-21 -3,-21z"/>
    </g>
   </g>
   <g>
    <path class="fil30" d="M393 2509c-80,213 -46,465 88,649 135,184 365,294 592,283 -63,-414 -222,-807 -680,-932z"/>
    <g>
     <path class="fil31" d="M328 2305c0,0 4,12 10,32 5,21 14,50 26,86 23,73 61,171 116,274 55,102 115,188 163,247 24,30 43,54 57,70 14,16 22,25 21,26 0,0 -9,-8 -24,-23 -15,-15 -36,-38 -60,-68 -49,-58 -112,-144 -167,-247 -55,-103 -92,-203 -114,-276 -11,-37 -18,-67 -23,-88 -4,-21 -6,-32 -5,-33z"/>
    </g>
   </g>
   <g>
    <path class="fil30" d="M1110 6733c-115,92 -179,244 -164,390 14,147 106,283 236,352 101,-251 141,-522 -72,-742z"/>
    <g>
     <path class="fil31" d="M1140 6599c2,0 -7,30 -17,78 -11,47 -21,114 -25,189 -3,75 3,143 9,191 6,49 13,79 11,79 -1,0 -3,-7 -7,-20 -3,-14 -8,-33 -12,-58 -8,-48 -15,-117 -12,-192 4,-76 16,-143 28,-191 7,-24 12,-43 17,-56 5,-13 8,-20 8,-20z"/>
    </g>
   </g>
   <g>
    <path class="fil30" d="M5049 1366c131,66 296,60 423,-14 127,-74 213,-214 220,-361 -270,13 -532,89 -643,375z"/>
    <g>
     <path class="fil31" d="M4914 1394c0,-1 30,-6 78,-16 48,-11 113,-29 182,-57 69,-29 129,-62 170,-88 42,-26 66,-44 67,-43 1,1 -5,6 -16,15 -10,9 -26,21 -46,35 -41,28 -101,62 -171,91 -70,29 -136,46 -185,55 -24,4 -44,7 -58,8 -13,1 -21,1 -21,0z"/>
    </g>
   </g>
   <g>
    <path class="fil30" d="M4498 1328c190,-41 355,-182 425,-363 70,-180 43,-396 -70,-554 -267,236 -475,531 -355,917z"/>
    <g>
     <path class="fil31" d="M4383 1467c-1,0 6,-8 18,-21 12,-14 29,-34 49,-59 41,-50 94,-122 142,-209 48,-86 82,-169 103,-230 10,-31 18,-56 23,-73 6,-18 9,-27 10,-27 0,0 -1,10 -5,28 -4,18 -11,43 -21,74 -19,62 -52,147 -100,234 -49,87 -103,159 -146,208 -21,25 -39,44 -52,57 -13,12 -21,19 -21,18z"/>
    </g>
   </g>
   <g>
    <path class="fil30" d="M6239 8598c40,79 122,136 210,146 88,10 180,-27 236,-96 -135,-90 -289,-148 -446,-50z"/>
    <g>
     <path class="fil31" d="M6164 8563c2,-3 66,35 153,56 87,23 161,21 161,25 0,1 -18,3 -48,3 -30,-1 -71,-6 -116,-17 -44,-11 -82,-27 -109,-41 -26,-14 -41,-24 -41,-26z"/>
    </g>
   </g>
   <g>
    <path class="fil30" d="M8207 978c54,70 145,110 233,102 89,-7 172,-61 214,-139 -150,-63 -313,-90 -447,37z"/>
    <g>
     <path class="fil31" d="M8126 958c1,-3 71,21 161,26 90,5 162,-11 163,-7 0,1 -18,7 -47,12 -29,5 -71,8 -117,6 -45,-3 -86,-11 -115,-19 -28,-9 -45,-16 -45,-18z"/>
    </g>
   </g>
   <g>
    <path class="fil30" d="M13306 1631c141,39 302,2 412,-95 111,-97 168,-251 147,-397 -262,65 -505,190 -559,492z"/>
    <g>
     <path class="fil31" d="M13179 1684c-1,-1 28,-11 73,-31 45,-19 106,-50 168,-91 63,-41 115,-85 150,-118 36,-34 56,-56 58,-55 0,0 -4,7 -13,17 -9,11 -22,26 -39,43 -35,36 -87,81 -150,123 -63,41 -125,71 -171,88 -23,9 -42,16 -55,19 -13,4 -21,6 -21,5z"/>
    </g>
   </g>
   <g>
    <path class="fil30" d="M13808 8100c249,-58 464,-247 553,-487 88,-240 48,-523 -104,-729 -348,316 -616,709 -449,1216z"/>
    <g>
     <path class="fil31" d="M13658 8286c0,0 8,-10 24,-28 16,-18 38,-45 65,-78 26,-33 57,-74 88,-121 32,-47 64,-100 95,-157 31,-58 57,-114 79,-166 21,-52 39,-100 52,-141 13,-41 22,-74 29,-97 6,-23 10,-36 10,-36 1,1 -1,14 -6,37 -5,24 -14,57 -26,98 -12,42 -29,90 -50,143 -21,52 -47,109 -78,167 -31,58 -64,111 -96,158 -33,46 -64,87 -91,120 -28,33 -51,59 -68,76 -17,17 -26,26 -27,25z"/>
    </g>
   </g>
   <path class="fil30" d="M4746 564c-169,-138 -444,-116 -592,44 -128,113 -89,434 71,583 159,149 443,127 582,-41 138,-169 108,-448 -61,-586z"/>
   <path class="fil30" d="M8592 856c176,72 366,-96 554,-76 97,10 181,68 271,104 90,36 267,46 303,-75 82,-145 -52,-320 -182,-419 -131,-100 -364,-132 -528,-141 -117,-6 -238,5 -344,55 -106,51 -195,145 -218,261 -22,115 36,247 144,291z"/>
   <g>
    <path class="fil30" d="M3129 2154c5,560 -444,1017 -1003,1023 -559,5 -1017,-444 -1022,-1003 -6,-559 443,-1017 1003,-1022 559,-6 1016,443 1022,1002z"/>
   </g>
   <g>
    <path class="fil30" d="M3649 6909c-384,-468 -801,-723 -1187,-759 -415,-27 -864,144 -1069,505 -206,362 -71,905 318,1050 161,59 345,52 491,141 227,138 273,448 446,650 212,249 611,291 894,129 284,-162 448,-493 451,-820 4,-327 -137,-644 -344,-896z"/>
   </g>
   <g>
    <path class="fil30" d="M14888 4938c6,579 -459,1053 -1038,1058 -579,6 -1053,-459 -1058,-1038 -6,-579 459,-1053 1038,-1058 579,-6 1053,459 1058,1038z"/>
   </g>
   <g>
    <path class="fil32" d="M10927 5424c-134,-748 -777,-1402 -1534,-1463 -413,-34 -828,96 -1239,47 -345,-42 -673,-215 -902,-476 -339,-386 -454,-936 -814,-1303 -495,-507 -1360,-515 -1962,-142 -603,373 -967,1046 -1134,1734l-7 210c-36,714 152,1545 566,2182 420,645 696,911 1462,1375 650,394 1922,567 2682,585 760,19 1540,-208 2112,-709 571,-501 904,-1292 770,-2040z"/>
    <g>
     <path class="fil33" d="M10927 5424c-134,-748 -777,-1402 -1534,-1463 -413,-34 -828,96 -1239,47 -345,-42 -673,-215 -902,-476 -339,-386 -454,-936 -814,-1303 -495,-507 -1360,-515 -1962,-142 -603,373 -967,1046 -1134,1734l-7 210c-36,714 152,1545 566,2182 420,645 696,911 1462,1375 650,394 1922,567 2682,585 760,19 1540,-208 2112,-709 571,-501 904,-1292 770,-2040z"/>
    </g>
   </g>
   <g>
    <path class="fil32" d="M11675 8038c2,203 -160,368 -363,370 -202,2 -367,-160 -369,-363 -2,-202 160,-367 362,-369 203,-2 368,160 370,362z"/>
    <path class="fil33" d="M11675 8038c2,203 -160,368 -363,370 -202,2 -367,-160 -369,-363 -2,-202 160,-367 362,-369 203,-2 368,160 370,362z"/>
   </g>
   <g>
    <g>
     <path class="fil32" d="M8739 5225c7,731 -152,1290 -478,1676 -325,387 -771,583 -1337,588 -569,6 -1021,-181 -1357,-562 -335,-380 -507,-935 -514,-1666l-12 -1285c-7,-729 152,-1287 478,-1676 326,-390 773,-587 1342,-592 566,-6 1017,183 1352,566 336,382 507,938 514,1666l12 1285zm-951 -1420l0 0c-5,-460 -85,-800 -242,-1020 -156,-219 -382,-328 -678,-325 -296,3 -520,116 -671,338 -151,223 -224,564 -219,1024l15 1562c4,463 85,805 243,1026 158,221 385,330 681,327 295,-3 518,-116 668,-338 150,-223 222,-567 218,-1032l-15 -1562z"/>
    </g>
    <g>
     <path class="fil34" d="M8739 5225c7,731 -152,1290 -478,1676 -325,387 -771,583 -1337,588 -569,6 -1021,-181 -1357,-562 -335,-380 -507,-935 -514,-1666l-12 -1285c-7,-729 152,-1287 478,-1676 326,-390 773,-587 1342,-592 566,-6 1017,183 1352,566 336,382 507,938 514,1666l12 1285zm-951 -1420l0 0c-5,-460 -85,-800 -242,-1020 -156,-219 -382,-328 -678,-325 -296,3 -520,116 -671,338 -151,223 -224,564 -219,1024l15 1562c4,463 85,805 243,1026 158,221 385,330 681,327 295,-3 518,-116 668,-338 150,-223 222,-567 218,-1032l-15 -1562z"/>
    </g>
    <g>
     <path class="fil32" d="M9280 5220c7,731 -153,1290 -478,1676 -326,387 -772,583 -1338,588 -569,6 -1021,-182 -1356,-562 -336,-380 -507,-936 -514,-1666l-13 -1286c-7,-728 153,-1287 478,-1676 326,-389 773,-586 1342,-592 566,-5 1017,184 1353,566 335,383 506,939 513,1667l13 1285zm-952 -1420l0 0c-4,-460 -85,-800 -241,-1020 -157,-219 -383,-328 -679,-325 -296,3 -519,116 -670,338 -151,223 -224,564 -220,1024l15 1562c4,463 85,805 243,1026 158,220 385,329 681,327 296,-3 519,-116 668,-339 150,-222 223,-566 218,-1031l-15 -1562z"/>
    </g>
    <g>
     <path class="fil32" d="M5585 4047c1,3 -124,52 -280,111 -156,59 -283,104 -284,101 -1,-3 124,-53 280,-111 156,-59 283,-104 284,-101z"/>
    </g>
    <g>
     <path class="fil32" d="M5616 4555c2,2 -124,52 -280,111 -156,58 -283,104 -284,101 -1,-3 124,-53 280,-112 156,-58 283,-103 284,-100z"/>
    </g>
    <g>
     <path class="fil32" d="M5648 5062c1,3 -125,53 -281,112 -155,58 -283,103 -284,101 -1,-3 125,-53 281,-112 155,-58 283,-103 284,-101z"/>
    </g>
    <g>
     <path class="fil32" d="M5679 5570c1,3 -125,53 -280,112 -156,58 -283,103 -285,100 -1,-2 125,-52 281,-111 156,-58 283,-103 284,-101z"/>
    </g>
    <g>
     <path class="fil32" d="M5710 6078c0,1 -7,4 -19,10 -13,5 -32,13 -55,22 -46,19 -110,43 -181,70 -71,27 -135,50 -182,67 -24,8 -43,14 -56,19 -13,4 -20,6 -21,5 0,0 7,-4 20,-9 12,-6 31,-13 54,-23 46,-18 110,-43 181,-69 71,-27 136,-51 182,-67 24,-8 43,-15 56,-19 13,-4 21,-6 21,-6z"/>
    </g>
    <g>
     <path class="fil32" d="M5855 6543c1,1 -24,12 -64,28 -40,16 -96,38 -158,61 -62,23 -118,44 -159,58 -41,15 -66,23 -67,21 -1,-1 24,-12 64,-28 40,-16 96,-38 158,-61 62,-23 118,-44 159,-58 41,-14 67,-23 67,-21z"/>
    </g>
    <g>
     <path class="fil32" d="M6165 6969c1,2 -21,11 -57,26 -35,14 -85,34 -140,54 -55,21 -105,39 -142,52 -36,12 -59,20 -60,18 0,-1 22,-11 57,-26 36,-14 86,-33 141,-54 55,-21 105,-39 142,-52 36,-12 59,-19 59,-18z"/>
    </g>
    <g>
     <path class="fil32" d="M6681 7249c1,1 -21,11 -57,25 -35,15 -85,34 -140,55 -55,20 -105,39 -142,51 -36,13 -59,20 -60,19 0,-2 22,-12 57,-26 36,-15 86,-34 141,-55 55,-20 105,-39 142,-51 36,-13 59,-20 59,-18z"/>
    </g>
    <g>
     <path class="fil32" d="M8238 6165c1,3 -160,78 -360,168 -200,90 -363,160 -364,157 -2,-2 159,-78 359,-167 200,-90 363,-161 365,-158z"/>
    </g>
    <g>
     <path class="fil32" d="M8343 5730c2,2 -131,65 -297,139 -165,75 -300,132 -301,130 -1,-3 131,-66 297,-140 165,-74 300,-132 301,-129z"/>
    </g>
    <g>
     <path class="fil32" d="M8392 5241c1,3 -132,65 -297,139 -165,75 -300,133 -302,130 -1,-3 132,-65 297,-140 166,-74 301,-132 302,-129z"/>
    </g>
    <g>
     <path class="fil32" d="M8441 4752c1,3 -132,65 -297,140 -166,74 -301,132 -302,129 -1,-3 132,-65 297,-140 165,-74 300,-132 302,-129z"/>
    </g>
    <g>
     <path class="fil32" d="M8489 4263c2,3 -131,65 -297,140 -165,74 -300,132 -301,129 -2,-3 131,-65 297,-139 165,-75 300,-133 301,-130z"/>
    </g>
    <g>
     <path class="fil32" d="M8392 3828c1,3 -132,65 -297,139 -165,75 -300,133 -302,130 -1,-3 132,-65 297,-140 166,-74 301,-132 302,-129z"/>
    </g>
    <g>
     <path class="fil32" d="M8392 3359c1,3 -132,65 -297,140 -165,74 -300,132 -302,129 -1,-3 132,-65 297,-139 166,-75 301,-133 302,-130z"/>
    </g>
    <g>
     <path class="fil32" d="M8343 2918c2,3 -131,65 -297,139 -165,75 -300,133 -301,130 -1,-3 131,-65 297,-140 165,-74 300,-132 301,-129z"/>
    </g>
    <g>
     <path class="fil32" d="M7924 2610c1,3 -79,42 -180,87 -100,46 -183,80 -184,77 -1,-3 79,-42 180,-87 100,-45 183,-79 184,-77z"/>
    </g>
    <g>
     <path class="fil32" d="M7700 2422c1,3 -79,42 -180,87 -100,45 -183,80 -184,77 -1,-3 79,-42 180,-87 100,-45 183,-80 184,-77z"/>
    </g>
    <g>
     <path class="fil32" d="M5609 3431c1,3 -124,53 -280,111 -156,59 -283,104 -284,101 -1,-3 124,-52 280,-111 156,-59 283,-104 284,-101z"/>
    </g>
    <g>
     <path class="fil32" d="M5766 2798c1,3 -135,56 -304,120 -169,63 -307,112 -308,110 -1,-3 135,-57 304,-121 169,-63 307,-112 308,-109z"/>
    </g>
    <g>
     <path class="fil32" d="M6174 2171c1,3 -172,70 -386,151 -214,80 -388,143 -389,140 -1,-3 171,-70 385,-151 214,-80 388,-143 390,-140z"/>
    </g>
    <g>
     <path class="fil35" d="M9188 6172c0,0 -3,-1 -9,-3 -6,-3 -14,-6 -25,-10 -11,-4 -26,-7 -43,-12 -17,-3 -37,-7 -60,-7 -91,-6 -227,27 -358,125 -66,48 -129,113 -189,187 -61,75 -121,159 -189,244 -67,85 -145,171 -244,237 -99,67 -215,115 -339,137 -124,23 -249,17 -364,-12 -116,-27 -222,-73 -320,-118 -99,-46 -191,-93 -279,-131 -88,-39 -173,-67 -253,-86 -80,-18 -154,-26 -219,-25 -64,1 -120,10 -164,22 -44,13 -77,27 -98,39 -10,5 -18,9 -24,12 -6,3 -9,5 -9,4 0,0 3,-1 8,-5 6,-3 14,-8 24,-13 21,-12 54,-27 98,-41 44,-12 100,-23 165,-24 66,-2 140,6 221,23 80,19 166,47 255,86 89,38 181,84 279,129 99,45 204,90 318,118 114,28 238,34 360,12 123,-22 238,-70 335,-136 97,-65 175,-150 242,-234 68,-85 128,-169 189,-243 62,-75 125,-141 193,-188 133,-99 271,-131 362,-124 23,1 43,6 61,9 17,5 31,8 43,13 10,4 19,8 25,11 6,2 8,4 8,4z"/>
    </g>
    <g>
     <path class="fil35" d="M9322 4755c0,1 -15,3 -41,12 -26,9 -62,26 -103,55 -40,28 -84,68 -136,108 -52,41 -113,80 -182,113 -138,66 -276,92 -375,96 -25,3 -47,2 -67,2 -20,-1 -37,-1 -51,-2 -13,-1 -23,-2 -32,-3 -7,-1 -11,-2 -11,-2 0,0 4,-1 12,0 8,0 19,0 31,1 15,0 32,0 51,0 20,-1 42,-1 67,-3 98,-7 234,-34 370,-99 68,-33 129,-71 181,-111 52,-40 96,-79 138,-107 41,-28 79,-44 106,-52 13,-4 24,-6 31,-7 7,-1 11,-1 11,-1z"/>
    </g>
    <g>
     <path class="fil35" d="M6550 5247c0,0 -4,0 -12,-2 -7,-1 -19,-3 -33,-7 -28,-8 -68,-23 -114,-50 -45,-26 -95,-64 -148,-108 -53,-45 -110,-95 -176,-140 -65,-45 -134,-77 -201,-92 -67,-17 -129,-20 -181,-17 -52,2 -93,11 -121,18 -28,7 -44,13 -44,12 0,-1 4,-2 11,-5 7,-3 18,-7 32,-11 28,-9 69,-19 122,-22 52,-4 116,-2 183,15 69,15 140,47 206,93 66,46 123,96 175,141 53,44 102,82 146,109 45,28 84,43 111,53 28,8 44,12 44,13z"/>
    </g>
    <g>
     <path class="fil35" d="M6554 3241c0,0 -13,5 -36,13 -11,4 -25,8 -42,12 -17,5 -36,10 -57,14 -21,4 -45,9 -70,12 -25,4 -53,6 -81,9 -58,3 -121,4 -187,-2 -66,-7 -128,-19 -184,-33 -28,-8 -54,-15 -78,-24 -25,-7 -47,-16 -67,-25 -20,-7 -37,-17 -53,-24 -16,-7 -29,-14 -39,-20 -22,-12 -33,-19 -33,-19 1,-1 13,5 35,15 10,6 24,12 39,19 16,6 34,15 54,22 20,8 42,16 67,24 24,8 50,15 77,22 56,14 117,25 183,32 65,6 128,6 185,3 28,-2 56,-4 81,-8 25,-3 48,-7 69,-11 22,-3 40,-8 57,-12 17,-3 31,-7 43,-10 23,-7 36,-10 37,-9z"/>
    </g>
    <g>
     <path class="fil35" d="M9202 3235c0,1 -4,-1 -9,-4 -7,-4 -15,-9 -25,-14 -10,-7 -23,-14 -39,-22 -16,-7 -33,-17 -54,-25 -10,-4 -21,-9 -32,-13 -11,-5 -23,-8 -35,-12 -25,-9 -52,-16 -80,-23 -57,-12 -120,-21 -187,-22 -67,0 -131,8 -188,19 -28,7 -55,12 -80,21 -12,4 -24,7 -35,11 -11,5 -22,9 -32,13 -21,7 -39,17 -55,24 -16,8 -29,15 -39,21 -10,6 -18,10 -25,14 -6,3 -9,5 -9,4 -1,0 2,-2 8,-6 6,-4 14,-9 23,-15 11,-7 24,-15 40,-23 15,-8 33,-18 54,-26 10,-4 21,-9 32,-14 11,-4 23,-8 35,-12 25,-9 52,-15 81,-22 57,-12 122,-20 190,-20 68,1 132,10 190,23 28,8 55,14 80,24 12,4 24,8 35,13 11,5 22,9 32,14 21,8 38,19 54,27 15,8 28,16 38,23 10,6 17,12 24,16 5,4 8,6 8,6z"/>
    </g>
    <g>
     <path class="fil35" d="M7904 1794c0,0 -5,3 -15,9 -11,6 -26,14 -45,24 -40,21 -96,51 -168,87 -142,70 -342,166 -578,226 -118,29 -234,45 -339,47 -106,3 -201,-7 -279,-24 -78,-16 -140,-37 -180,-55 -21,-8 -36,-16 -47,-21 -11,-5 -16,-8 -16,-9 0,0 6,2 17,7 11,4 26,12 47,19 41,16 103,36 180,52 78,15 173,24 277,21 105,-3 220,-19 337,-48 235,-59 435,-154 578,-222 70,-35 128,-63 169,-84 19,-9 34,-16 46,-22 10,-5 16,-8 16,-7z"/>
    </g>
   </g>
   <g>
    <g>
     <path class="fil32" d="M3643 5492l710 31 -33 752 -709 -31 -55 1249 -933 -41 54 -1249 -2410 -105 2 -573 2568 -3689 964 42 -158 3614zm-2441 -107l0 0 1508 66 100 -2279 -23 -9 -84 163 -1501 2059z"/>
    </g>
    <g>
     <path class="fil34" d="M3643 5492l710 31 -33 752 -709 -31 -55 1249 -933 -41 54 -1249 -2410 -105 2 -573 2568 -3689 964 42 -158 3614zm-2441 -107l0 0 1508 66 100 -2279 -23 -9 -84 163 -1501 2059z"/>
    </g>
    <g>
     <path class="fil32" d="M4237 5518l709 31 -32 752 -710 -31 -55 1249 -933 -41 55 -1249 -2410 -105 2 -573 2568 -3689 964 42 -158 3614zm-2441 -107l0 0 1508 66 99 -2279 -23 -9 -84 163 -1500 2059z"/>
    </g>
    <g>
     <g>
      <path class="fil32" d="M875 5660c0,1 -8,5 -23,13 -16,7 -38,18 -65,31 -55,25 -131,60 -216,96 -85,36 -162,66 -219,88 -28,10 -51,19 -67,24 -16,6 -25,8 -25,8 -1,-1 8,-5 23,-12 18,-7 40,-17 66,-28 58,-24 134,-56 218,-91 84,-35 159,-68 217,-92 26,-11 48,-21 66,-28 15,-7 24,-10 25,-9z"/>
     </g>
     <g>
      <path class="fil32" d="M1220 5024c0,1 -11,7 -32,17 -21,10 -51,25 -89,42 -76,34 -181,80 -298,130 -117,49 -223,93 -301,123 -38,15 -70,27 -92,35 -22,8 -34,12 -34,11 0,-1 11,-6 33,-15 23,-10 53,-23 90,-38 79,-33 184,-77 300,-126 116,-50 220,-94 299,-127 36,-16 67,-29 90,-39 22,-9 34,-13 34,-13z"/>
     </g>
     <g>
      <path class="fil32" d="M1642 4458c0,0 -12,6 -34,16 -22,11 -54,25 -93,42 -79,35 -189,81 -311,130 -122,50 -233,93 -314,123 -40,15 -73,27 -96,35 -22,8 -35,12 -35,11 -1,-1 12,-6 34,-15 24,-10 56,-23 95,-38 81,-33 191,-77 312,-126 121,-49 230,-94 312,-127 38,-16 70,-29 94,-38 23,-9 35,-14 36,-13z"/>
     </g>
     <g>
      <path class="fil32" d="M3331 5112c0,1 -8,5 -23,13 -15,7 -37,17 -65,30 -55,24 -131,57 -216,92 -85,34 -163,64 -220,84 -28,10 -51,18 -67,24 -16,5 -25,7 -25,7 -1,-1 8,-5 23,-12 18,-7 40,-16 66,-26 59,-23 135,-54 219,-87 83,-35 159,-66 217,-90 26,-10 48,-19 66,-26 16,-7 25,-10 25,-9z"/>
     </g>
     <g>
      <path class="fil32" d="M3262 6278c1,1 -7,5 -22,13 -15,7 -36,17 -63,30 -53,24 -127,57 -209,92 -83,34 -158,64 -213,84 -28,10 -50,18 -66,24 -15,5 -24,7 -24,7 0,-1 8,-5 23,-12 17,-7 39,-16 64,-26 56,-23 130,-54 211,-87 82,-35 155,-66 211,-90 25,-10 47,-19 64,-26 15,-7 24,-10 24,-9z"/>
     </g>
     <g>
      <path class="fil32" d="M3252 6687c1,0 -7,5 -22,12 -15,8 -36,18 -63,30 -53,25 -127,58 -209,92 -83,35 -158,64 -213,85 -28,10 -50,18 -65,23 -16,5 -25,8 -25,7 0,0 8,-4 23,-11 17,-7 39,-16 64,-27 56,-23 130,-53 212,-87 81,-34 154,-65 210,-89 26,-11 47,-20 64,-27 15,-6 24,-9 24,-8z"/>
     </g>
     <g>
      <path class="fil32" d="M3243 7095c0,1 -8,6 -23,13 -14,7 -36,17 -62,30 -53,25 -127,58 -210,92 -83,35 -158,64 -213,84 -27,11 -50,19 -65,24 -16,5 -24,8 -25,7 0,-1 8,-5 23,-11 17,-7 39,-16 64,-27 57,-23 130,-54 212,-87 81,-34 154,-66 210,-89 26,-11 47,-20 64,-27 16,-6 24,-9 25,-9z"/>
     </g>
     <g>
      <path class="fil32" d="M3342 4680c0,1 -8,5 -23,13 -15,7 -37,17 -65,30 -55,25 -131,58 -216,92 -85,35 -163,64 -220,84 -28,11 -51,19 -67,24 -16,5 -25,8 -25,7 -1,-1 8,-5 23,-11 18,-7 40,-16 66,-27 59,-23 135,-54 219,-87 83,-35 159,-66 217,-89 26,-11 48,-20 66,-27 16,-6 25,-9 25,-9z"/>
     </g>
     <g>
      <path class="fil32" d="M3353 4249c0,0 -8,5 -23,12 -15,7 -37,18 -65,30 -55,25 -131,58 -216,92 -85,35 -163,64 -220,85 -28,10 -51,18 -67,23 -16,5 -25,8 -25,7 0,-1 8,-5 23,-11 18,-7 40,-16 67,-27 58,-23 134,-53 218,-87 83,-34 159,-65 217,-89 26,-11 48,-20 66,-27 16,-6 25,-9 25,-8z"/>
     </g>
     <g>
      <path class="fil32" d="M3364 3817c0,1 -8,5 -22,12 -14,7 -35,17 -62,29 -52,23 -124,55 -205,88 -82,32 -156,60 -210,80 -27,9 -49,17 -64,22 -15,5 -24,7 -24,7 0,-1 8,-5 23,-11 17,-7 38,-16 62,-26 56,-22 128,-51 208,-83 80,-32 152,-62 207,-85 25,-10 46,-18 63,-25 15,-6 24,-9 24,-8z"/>
     </g>
     <g>
      <path class="fil32" d="M3413 3413c1,3 -47,24 -107,46 -60,22 -109,38 -110,35 -1,-3 47,-23 106,-46 60,-22 110,-37 111,-35z"/>
     </g>
     <g>
      <path class="fil32" d="M2063 3870c0,1 -12,7 -34,17 -22,10 -54,24 -93,42 -79,34 -189,80 -311,130 -122,49 -233,92 -314,123 -40,15 -73,27 -96,34 -22,8 -35,12 -35,12 -1,-1 12,-7 34,-16 24,-9 56,-22 95,-38 81,-33 191,-77 312,-126 121,-49 230,-93 312,-127 39,-15 70,-28 94,-38 23,-9 35,-14 36,-13z"/>
     </g>
     <g>
      <path class="fil32" d="M2484 3282c0,1 -12,7 -34,17 -22,10 -54,25 -93,42 -79,35 -189,81 -311,130 -122,49 -233,93 -314,123 -40,15 -73,27 -96,35 -22,8 -35,12 -35,11 -1,-1 12,-6 34,-15 24,-10 56,-23 95,-38 81,-33 191,-77 312,-126 121,-49 230,-94 312,-127 39,-16 70,-29 94,-39 23,-9 35,-13 36,-13z"/>
     </g>
     <g>
      <path class="fil32" d="M2873 2695c0,0 -12,6 -34,17 -22,10 -53,24 -93,41 -79,35 -189,81 -311,130 -122,50 -233,93 -313,123 -41,16 -74,27 -96,35 -23,8 -36,12 -36,11 -1,0 12,-6 34,-15 24,-9 56,-22 95,-38 81,-33 191,-77 312,-126 121,-49 231,-94 312,-127 39,-15 70,-28 95,-38 22,-9 34,-14 35,-13z"/>
     </g>
     <g>
      <path class="fil32" d="M3278 2130c0,1 -12,6 -34,17 -22,10 -54,24 -93,41 -79,35 -189,81 -311,131 -122,49 -233,92 -314,122 -40,16 -73,27 -96,35 -22,8 -35,12 -35,11 -1,0 12,-6 34,-15 24,-9 56,-22 95,-38 81,-33 191,-77 312,-126 121,-49 230,-94 312,-127 38,-15 70,-28 94,-38 23,-9 35,-14 36,-13z"/>
     </g>
     <g>
      <path class="fil35" d="M4352 2993c0,0 -4,5 -12,14 -9,9 -21,22 -39,37 -34,31 -89,72 -165,107 -75,34 -173,62 -283,64 -55,1 -114,-5 -172,-19 -58,-14 -116,-38 -173,-65 -115,-55 -216,-121 -315,-167 -99,-46 -196,-69 -278,-72 -83,-3 -148,16 -190,35 -20,10 -36,19 -46,27 -10,6 -15,10 -15,10 -1,-1 4,-5 14,-12 10,-8 25,-18 45,-29 42,-21 108,-41 192,-39 84,2 182,24 282,71 100,46 202,111 315,166 57,27 114,51 172,64 57,15 114,21 169,20 109,-2 205,-28 280,-62 75,-33 130,-73 165,-102 19,-15 31,-27 40,-36 9,-8 14,-12 14,-12z"/>
     </g>
     <g>
      <path class="fil35" d="M4056 1944c1,0 -9,6 -26,15 -18,10 -44,22 -77,36 -33,15 -74,29 -119,43 -46,13 -97,26 -151,35 -54,8 -106,13 -154,15 -47,1 -90,0 -126,-3 -36,-3 -65,-6 -84,-10 -20,-3 -31,-5 -31,-6 0,-1 11,0 31,2 20,2 49,5 85,6 35,2 78,2 125,0 47,-2 99,-7 152,-15 54,-9 104,-21 150,-34 45,-13 85,-27 119,-40 33,-13 60,-24 78,-32 18,-9 28,-13 28,-12z"/>
     </g>
     <g>
      <path class="fil35" d="M2550 4301c-1,0 -8,-7 -19,-22 -14,-15 -30,-35 -51,-59 -43,-50 -104,-118 -177,-186 -37,-34 -74,-64 -112,-86 -37,-22 -74,-35 -106,-41 -64,-13 -105,2 -105,-1 0,0 2,-1 7,-3 5,-1 12,-3 21,-4 18,-4 45,-5 79,0 33,6 71,18 109,40 39,22 77,52 114,87 74,69 135,137 176,189 21,25 37,47 48,62 11,15 16,23 16,24z"/>
     </g>
     <g>
      <path class="fil35" d="M4243 4942c0,0 -3,3 -9,6 -5,4 -14,10 -25,17 -22,13 -56,31 -99,47 -87,33 -219,57 -360,28 -140,-28 -252,-103 -319,-167 -34,-32 -58,-61 -73,-83 -8,-10 -13,-19 -17,-24 -3,-6 -5,-9 -5,-9 1,-1 10,11 26,31 16,20 41,48 75,79 67,63 177,134 316,163 138,28 268,5 354,-25 44,-16 77,-32 100,-44 23,-12 35,-20 36,-19z"/>
     </g>
     <g>
      <path class="fil35" d="M4861 6286c0,0 -2,-3 -6,-10 -4,-7 -10,-17 -17,-29 -14,-27 -38,-63 -73,-108 -9,-11 -18,-22 -28,-34 -5,-6 -11,-12 -16,-18 -6,-6 -12,-12 -18,-18 -12,-12 -25,-25 -38,-38 -14,-12 -29,-24 -45,-37 -62,-49 -140,-99 -233,-138 -93,-39 -201,-68 -319,-74 -118,-7 -246,11 -370,59 -124,49 -244,123 -371,194 -63,35 -129,70 -199,99 -70,28 -145,50 -222,58 -77,9 -155,2 -229,-14 -74,-16 -144,-42 -211,-72 -133,-61 -250,-141 -359,-218 -109,-78 -211,-152 -314,-212 -102,-60 -204,-106 -302,-129 -98,-23 -190,-27 -270,-18 -79,9 -146,31 -196,57 -51,25 -84,54 -106,73 -11,10 -19,18 -24,24 -6,5 -9,8 -9,8 0,0 3,-3 8,-9 5,-6 13,-14 23,-25 22,-19 55,-49 106,-75 51,-26 117,-50 198,-59 80,-10 173,-7 272,16 99,24 202,69 305,129 103,60 206,134 315,212 109,77 226,156 358,216 66,30 135,56 208,71 73,16 150,23 226,14 76,-8 149,-29 219,-58 69,-28 134,-62 198,-98 127,-71 247,-144 372,-193 32,-12 63,-24 95,-31 16,-4 31,-9 47,-12 16,-3 32,-5 48,-8 63,-10 125,-11 184,-9 120,7 229,37 322,77 94,40 171,90 234,140 16,13 30,26 45,38 13,13 26,26 38,38 6,6 12,12 18,18 5,7 10,13 15,19 10,12 20,23 29,34 34,46 58,83 71,110 7,12 12,22 16,30 3,6 5,10 5,10z"/>
     </g>
     <g>
      <path class="fil35" d="M4219 7172c1,1 -3,2 -10,3 -9,2 -19,4 -32,6 -13,3 -30,6 -50,7 -19,2 -41,6 -66,6 -13,1 -26,1 -39,2 -14,0 -28,0 -42,0 -30,0 -61,-3 -93,-6 -66,-7 -137,-20 -210,-40 -73,-22 -140,-50 -199,-79 -28,-15 -56,-29 -81,-45 -12,-8 -25,-15 -36,-22 -11,-8 -21,-16 -32,-23 -20,-14 -37,-28 -53,-40 -15,-13 -28,-24 -38,-33 -9,-9 -17,-16 -23,-22 -5,-5 -8,-8 -8,-9 1,0 4,2 9,7 7,5 15,12 25,20 10,9 23,20 39,32 16,11 33,26 54,39 10,7 21,14 32,21 11,8 23,15 36,22 24,15 52,29 81,44 59,28 125,56 197,77 72,21 143,33 208,41 32,3 63,6 92,6 14,1 28,2 42,1 13,0 26,0 38,-1 25,0 47,-2 67,-4 19,-1 36,-3 50,-5 12,-2 23,-3 31,-4 8,-1 11,-1 11,-1z"/>
     </g>
    </g>
   </g>
   <g>
    <g>
     <path class="fil32" d="M12860 5500l707 -69 73 749 -707 70 122 1244 -930 91 -121 -1245 -2401 235 -79 -567 2024 -4013 960 -94 352 3599zm-2432 238l0 0 1503 -147 -223 -2270 -23 -5 -61 172 -1196 2250z"/>
    </g>
    <g>
     <path class="fil34" d="M12860 5500l707 -69 73 749 -707 70 122 1244 -930 91 -121 -1245 -2401 235 -79 -567 2024 -4013 960 -94 352 3599zm-2432 238l0 0 1503 -147 -223 -2270 -23 -5 -61 172 -1196 2250z"/>
    </g>
    <g>
     <path class="fil32" d="M13451 5443l707 -69 73 749 -706 69 121 1244 -929 91 -122 -1244 -2401 234 -79 -567 2024 -4013 960 -94 352 3600zm-2431 237l0 0 1502 -146 -222 -2271 -24 -5 -61 172 -1195 2250z"/>
    </g>
    <g>
     <g>
      <path class="fil32" d="M10142 6056c1,1 -7,7 -21,16 -13,10 -34,24 -59,40 -51,33 -121,78 -200,125 -79,48 -152,89 -205,118 -26,15 -48,27 -63,34 -15,8 -23,12 -24,11 0,0 8,-6 22,-15 16,-9 37,-22 61,-36 54,-32 125,-75 203,-121 78,-47 148,-90 202,-122 24,-15 45,-27 61,-37 15,-9 23,-13 23,-13z"/>
     </g>
     <g>
      <path class="fil32" d="M10395 5379c0,0 -10,8 -29,21 -20,13 -48,31 -83,54 -70,44 -168,105 -276,170 -109,66 -208,123 -281,164 -36,21 -65,37 -86,48 -20,11 -32,16 -32,16 -1,-1 10,-8 30,-20 21,-13 50,-30 84,-51 73,-43 171,-102 279,-166 108,-65 205,-124 278,-168 34,-21 63,-38 84,-51 20,-12 32,-18 32,-17z"/>
     </g>
     <g>
      <path class="fil32" d="M10733 4758c0,1 -11,8 -31,22 -20,13 -50,31 -86,54 -74,45 -176,106 -290,173 -114,66 -217,124 -293,165 -38,21 -69,37 -90,48 -22,11 -34,17 -34,16 -1,0 11,-7 32,-19 22,-13 52,-31 88,-51 76,-44 178,-104 292,-169 112,-66 215,-125 291,-170 36,-21 65,-38 88,-51 21,-12 32,-18 33,-18z"/>
     </g>
     <g>
      <path class="fil32" d="M12497 5169c1,0 -7,6 -21,15 -14,10 -34,23 -60,39 -50,32 -121,76 -201,122 -79,46 -152,86 -205,114 -27,14 -49,25 -64,33 -15,7 -23,11 -24,10 0,0 8,-5 22,-14 17,-10 37,-22 62,-36 54,-31 125,-72 204,-117 78,-46 148,-87 202,-119 25,-14 45,-26 62,-35 15,-9 23,-13 23,-12z"/>
     </g>
     <g>
      <path class="fil32" d="M12593 6333c1,0 -7,6 -20,15 -14,10 -33,23 -58,39 -49,32 -118,75 -194,120 -77,46 -148,86 -199,114 -26,14 -47,25 -62,32 -14,8 -23,11 -23,11 0,-1 7,-6 21,-14 16,-10 36,-22 60,-36 52,-31 121,-71 197,-116 75,-45 144,-87 196,-118 24,-14 44,-26 60,-35 14,-9 22,-13 22,-12z"/>
     </g>
     <g>
      <path class="fil32" d="M12641 6739c0,0 -7,6 -20,15 -14,10 -33,23 -58,39 -49,32 -118,75 -195,120 -76,46 -147,86 -199,114 -25,14 -46,25 -61,32 -15,8 -23,11 -23,11 -1,-1 7,-6 21,-14 16,-10 36,-22 60,-36 52,-31 121,-71 197,-116 75,-45 144,-87 196,-118 23,-14 43,-26 59,-35 15,-9 23,-13 23,-12z"/>
     </g>
     <g>
      <path class="fil32" d="M12689 7145c0,0 -7,6 -21,15 -13,9 -33,23 -57,39 -49,32 -118,75 -195,120 -77,46 -147,86 -199,114 -26,14 -47,25 -61,32 -15,8 -23,11 -23,11 -1,-1 7,-6 21,-15 16,-9 36,-21 59,-35 53,-31 122,-71 198,-116 75,-45 143,-87 196,-118 23,-14 43,-26 59,-35 14,-9 22,-13 23,-12z"/>
     </g>
     <g>
      <path class="fil32" d="M12447 4740c1,0 -7,6 -21,15 -14,10 -34,23 -59,39 -51,32 -122,76 -202,122 -79,46 -152,86 -205,114 -27,14 -48,25 -63,33 -16,7 -24,11 -24,10 -1,0 7,-5 21,-14 17,-10 38,-22 62,-36 54,-31 125,-72 204,-117 78,-46 149,-87 202,-119 25,-14 46,-26 62,-35 15,-9 23,-13 23,-12z"/>
     </g>
     <g>
      <path class="fil32" d="M12398 4311c0,0 -7,6 -21,15 -14,10 -35,23 -60,39 -51,32 -122,76 -201,122 -80,46 -153,86 -206,114 -27,14 -48,25 -63,33 -15,7 -24,11 -24,10 -1,0 7,-5 22,-14 16,-10 37,-22 61,-36 55,-31 126,-72 204,-117 78,-46 149,-87 203,-119 24,-14 45,-26 61,-35 15,-9 23,-13 24,-12z"/>
     </g>
     <g>
      <path class="fil32" d="M12348 3882c0,0 -7,6 -20,15 -13,9 -33,21 -57,37 -48,30 -116,72 -192,116 -75,44 -145,82 -196,109 -25,13 -46,23 -60,31 -14,7 -22,10 -23,10 0,-1 7,-6 21,-14 16,-9 36,-21 59,-34 52,-30 119,-69 194,-112 74,-43 141,-83 193,-113 23,-13 43,-25 59,-34 14,-8 21,-12 22,-11z"/>
     </g>
     <g>
      <path class="fil32" d="M12339 3475c2,3 -42,30 -99,60 -56,31 -102,53 -104,50 -1,-2 43,-29 99,-60 56,-30 103,-52 104,-50z"/>
     </g>
     <g>
      <path class="fil32" d="M11067 4117c0,1 -11,8 -31,22 -20,13 -50,32 -86,54 -74,45 -176,107 -290,173 -113,66 -217,124 -293,165 -38,21 -69,37 -90,48 -22,11 -34,17 -34,16 0,0 11,-7 32,-19 22,-13 52,-31 88,-51 76,-44 179,-104 292,-169 113,-66 215,-125 291,-170 36,-21 66,-38 88,-51 21,-12 32,-18 33,-18z"/>
     </g>
     <g>
      <path class="fil32" d="M11401 3476c0,1 -10,9 -31,22 -20,13 -49,32 -86,54 -73,45 -176,107 -289,173 -114,66 -218,124 -294,165 -38,21 -68,37 -90,48 -21,11 -33,17 -34,16 0,0 11,-7 32,-19 22,-13 52,-31 88,-51 76,-44 179,-104 292,-169 113,-66 215,-125 291,-170 36,-21 66,-38 88,-51 21,-12 33,-18 33,-18z"/>
     </g>
     <g>
      <path class="fil32" d="M11704 2840c0,0 -11,8 -31,21 -20,13 -50,32 -86,55 -74,45 -176,106 -290,172 -114,66 -217,125 -293,166 -38,21 -69,37 -90,48 -22,11 -34,17 -34,16 -1,-1 11,-8 32,-20 22,-13 52,-30 88,-51 76,-44 178,-103 292,-168 112,-66 215,-126 290,-170 37,-21 66,-38 89,-51 21,-12 32,-19 33,-18z"/>
     </g>
     <g>
      <path class="fil32" d="M12025 2223c0,1 -11,9 -31,22 -20,13 -49,32 -86,54 -74,46 -176,107 -290,173 -113,66 -217,124 -293,166 -38,20 -69,37 -90,48 -21,11 -33,16 -34,16 0,-1 11,-8 32,-20 22,-13 52,-30 88,-51 76,-44 179,-103 292,-169 113,-65 215,-125 291,-169 36,-21 66,-39 88,-52 21,-12 33,-18 33,-18z"/>
     </g>
     <g>
      <path class="fil35" d="M13210 2927c1,0 -3,6 -10,16 -7,10 -17,24 -33,42 -30,35 -78,83 -148,128 -70,45 -163,86 -272,104 -54,9 -113,11 -172,5 -60,-5 -121,-20 -181,-39 -121,-39 -231,-90 -335,-121 -105,-33 -204,-42 -286,-33 -82,9 -144,36 -183,62 -18,13 -33,24 -41,32 -9,8 -14,13 -14,12 -1,0 4,-5 12,-13 8,-10 22,-21 41,-35 38,-27 101,-56 184,-66 83,-10 184,-1 290,31 105,31 215,81 335,120 60,19 120,34 179,40 58,6 116,4 170,-5 107,-17 199,-57 269,-100 69,-44 118,-91 149,-125 16,-17 27,-31 34,-41 8,-9 12,-14 12,-14z"/>
     </g>
     <g>
      <path class="fil35" d="M12770 1930c1,0 -8,7 -24,19 -17,12 -41,28 -72,47 -30,18 -68,38 -111,58 -44,20 -92,39 -144,56 -53,16 -104,28 -151,36 -47,8 -89,13 -125,16 -36,2 -65,3 -85,2 -20,-1 -31,-1 -31,-2 0,-1 11,-2 31,-3 20,0 49,-2 84,-5 36,-3 78,-9 124,-18 47,-9 97,-21 149,-37 52,-16 100,-35 144,-54 43,-19 81,-39 112,-56 31,-18 55,-33 72,-44 17,-10 27,-16 27,-15z"/>
     </g>
     <g>
      <path class="fil35" d="M11610 4475c-1,1 -8,-6 -22,-18 -15,-14 -35,-31 -58,-52 -50,-44 -120,-102 -202,-159 -42,-29 -83,-53 -123,-69 -40,-17 -78,-25 -111,-26 -65,-4 -103,16 -104,14 0,-1 2,-2 7,-4 4,-2 11,-5 20,-8 17,-5 44,-11 78,-10 33,1 73,8 114,24 41,16 83,41 125,70 83,57 153,117 201,162 24,22 43,41 56,55 13,13 19,21 19,21z"/>
     </g>
     <g>
      <path class="fil35" d="M13376 4872c0,0 -2,3 -7,8 -5,4 -13,11 -23,19 -20,17 -51,39 -92,61 -81,45 -208,87 -351,79 -144,-9 -265,-67 -340,-121 -38,-27 -66,-53 -84,-72 -9,-9 -15,-17 -20,-22 -4,-5 -7,-8 -6,-8 0,-1 10,10 29,27 19,18 47,42 85,68 76,53 195,108 336,117 141,8 267,-32 348,-75 41,-21 72,-42 92,-57 21,-16 32,-25 33,-24z"/>
     </g>
     <g>
      <path class="fil35" d="M14177 6116c0,0 -2,-3 -7,-9 -5,-7 -12,-16 -21,-27 -17,-24 -47,-57 -87,-96 -10,-10 -22,-20 -33,-30 -6,-5 -12,-11 -18,-16 -7,-5 -14,-10 -21,-15 -13,-10 -28,-21 -43,-32 -16,-10 -32,-20 -49,-30 -69,-41 -153,-79 -250,-105 -98,-25 -209,-39 -327,-28 -118,10 -241,46 -358,111 -116,66 -224,155 -340,244 -58,44 -118,88 -183,126 -65,38 -136,70 -211,88 -76,20 -154,24 -229,19 -76,-5 -149,-21 -219,-42 -140,-41 -267,-104 -386,-165 -119,-62 -231,-121 -341,-166 -110,-45 -217,-76 -317,-85 -100,-9 -192,0 -270,20 -77,20 -140,52 -186,84 -47,32 -75,66 -95,87 -9,12 -16,21 -20,27 -5,7 -8,9 -8,9 0,0 2,-3 7,-9 4,-7 11,-16 19,-28 20,-22 48,-57 95,-90 46,-33 109,-65 187,-86 78,-21 170,-31 272,-22 101,9 209,40 320,85 110,44 223,104 342,165 119,61 245,123 384,164 70,20 142,36 217,41 74,5 151,1 225,-18 74,-19 144,-50 208,-88 65,-37 125,-81 183,-125 115,-88 224,-178 341,-244 30,-16 59,-32 90,-44 15,-6 30,-13 45,-18 15,-5 31,-10 46,-15 61,-19 122,-28 181,-34 120,-10 232,4 330,30 98,26 182,65 251,106 17,11 34,21 50,31 15,12 29,22 43,33 7,5 13,10 20,15 6,6 12,11 18,16 11,11 23,21 33,31 40,40 69,73 86,98 8,11 15,20 20,27 4,6 6,10 6,10z"/>
     </g>
     <g>
      <path class="fil35" d="M13667 7083c0,1 -4,2 -10,5 -9,3 -18,6 -31,10 -13,5 -29,10 -48,14 -19,5 -41,11 -65,15 -13,3 -25,5 -39,8 -13,2 -27,3 -41,5 -29,5 -60,6 -93,8 -66,2 -138,-1 -213,-11 -75,-11 -146,-29 -208,-49 -31,-12 -60,-22 -87,-34 -13,-6 -26,-11 -39,-17 -12,-6 -23,-12 -34,-18 -23,-10 -42,-23 -59,-32 -17,-10 -31,-20 -42,-28 -11,-7 -19,-13 -26,-18 -6,-4 -9,-7 -9,-7 0,0 4,1 10,5 7,5 16,10 27,17 12,7 26,16 43,25 18,10 37,21 59,31 11,6 23,11 35,17 12,6 25,11 39,17 26,11 56,21 86,32 62,20 132,37 206,48 75,10 146,13 211,12 33,-2 64,-3 93,-7 14,-2 28,-3 41,-5 13,-2 26,-4 38,-6 25,-4 46,-10 65,-14 20,-4 36,-8 49,-12 12,-3 23,-6 31,-8 7,-2 11,-3 11,-3z"/>
     </g>
    </g>
   </g>
   <g>
    <g>
     <g>
      <path class="fil36" d="M9247 3975l-149 -23 -920 -297 -539 -156c-125,-43 -288,-58 -465,32 -255,130 -957,783 -957,783l506 521 -238 1054c266,758 788,844 788,844 0,0 342,31 747,-123 484,-185 992,-618 1056,-804 38,-111 70,-346 95,-611l767 -313 207 -1060 -898 153z"/>
      <g>
       <path class="fil37" d="M8127 5852c1,0 -2,3 -7,7 -5,3 -13,10 -23,16 -20,14 -51,33 -92,50 -81,35 -207,61 -340,32 -134,-29 -237,-106 -296,-171 -30,-33 -51,-62 -63,-83 -7,-11 -11,-20 -14,-25 -3,-6 -4,-9 -4,-9 1,-1 8,11 21,31 14,21 35,49 66,81 59,63 161,136 292,165 131,28 254,4 335,-28 40,-16 72,-33 93,-46 21,-13 32,-21 32,-20z"/>
      </g>
      <g>
       <path class="fil37" d="M7836 3699c0,0 1,1 2,5 1,4 2,9 4,15 3,13 7,32 13,58 10,50 25,124 30,217 2,46 1,98 -9,152 -9,53 -29,110 -60,163 -32,53 -76,101 -126,146 -50,44 -105,86 -161,128 -120,90 -237,172 -341,245 -104,74 -196,140 -269,196l-2 2 -3 -2c-65,-53 -115,-99 -147,-133 -16,-17 -27,-31 -35,-40 -3,-5 -5,-9 -7,-12 -2,-3 -2,-4 -2,-4 0,0 4,5 11,14 8,10 20,23 36,39 33,33 83,78 149,130l-5 0c73,-56 165,-124 269,-198 103,-74 220,-156 339,-245 56,-43 111,-84 161,-128 49,-44 93,-91 124,-143 31,-52 50,-107 60,-160 10,-53 11,-104 10,-150 -4,-92 -18,-166 -27,-216 -4,-25 -8,-45 -11,-59 -1,-6 -2,-11 -2,-15 -1,-4 -1,-5 -1,-5z"/>
      </g>
     </g>
     <g>
      <path class="fil37" d="M11833 4176c216,-184 289,-517 170,-775 -101,-10 -202,-21 -304,-31 155,-81 247,-265 221,-437 -163,177 -447,229 -663,122 -141,-70 -256,-201 -412,-228 -142,-25 -281,41 -416,90 -135,48 -299,74 -411,-16 -89,-71 -117,-195 -111,-309 6,-114 39,-225 46,-338 14,-223 -83,-448 -246,-599 -51,-162 -174,-301 -331,-367 -189,-81 -421,-50 -584,76 -67,51 -123,118 -198,155 -85,42 -184,42 -276,65 -92,22 -189,83 -199,178l-37 193c-6,14 -12,27 -20,41 -78,137 -238,227 -273,381 -20,87 4,180 -25,264 -38,110 -157,172 -212,274 -76,141 -25,388 97,492 121,104 372,215 529,248 42,-163 80,-337 116,-515 64,61 131,120 198,178 174,151 352,305 473,502 230,374 234,869 523,1200 57,64 126,122 208,147 83,25 180,12 241,-49 72,-72 81,-193 161,-256 106,-84 260,-17 374,56 82,53 164,108 258,137 93,29 201,27 281,-30 79,-57 114,-178 57,-257 -23,-32 -57,-54 -80,-86 -23,-32 -29,-82 2,-106 34,-26 82,0 119,21 182,107 412,127 609,54 197,-73 358,-239 426,-438 -105,16 -213,3 -311,-37z"/>
      <g>
       <path class="fil37" d="M11644 2511c0,0 10,7 28,23 16,17 41,42 62,83 10,20 19,44 23,71 4,28 3,59 -10,89 -12,30 -34,59 -65,79 -16,10 -34,17 -54,19 -19,3 -40,0 -59,-8 -79,-32 -118,-123 -204,-164 -83,-44 -189,-47 -291,-23 -103,23 -201,78 -301,135 -101,56 -208,117 -330,138 -61,11 -124,12 -183,-2 -29,-6 -58,-17 -84,-31 -27,-14 -50,-32 -72,-53 -42,-41 -71,-92 -91,-144 -20,-53 -31,-107 -37,-160 -12,-107 -3,-208 -2,-302 2,-94 -3,-182 -26,-259 -10,-39 -24,-74 -40,-107 -16,-32 -33,-61 -51,-87 -37,-52 -75,-92 -109,-121 -34,-30 -63,-48 -83,-62 -10,-5 -17,-10 -23,-13 -5,-3 -8,-5 -8,-5 0,0 3,1 8,4 6,3 14,7 24,13 20,12 50,30 85,59 34,29 73,69 111,121 18,26 36,56 52,88 17,33 31,69 42,107 23,78 29,168 27,262 0,95 -9,196 3,301 6,52 17,105 37,157 19,51 48,101 89,141 20,19 43,37 69,50 25,14 53,24 81,31 58,12 119,12 179,1 120,-21 226,-81 326,-137 101,-56 200,-112 305,-135 52,-12 105,-18 156,-14 25,2 50,7 74,12 23,8 47,15 68,27 88,43 127,135 202,165 36,15 77,9 106,-10 30,-18 51,-47 63,-75 13,-29 15,-59 11,-86 -4,-27 -12,-50 -22,-70 -20,-40 -44,-66 -60,-83 -8,-9 -15,-15 -19,-19 -5,-4 -7,-6 -7,-6z"/>
      </g>
      <g>
       <path class="fil37" d="M8175 3736c0,0 -1,-3 -2,-10 -1,-6 -2,-16 -6,-28 -6,-24 -21,-58 -52,-94 -31,-35 -79,-71 -141,-98 -61,-28 -137,-42 -221,-58 -83,-16 -179,-33 -264,-90 -84,-57 -151,-153 -168,-267 -17,-113 19,-240 106,-330 88,-90 212,-135 313,-214 25,-20 48,-43 67,-68 18,-26 33,-54 41,-84 17,-60 15,-123 21,-185 3,-30 7,-61 17,-90 9,-30 25,-57 45,-80 41,-45 97,-69 152,-84 54,-16 108,-26 160,-40 51,-14 99,-33 139,-62 41,-29 75,-63 105,-98 30,-36 55,-72 79,-108 47,-71 87,-137 130,-190 42,-54 85,-95 124,-122 39,-29 73,-43 97,-51 24,-7 38,-9 38,-9 0,1 -13,3 -37,11 -23,8 -58,24 -96,52 -38,28 -80,69 -121,123 -42,53 -82,119 -128,190 -24,36 -49,73 -79,109 -30,36 -65,71 -106,100 -42,30 -91,50 -143,64 -52,15 -106,25 -160,41 -53,15 -107,39 -146,82 -19,21 -34,47 -43,75 -9,28 -13,58 -16,88 -6,61 -4,125 -22,187 -8,31 -23,61 -42,88 -20,26 -43,49 -69,70 -52,40 -109,71 -163,103 -54,32 -107,66 -149,110 -85,87 -121,211 -104,321 17,110 82,205 163,260 83,56 177,74 260,91 84,16 161,30 223,59 62,28 110,65 141,101 32,37 46,72 51,97 4,12 4,22 5,28 1,7 1,10 1,10z"/>
      </g>
      <g>
       <path class="fil36" d="M9869 1831c0,0 -6,-1 -16,-5 -10,-3 -25,-9 -43,-17 -35,-16 -81,-43 -126,-82 -45,-39 -79,-80 -100,-113 -11,-16 -19,-29 -24,-39 -4,-10 -7,-15 -6,-16 2,-1 14,20 36,51 23,31 57,71 101,109 44,38 89,66 123,83 34,18 56,27 55,29z"/>
      </g>
      <g>
       <path class="fil36" d="M10575 3278c-1,1 -14,-3 -38,-8 -24,-6 -59,-11 -103,-13 -43,-2 -96,0 -154,4 -58,5 -122,10 -190,9 -67,-2 -132,-12 -187,-35 -55,-23 -97,-57 -126,-92 -28,-35 -42,-69 -48,-93 -3,-12 -4,-22 -4,-28 -1,-7 -1,-10 -1,-10 2,0 2,13 9,37 7,23 22,56 50,89 29,33 71,65 124,87 53,22 117,32 184,34 66,1 130,-4 189,-8 58,-3 111,-5 155,-2 44,3 80,10 103,17 12,3 22,6 28,8 6,2 9,4 9,4z"/>
      </g>
      <g>
       <path class="fil36" d="M11826 4243c0,0 -2,1 -7,3 -4,2 -10,4 -18,6 -17,4 -44,6 -76,-3 -32,-10 -69,-30 -102,-65 -34,-33 -59,-82 -82,-137 -23,-54 -43,-117 -81,-174 -17,-30 -41,-57 -67,-83 -27,-24 -56,-48 -90,-68 -133,-80 -308,-113 -487,-103 -180,10 -349,45 -505,56 -157,14 -300,-3 -412,-43 -113,-38 -192,-98 -236,-147 -12,-12 -21,-24 -29,-34 -8,-10 -14,-19 -18,-27 -4,-7 -8,-12 -10,-17 -2,-4 -4,-6 -3,-6 0,0 1,2 4,6 3,4 6,9 11,16 5,7 11,16 19,26 8,10 17,21 29,33 45,47 123,106 235,143 112,38 254,54 409,40 155,-11 324,-47 505,-57 181,-10 358,23 493,106 34,20 64,44 92,69 26,27 50,54 68,85 38,59 57,122 80,176 22,55 46,103 79,136 32,34 68,55 99,65 31,10 57,8 74,5 17,-3 25,-8 26,-7z"/>
      </g>
     </g>
     <g>
      <g>
       <g>
        <g>
         <g>
          <g>
           <g>
            <g>
             <g>
              <g>
               <g>
                <g>
                 <g>
                  <g>
                   <g>
                    <path class="fil38" d="M8487 1830c-82,-2 -152,60 -161,141l-172 1788c-30,251 299,790 568,820 272,30 299,-102 334,-340 59,-398 79,-548 79,-546 0,0 350,-11 480,-449 65,-218 101,-584 122,-885 18,-270 -116,-623 -387,-630l-863 101z"/>
                   </g>
                  </g>
                 </g>
                </g>
               </g>
              </g>
             </g>
             <g>
              <g>
               <g>
                <g>
                 <g>
                  <g>
                   <g>
                    <g>
                     <path class="fil37" d="M9619 2597c-3,30 -32,53 -63,50 -32,-2 -56,-29 -53,-59 3,-31 31,-53 63,-51 32,2 55,29 53,60z"/>
                    </g>
                   </g>
                  </g>
                 </g>
                </g>
               </g>
              </g>
              <g>
               <g>
                <g>
                 <g>
                  <g>
                   <g>
                    <g>
                     <g>
                      <path class="fil37" d="M9643 2481c-7,8 -53,-21 -115,-17 -62,4 -105,39 -113,32 -3,-3 3,-18 22,-33 19,-16 51,-32 90,-35 38,-2 72,10 92,23 20,13 27,26 24,30z"/>
                     </g>
                    </g>
                   </g>
                  </g>
                 </g>
                </g>
               </g>
              </g>
             </g>
             <g>
              <g>
               <g>
                <g>
                 <g>
                  <g>
                   <g>
                    <g>
                     <g>
                      <path class="fil37" d="M9072 2629c-7,7 -50,-26 -112,-28 -62,-3 -109,28 -115,20 -4,-3 4,-17 24,-30 20,-14 54,-27 93,-26 39,1 71,16 89,32 19,15 25,29 21,32z"/>
                     </g>
                    </g>
                   </g>
                  </g>
                 </g>
                </g>
               </g>
              </g>
             </g>
             <g>
              <g>
               <g>
                <g>
                 <g>
                  <g>
                   <g>
                    <g>
                     <path class="fil37" d="M9188 2958c1,-4 40,-6 103,-5 16,0 31,-1 35,-11 6,-11 1,-29 -4,-49 -10,-40 -20,-82 -31,-126 -42,-179 -70,-326 -63,-327 7,-2 47,142 89,321 10,45 20,87 29,127 4,19 11,40 0,63 -6,11 -18,18 -29,20 -10,1 -19,0 -27,0 -63,-5 -102,-10 -102,-13z"/>
                    </g>
                   </g>
                  </g>
                 </g>
                </g>
               </g>
              </g>
             </g>
             <g>
              <g>
               <g>
                <g>
                 <g>
                  <g>
                   <g>
                    <path class="fil39" d="M9135 3693c0,0 -304,-20 -578,-238 0,0 111,327 564,344l14 -106z"/>
                   </g>
                  </g>
                 </g>
                </g>
               </g>
              </g>
             </g>
            </g>
           </g>
          </g>
          <g>
           <g>
            <g>
             <g>
              <g>
               <g>
                <g>
                 <path class="fil37" d="M9081 2522c-10,16 -68,-6 -142,-14 -72,-10 -135,-3 -141,-20 -2,-8 11,-21 38,-31 27,-11 67,-17 111,-12 44,5 81,21 105,38 23,16 34,32 29,39z"/>
                </g>
               </g>
              </g>
             </g>
            </g>
           </g>
          </g>
          <g>
           <g>
            <g>
             <g>
              <g>
               <g>
                <g>
                 <path class="fil37" d="M9634 2398c-11,14 -54,2 -106,4 -51,0 -94,14 -105,0 -5,-7 1,-22 20,-36 18,-14 49,-27 84,-28 35,0 67,11 85,25 19,13 26,27 22,35z"/>
                </g>
               </g>
              </g>
             </g>
            </g>
           </g>
          </g>
         </g>
        </g>
       </g>
      </g>
      <path class="fil39" d="M9038 3070c28,-19 64,-26 97,-20 17,3 35,10 46,23 14,18 16,43 15,65 0,14 -1,28 -6,41 -4,12 -13,24 -26,30 -12,6 -27,5 -41,2 -23,-4 -46,-10 -66,-24 -19,-13 -34,-34 -36,-57 -2,-23 11,-48 33,-56l-16 -4z"/>
      <g>
       <path class="fil37" d="M9206 3207c-5,1 -13,-12 -28,-31 -15,-19 -38,-42 -68,-60 -31,-17 -63,-25 -86,-28 -24,-3 -40,-3 -41,-8 0,-4 14,-13 41,-15 27,-3 66,2 102,23 37,21 61,52 72,76 11,24 12,41 8,43z"/>
      </g>
     </g>
     <path class="fil37" d="M8130 3636c147,-30 261,-156 312,-298 51,-141 48,-296 35,-445 -2,-20 -5,-41 -21,-53 -22,-17 -54,-3 -78,11 -93,57 -182,120 -267,188 -79,64 -157,137 -187,234 -47,148 52,325 202,364l4 -1z"/>
     <g>
      <path class="fil38" d="M11521 3601l-696 -1118 -192 -393c0,0 -61,-82 -125,-151 -105,-114 -208,-25 -208,-25 0,0 -15,-44 -70,-43 -65,0 -96,49 -96,49 0,0 -28,-32 -107,-37 -17,-1 -34,6 -50,16 -26,-23 -74,-55 -119,-39 -36,13 -252,178 -306,261 -26,40 23,94 89,69 29,-11 58,-20 79,-32 35,-21 53,-43 53,-43 0,0 -54,95 0,112 23,7 71,2 102,-25 21,-17 45,-40 68,-62 -1,1 -2,2 -3,3 -30,45 49,111 87,84 19,-13 35,-27 50,-40 89,64 -34,146 -86,142 -80,-7 -174,-6 -239,-1 -45,4 -85,15 -110,40 -29,30 2,93 43,99 77,12 174,29 275,55 119,31 430,132 430,132l30 25 423 1031 -724 154 -162 917 1308 -354c294,-154 434,-546 256,-826z"/>
      <g>
       <path class="fil39" d="M10390 2654c0,0 -6,-1 -17,-4 -11,-3 -27,-8 -47,-14 -41,-12 -100,-29 -172,-51 -36,-11 -76,-23 -118,-36 -43,-13 -88,-26 -137,-39 -48,-12 -99,-24 -153,-31 -26,-4 -55,-2 -83,-15 -7,-4 -13,-8 -19,-14 -2,-3 -5,-7 -6,-12l-2 -11c-1,-14 -2,-30 3,-45 5,-15 17,-28 30,-35 13,-7 27,-11 41,-16 28,-9 56,-10 84,-10 55,1 107,8 156,6 25,-1 49,-3 72,-7 24,-4 46,-10 67,-16 43,-11 85,-19 124,-15 38,3 72,14 100,25 28,11 51,24 69,34 19,11 33,19 42,25 10,6 15,9 14,10 0,0 -5,-3 -15,-8 -11,-6 -25,-13 -43,-23 -19,-10 -42,-21 -70,-32 -27,-11 -60,-21 -98,-24 -37,-3 -78,6 -120,17 -22,6 -44,12 -68,17 -24,4 -48,6 -73,7 -51,3 -104,-5 -158,-5 -26,0 -54,1 -80,10 -26,8 -56,17 -63,44 -4,12 -4,26 -3,40l2 10c0,2 2,5 4,7 4,4 9,8 15,11 24,12 52,10 79,14 55,7 106,20 155,33 48,12 94,26 136,40 43,13 82,25 119,37 71,23 129,41 171,54 19,7 34,12 46,16 11,3 16,5 16,6z"/>
      </g>
      <g>
       <path class="fil39" d="M9854 1862c1,2 -33,21 -83,59 -25,19 -54,43 -83,72 -30,29 -61,63 -98,95 -18,15 -35,32 -39,52 -2,10 -2,21 3,29 5,8 13,14 22,17 19,6 39,4 56,1 18,-4 35,-8 49,-14 58,-24 85,-55 86,-52 1,0 -6,8 -19,19 -13,12 -35,27 -64,40 -15,6 -31,12 -50,16 -18,4 -39,6 -61,-1 -11,-3 -21,-10 -28,-21 -6,-11 -7,-24 -5,-36 5,-25 25,-43 43,-59 36,-31 67,-64 98,-93 30,-29 59,-53 85,-71 26,-18 48,-32 63,-41 16,-8 24,-13 25,-12z"/>
      </g>
      <g>
       <path class="fil39" d="M10119 1950c1,0 -8,11 -24,29 -18,19 -42,45 -70,77 -30,32 -66,71 -105,113 -20,21 -44,42 -73,56 -15,7 -32,12 -49,12 -17,0 -36,-5 -49,-20 -7,-7 -10,-17 -12,-26 0,-9 1,-19 3,-27 5,-17 13,-33 23,-47l0 0 0 0c38,-40 73,-77 104,-112 32,-34 62,-61 87,-85 13,-11 24,-22 36,-29 13,-6 25,-6 35,-7 19,-2 30,0 29,2 0,-1 -10,-1 -29,2 -9,1 -21,2 -32,8 -11,6 -22,17 -34,29 -24,25 -54,53 -85,87 -31,34 -66,72 -103,112l1 0c-9,12 -17,27 -21,43 -2,7 -3,15 -3,23 2,7 4,15 9,20 10,11 26,16 41,16 15,0 30,-4 44,-11 27,-13 51,-33 71,-53 39,-42 75,-79 106,-111 30,-31 54,-56 72,-75 8,-8 15,-14 21,-20 4,-4 7,-6 7,-6z"/>
      </g>
      <g>
       <path class="fil39" d="M10444 2052c1,1 -1,7 -8,13 -7,5 -21,11 -35,8 -15,-2 -26,-12 -30,-20 -5,-8 -6,-14 -4,-14 1,-1 4,4 10,9 5,6 14,12 26,14 11,2 22,-1 29,-4 7,-3 11,-7 12,-6z"/>
      </g>
      <g>
       <path class="fil39" d="M10470 2150c-3,1 -19,-15 -33,-38 -14,-24 -20,-46 -17,-47 3,-1 13,18 27,41 14,23 25,42 23,44z"/>
      </g>
      <g>
       <path class="fil39" d="M10517 2529c-2,1 -11,-16 -21,-44 -9,-29 -17,-70 -17,-116 1,-46 10,-88 21,-116 10,-28 20,-44 21,-43 3,1 -30,68 -31,159 -2,91 30,159 27,160z"/>
      </g>
      <g>
       <path class="fil39" d="M11088 4000c-2,0 -4,-23 -15,-57 -6,-18 -14,-38 -25,-59 -12,-21 -27,-42 -45,-63 -18,-21 -38,-38 -57,-52 -20,-14 -38,-25 -55,-33 -32,-15 -55,-20 -54,-22 0,-1 6,0 16,2 10,2 24,6 42,13 17,7 36,17 57,31 20,14 41,32 60,53 18,22 33,45 45,67 11,22 19,42 23,60 5,18 7,33 8,44 1,10 1,16 0,16z"/>
      </g>
     </g>
     <g>
      <path class="fil38" d="M8660 6044c-92,-20 -176,22 -176,22 -95,-42 -211,31 -211,31 -34,-17 -240,118 -240,118l-257 121 -1369 -1018 388 -404 -544 -566 -638 656c-79,82 -119,193 -127,309 -16,249 126,482 349,595l1614 828c0,0 171,-6 367,-57 139,-37 377,-142 377,-142 0,0 -1,7 42,89 76,149 189,-11 189,-11 0,0 23,52 43,72 97,94 164,-32 164,-32 0,0 30,51 116,13 87,-38 -12,-298 -12,-298 0,0 29,56 85,-16 56,-71 -67,-291 -160,-310z"/>
      <g>
       <path class="fil39" d="M8467 6079c-1,0 5,-4 17,-7 12,-3 31,-4 52,2 22,6 46,18 69,35 12,9 23,19 34,31 11,12 19,26 27,41 29,59 50,116 63,157 6,21 10,38 13,50 3,12 3,18 3,18 -2,1 -9,-25 -24,-65 -14,-41 -36,-96 -65,-155 -7,-14 -15,-28 -25,-39 -10,-11 -21,-21 -32,-30 -22,-17 -45,-29 -65,-35 -41,-13 -67,0 -67,-3z"/>
      </g>
      <g>
       <path class="fil39" d="M8631 6655c0,0 -4,-8 -11,-24 -8,-17 -19,-39 -30,-65 -26,-55 -63,-130 -98,-215 -17,-43 -33,-84 -56,-116 -22,-33 -52,-54 -78,-66 -27,-12 -52,-14 -68,-12 -17,2 -25,7 -26,6 0,-1 2,-2 6,-4 4,-2 10,-4 19,-6 17,-4 43,-3 72,9 28,12 60,33 84,67 24,33 40,75 57,118 35,85 71,160 95,216 12,28 21,51 27,67 5,16 8,25 7,25z"/>
      </g>
      <g>
       <path class="fil39" d="M8003 6328c0,-1 7,-5 22,-13 16,-8 37,-17 61,-29 13,-6 27,-13 43,-20 16,-6 35,-10 55,-8 19,2 40,9 57,22 18,14 31,31 43,50 11,19 20,39 29,57 9,19 19,36 28,53 18,33 36,62 49,88 13,26 22,47 27,63 5,15 7,24 7,24 -2,0 -14,-33 -41,-83 -14,-25 -32,-54 -51,-87 -9,-17 -19,-34 -28,-53 -10,-18 -19,-38 -30,-56 -11,-18 -24,-35 -39,-47 -16,-12 -34,-19 -52,-21 -18,-2 -36,1 -51,7 -15,6 -30,13 -43,18 -25,10 -46,19 -62,26 -15,6 -24,9 -24,9z"/>
      </g>
      <g>
       <path class="fil39" d="M8033 6215c0,0 -7,5 -19,12 -12,7 -30,16 -53,28 -45,24 -107,56 -176,91 -69,35 -132,66 -178,88 -23,11 -42,19 -55,25 -12,6 -20,9 -20,8 -1,0 6,-5 19,-12 12,-7 30,-16 52,-28 45,-24 108,-56 177,-91 69,-35 132,-66 178,-88 22,-11 41,-19 54,-25 13,-6 20,-9 21,-8z"/>
      </g>
      <g>
       <path class="fil39" d="M6425 5320c-1,4 -73,-16 -162,-5 -89,10 -155,46 -156,43 -1,-1 15,-12 42,-24 27,-12 67,-24 113,-30 45,-5 87,-2 116,3 30,6 47,12 47,13z"/>
      </g>
     </g>
     <g>
      <path class="fil37" d="M9450 1644c-339,-5 -679,31 -1009,106 -77,18 -158,40 -210,99 -54,63 -64,152 -71,235 -9,101 -18,201 -27,302 -14,25 -30,50 -48,72 -80,104 -181,191 -254,301 -72,109 -112,254 -53,372 35,70 102,120 150,183 82,107 109,245 157,371 48,125 134,254 267,279 63,12 128,-1 192,8 95,14 174,76 250,135 75,59 157,120 252,129 96,10 205,-55 207,-151 -70,41 -163,38 -231,-6 -55,-37 -91,-96 -139,-143 -117,-114 -306,-150 -388,-291 -64,-112 -39,-252 -9,-378 25,-109 51,-228 19,-332 3,-17 4,-34 4,-51 1,-112 -43,-232 9,-330 69,-131 267,-148 336,-278 41,-75 27,-172 71,-246 41,-69 124,-101 203,-118 79,-17 162,-25 232,-66 69,-40 121,-128 90,-202z"/>
      <g>
       <path class="fil37" d="M9707 3921c0,0 -1,2 -3,5 -3,4 -7,9 -11,15 -9,13 -25,30 -49,50 -23,18 -56,37 -97,52 -40,13 -90,22 -144,16 -54,-4 -113,-26 -162,-66 -51,-39 -96,-91 -153,-132 -29,-20 -61,-36 -97,-41 -36,-5 -73,6 -109,20 -35,14 -71,32 -112,39 -41,7 -84,-3 -121,-22 -37,-18 -70,-43 -102,-67 -31,-25 -62,-50 -89,-78 -27,-28 -51,-60 -64,-96 -14,-36 -15,-75 -7,-111 7,-35 20,-68 32,-99 12,-31 23,-62 32,-92 18,-61 31,-118 39,-171 17,-106 17,-193 14,-253 -1,-30 -3,-53 -5,-69 -1,-7 -1,-13 -1,-18 -1,-4 -1,-6 -1,-6 1,0 1,2 2,6 0,4 1,10 2,18 3,15 5,39 7,69 4,60 6,147 -10,254 -8,54 -20,112 -38,172 -10,31 -20,62 -32,93 -12,32 -25,64 -31,98 -7,35 -6,71 7,105 12,34 35,65 61,92 27,28 58,52 89,77 31,24 64,49 100,66 36,18 76,28 114,21 39,-6 74,-24 110,-38 36,-15 75,-26 114,-20 38,5 73,22 102,43 58,42 103,94 152,132 49,40 105,61 158,66 53,7 101,-1 142,-14 40,-14 72,-32 96,-50 47,-37 63,-67 65,-66z"/>
      </g>
      <g>
       <path class="fil36" d="M7586 3246c0,0 -6,-7 -17,-23 -10,-16 -22,-42 -30,-78 -7,-35 -8,-80 2,-131 12,-50 34,-106 74,-157 39,-52 92,-100 153,-145 61,-45 130,-88 199,-137 68,-49 138,-106 189,-183 25,-38 43,-82 57,-127 14,-45 23,-93 34,-141 11,-48 23,-95 43,-140 19,-44 48,-84 84,-115 35,-31 77,-52 120,-66 43,-14 86,-22 129,-26 86,-7 167,2 242,8 75,6 145,10 209,3 64,-6 119,-26 164,-49 45,-24 78,-53 101,-81 22,-28 34,-54 40,-71 6,-18 8,-28 9,-28 0,0 -1,10 -7,28 -5,19 -17,45 -39,73 -22,29 -56,59 -101,84 -45,25 -102,45 -166,51 -64,8 -136,5 -211,-1 -75,-5 -156,-14 -240,-7 -42,4 -85,12 -127,26 -41,14 -82,35 -116,64 -35,30 -62,69 -81,112 -19,43 -31,90 -42,138 -11,47 -20,95 -34,141 -14,46 -33,91 -59,130 -52,78 -123,136 -192,186 -70,49 -139,91 -200,135 -61,45 -113,92 -152,143 -40,50 -62,104 -74,154 -11,49 -10,94 -4,129 15,70 46,100 43,101z"/>
      </g>
      <g>
       <path class="fil36" d="M7648 3358c0,0 -26,-19 -65,-63 -19,-22 -41,-50 -56,-90 -8,-19 -13,-42 -10,-66 2,-24 12,-49 29,-70 34,-42 91,-64 150,-77 30,-6 62,-11 93,-19 31,-8 63,-18 90,-37 28,-20 50,-47 66,-78 17,-32 29,-66 41,-102 12,-35 25,-71 43,-106 18,-35 45,-67 80,-88 35,-22 73,-33 110,-43 38,-10 75,-18 110,-30 71,-22 127,-71 169,-124 42,-53 74,-111 104,-163 31,-53 61,-102 96,-142 33,-40 72,-69 109,-89 37,-19 72,-28 101,-30 30,-3 52,1 67,5 15,4 22,8 22,8 0,1 -8,-2 -22,-6 -15,-3 -38,-6 -66,-3 -29,3 -64,13 -100,32 -36,19 -73,49 -105,88 -34,40 -64,88 -94,141 -30,53 -61,111 -104,166 -22,27 -46,53 -75,75 -29,23 -63,41 -98,53 -36,12 -74,20 -111,29 -37,10 -74,22 -107,42 -33,21 -59,51 -76,84 -18,34 -31,70 -43,105 -12,35 -24,70 -41,103 -17,32 -41,60 -70,81 -29,20 -62,31 -94,39 -32,7 -63,12 -93,18 -59,12 -114,34 -146,73 -16,20 -26,43 -28,66 -3,22 2,44 8,63 14,38 36,67 54,89 19,22 35,38 46,49 5,5 9,9 12,12 3,3 5,4 4,5z"/>
      </g>
     </g>
    </g>
    <g>
     <path class="fil39" d="M10261 1987c1,0 -3,6 -11,16 -7,10 -19,24 -33,42 -29,35 -71,81 -120,130 -24,24 -47,51 -78,61 -15,4 -31,4 -45,-1 -13,-5 -23,-16 -28,-26 -12,-22 -10,-42 -8,-54 2,-13 4,-20 5,-20 0,1 -1,8 -1,20 0,12 -1,31 10,50 6,9 14,17 26,21 11,5 25,4 38,0 27,-9 49,-34 74,-58 48,-49 90,-95 121,-128 30,-34 49,-54 50,-53z"/>
    </g>
    <g>
     <path class="fil39" d="M10423 1987c1,0 -4,6 -13,16 -8,10 -21,25 -37,43 -17,18 -36,39 -57,61 -11,12 -23,24 -34,36 -12,13 -25,26 -40,37 -16,11 -33,20 -52,21 -18,1 -38,-6 -48,-21 -5,-7 -8,-16 -8,-25 0,-9 4,-16 7,-23 8,-12 16,-22 23,-32 14,-19 26,-35 34,-45 8,-11 13,-17 14,-16 0,0 -3,7 -10,18 -8,11 -18,28 -32,48 -6,9 -14,20 -21,32 -7,11 -8,25 1,37 8,11 23,17 39,16 16,-1 32,-8 46,-19 15,-10 27,-23 39,-35 12,-12 23,-24 34,-36 22,-22 42,-42 59,-60 17,-17 31,-30 40,-40 10,-9 16,-14 16,-13z"/>
    </g>
   </g>
   <g>
    <path class="fil32" d="M12639 8484c37,-79 113,-138 199,-153 85,-14 178,15 238,78 -41,73 -115,122 -195,150 -94,32 -196,-6 -242,-75z"/>
    <g>
     <path class="fil37" d="M12489 8519c-1,-1 22,-10 61,-19 38,-9 91,-20 151,-30 59,-9 113,-17 152,-21 39,-5 63,-7 64,-5 0,1 -24,6 -63,12 -42,7 -94,16 -152,25 -59,10 -112,19 -151,27 -38,7 -62,13 -62,11z"/>
    </g>
   </g>
   <g>
    <path class="fil32" d="M5053 7141c90,74 140,195 127,310 -12,116 -86,224 -190,277 -78,-199 -108,-414 63,-587z"/>
    <g>
     <path class="fil32" d="M5348 7294c9,150 97,295 227,370 131,76 300,82 435,14 -149,-234 -350,-430 -662,-384z"/>
     <g>
      <path class="fil37" d="M4672 6556c0,-1 4,3 10,10 7,8 16,19 26,32 23,28 56,68 97,116 83,98 200,231 338,370 69,69 137,133 200,189 63,56 122,105 173,143 51,38 93,68 125,85 30,19 49,26 48,27 0,1 -5,-1 -13,-5 -9,-4 -22,-9 -37,-18 -33,-16 -76,-45 -128,-82 -52,-38 -111,-87 -175,-142 -64,-57 -132,-120 -201,-190 -138,-139 -254,-272 -336,-372 -40,-49 -72,-90 -94,-118 -10,-14 -18,-25 -25,-33 -5,-8 -8,-12 -8,-12z"/>
     </g>
    </g>
    <g>
     <path class="fil37" d="M5037 7443c-2,-1 5,-30 11,-79 6,-48 10,-115 2,-189 -8,-73 -25,-139 -41,-184 -16,-46 -29,-74 -27,-75 1,0 4,7 11,19 6,12 14,30 23,53 18,45 37,111 45,186 8,75 3,143 -5,192 -4,24 -9,43 -12,56 -4,14 -6,21 -7,21z"/>
    </g>
   </g>
   <g>
    <path class="fil32" d="M14403 3147c-52,-69 -68,-165 -40,-247 27,-82 97,-149 181,-173 45,71 53,160 39,243 -16,98 -98,170 -180,177z"/>
    <g>
     <path class="fil37" d="M14362 3297c-1,-1 3,-25 13,-63 10,-38 26,-90 45,-147 20,-57 39,-108 53,-145 15,-36 25,-59 26,-58 2,1 -6,24 -18,61 -14,41 -31,90 -50,145 -20,57 -37,109 -49,146 -12,37 -18,61 -20,61z"/>
    </g>
   </g>
   <g>
    <g>
     <path class="fil32" d="M13468 4726c-44,-162 -3,-344 106,-472 109,-128 283,-198 450,-180 30,160 -20,325 -105,465 -100,164 -298,234 -451,187z"/>
     <g>
      <path class="fil37" d="M12841 5355c0,-1 3,-5 9,-12 7,-8 16,-18 27,-31 25,-27 60,-65 105,-112 89,-93 213,-221 352,-361 138,-140 264,-266 356,-356 45,-45 82,-81 109,-107 12,-12 22,-22 30,-29 7,-7 11,-10 11,-10 0,1 -3,5 -10,12 -7,7 -16,17 -28,30 -26,26 -62,64 -107,109 -91,93 -216,219 -353,359 -138,140 -263,266 -354,359 -45,45 -81,82 -107,109 -12,12 -22,22 -29,30 -7,6 -11,10 -11,10z"/>
     </g>
     <g>
      <path class="fil40" d="M13468 4726c-44,-162 -3,-344 106,-472 109,-128 283,-198 450,-180 30,160 -20,325 -105,465 -100,164 -298,234 -451,187z"/>
     </g>
    </g>
    <g>
     <path class="fil32" d="M13178 4789c-92,-47 -158,-141 -171,-243 -13,-102 28,-210 104,-279 86,53 140,144 168,240 33,113 -17,232 -101,282z"/>
     <g>
      <path class="fil40" d="M13178 4789c-92,-47 -158,-141 -171,-243 -13,-102 28,-210 104,-279 86,53 140,144 168,240 33,113 -17,232 -101,282z"/>
     </g>
     <g>
      <path class="fil37" d="M13211 4970c-1,0 -3,-7 -6,-19 -4,-13 -8,-31 -12,-54 -9,-46 -19,-110 -27,-181 -9,-71 -15,-135 -18,-182 -4,-46 -5,-75 -3,-75 1,-1 5,28 11,74 5,50 13,112 21,182 8,70 16,134 23,180 7,46 13,75 11,75z"/>
     </g>
    </g>
   </g>
   <g>
    <path class="fil32" d="M9204 7249c64,-152 209,-268 372,-298 163,-29 340,28 454,148 -241,187 -522,314 -826,150z"/>
    <g>
     <path class="fil40" d="M9204 7249c64,-152 209,-268 372,-298 163,-29 340,28 454,148 -241,187 -522,314 -826,150z"/>
    </g>
    <g>
     <path class="fil37" d="M9068 7324c-1,-1 6,-6 19,-15 13,-9 32,-21 56,-35 48,-28 117,-62 198,-89 81,-27 157,-41 212,-47 28,-3 50,-4 66,-4 16,-1 24,-1 24,0 0,2 -34,4 -89,12 -54,8 -130,23 -210,49 -80,27 -149,59 -198,86 -48,26 -77,44 -78,43z"/>
    </g>
   </g>
   <g>
    <path class="fil32" d="M3609 4484c116,-54 259,-46 368,21 109,67 180,191 184,319 -235,-17 -462,-89 -552,-340z"/>
    <g>
     <path class="fil40" d="M3609 4484c116,-54 259,-46 368,21 109,67 180,191 184,319 -235,-17 -462,-89 -552,-340z"/>
    </g>
    <g>
     <path class="fil37" d="M3492 4456c1,0 7,0 19,1 12,1 29,4 50,8 43,9 100,25 161,52 60,26 111,58 145,83 18,13 31,23 40,32 9,7 14,12 14,13 -1,1 -22,-15 -58,-39 -36,-23 -86,-53 -146,-79 -59,-26 -116,-44 -157,-54 -42,-10 -68,-15 -68,-17z"/>
    </g>
   </g>
   <g>
    <path class="fil32" d="M11214 6989c-14,-113 33,-233 121,-306 87,-74 213,-101 322,-68 -80,194 -204,367 -443,374z"/>
    <g>
     <path class="fil37" d="M11158 7081c-1,-1 8,-23 27,-57 19,-33 49,-78 88,-122 39,-44 80,-78 112,-100 31,-23 52,-34 53,-33 1,2 -19,15 -49,39 -30,23 -69,58 -108,102 -39,43 -69,86 -89,118 -21,33 -32,53 -34,53z"/>
    </g>
   </g>
   <g>
    <path class="fil32" d="M12884 5887c-35,-109 -11,-235 61,-324 72,-89 190,-139 304,-127 -42,206 -132,399 -365,451z"/>
    <g>
     <path class="fil40" d="M12884 5887c-35,-109 -11,-235 61,-324 72,-89 190,-139 304,-127 -42,206 -132,399 -365,451z"/>
    </g>
    <g>
     <path class="fil37" d="M12847 5987c-2,0 3,-24 15,-60 12,-37 33,-86 64,-137 30,-50 64,-92 90,-120 27,-28 46,-43 46,-42 2,2 -15,19 -40,48 -25,28 -57,70 -87,120 -30,50 -52,98 -66,133 -14,36 -21,59 -22,58z"/>
    </g>
   </g>
   <g>
    <path class="fil32" d="M295 4369c25,-112 108,-209 216,-249 107,-41 234,-24 326,43 -140,157 -315,279 -542,206z"/>
    <g>
     <path class="fil37" d="M212 4437c-1,-1 15,-19 44,-45 29,-25 71,-57 123,-86 52,-28 102,-47 139,-57 37,-11 61,-15 61,-13 0,1 -23,8 -59,20 -36,13 -85,32 -136,60 -51,28 -94,59 -123,82 -30,24 -48,40 -49,39z"/>
    </g>
   </g>
   <g>
    <g>
     <g>
      <g>
       <path class="fil35" d="M9996 1599l171 -307c-78,-124 -124,-270 -126,-427 -4,-452 359,-822 811,-826 451,-5 821,358 825,810 5,452 -358,821 -810,826 -188,1 -363,-61 -502,-167l0 1 -369 90z"/>
       <g>
        <path class="fil37" d="M9996 1599c19,-5 135,-34 369,-93l-2 4 0 0 -13 -17 17 13c47,35 103,70 168,98 66,28 141,51 224,61 41,4 84,7 128,4 22,-1 45,-2 67,-4 23,-4 45,-8 69,-11 91,-20 184,-56 271,-111 87,-55 167,-129 230,-220 64,-91 112,-198 134,-314 21,-116 18,-239 -14,-359 -31,-119 -90,-235 -176,-331l-33 -36c-11,-12 -24,-22 -36,-33 -13,-10 -24,-22 -37,-31l-39 -29c-13,-10 -27,-18 -41,-26l-41 -25c-14,-6 -29,-13 -43,-20 -14,-6 -28,-14 -43,-19 -118,-45 -243,-62 -363,-52 -120,9 -234,45 -332,101 -98,55 -181,129 -244,212 -64,82 -109,173 -136,263 -28,91 -35,181 -34,264 6,168 62,305 123,402l1 2 -1 1c-110,195 -164,290 -173,306 9,-16 61,-112 168,-308l0 2c-61,-97 -119,-235 -126,-405 -1,-84 6,-174 33,-266 28,-92 73,-183 137,-267 64,-83 148,-159 247,-215 99,-57 215,-93 336,-103 121,-10 248,7 368,53 15,5 29,12 44,19 14,7 29,14 43,21l42 25c14,8 28,16 41,26l40 29c13,9 25,22 37,32 12,11 25,21 36,34l34 36c88,97 147,214 179,335 32,121 35,247 13,364 -22,118 -71,226 -135,318 -65,92 -146,167 -234,222 -88,56 -182,92 -275,111 -23,4 -46,8 -69,11 -23,2 -45,3 -68,5 -44,2 -88,-1 -129,-6 -84,-10 -159,-33 -225,-62 -66,-29 -123,-64 -170,-100l4 -3 1 0 2 3 -4 1c-235,56 -351,84 -370,88z"/>
       </g>
      </g>
     </g>
    </g>
    <g>
     <g>
      <path class="fil32" d="M10633 717l106 -1c0,0 -1,-90 92,-92 48,-2 74,30 84,54 12,28 9,60 -7,86 -18,30 -57,57 -129,46l3 239 105 -1 -2 -140c0,0 148,-40 146,-202 -1,-156 -141,-191 -201,-190 -46,0 -201,13 -197,201z"/>
      <polygon class="fil32" points="10889,1198 10783,1199 10782,1099 10889,1098 "/>
     </g>
    </g>
   </g>
  </g>
 </g>
</svg>
