<?xml version="1.0" encoding="UTF-8"?>
<!DOCTYPE svg PUBLIC "-//W3C//DTD SVG 1.1//EN" "http://www.w3.org/Graphics/SVG/1.1/DTD/svg11.dtd">
<!-- Creator: CorelDRAW X8 -->
<svg xmlns="http://www.w3.org/2000/svg" xml:space="preserve" width="50mm" height="50mm" version="1.1" style="shape-rendering:geometricPrecision; text-rendering:geometricPrecision; image-rendering:optimizeQuality; fill-rule:evenodd; clip-rule:evenodd"
viewBox="0 0 5000 5000"
 xmlns:xlink="http://www.w3.org/1999/xlink">
 <defs>
  <style type="text/css">
   <![CDATA[
    .str0 {stroke:#FFF000;stroke-width:7.62}
    .fil1 {fill:#FEFEFE}
    .fil0 {fill:#0F303F}
    .fil5 {fill:#E6E6E6}
    .fil3 {fill:#FD9800}
    .fil2 {fill:#FDC63A}
    .fil4 {fill:white}
   ]]>
  </style>
 </defs>
 <g id="Layer_x0020_1">
  <metadata id="CorelCorpID_0Corel-Layer"/>
  <path class="fil0 str0" d="M4151 1660l0 -162c0,-154 -125,-283 -283,-283l-2080 0c-158,0 -287,129 -287,283l0 1290 77 -73 89 92 3 -4 235 243 820 834 48 -44 180 533c18,55 3,121 -41,161 -44,41 -106,55 -161,33 -203,-69 -342,-121 -530,-187l48 -48c-253,-261 -511,-522 -768,-779l0 849c0,158 129,287 287,287l2080 0c158,0 283,-129 283,-287l0 -206 0 -705 0 -1827z"/>
  <path class="fil1" d="M2453 1484l750 0c44,0 81,37 81,81 0,44 -37,80 -81,80l-750 0c-44,0 -81,-36 -81,-80 0,-45 37,-81 81,-81z"/>
  <path class="fil1" d="M1916 1763l1823 0c44,0 81,33 81,77 0,44 -37,81 -81,81l-1823 0c-44,0 -80,-37 -80,-81 0,-44 36,-77 80,-77z"/>
  <path class="fil1" d="M1916 2039l1823 0c44,0 81,36 81,81 0,44 -37,80 -81,80l-1823 0c-44,0 -80,-36 -80,-80 0,-45 36,-81 80,-81z"/>
  <path class="fil1" d="M1916 2314l1823 0c44,0 81,37 81,81 0,44 -37,81 -81,81l-1823 0c-44,0 -80,-37 -80,-81 0,-44 36,-81 80,-81z"/>
  <path class="fil1" d="M1916 2594l1823 0c44,0 81,36 81,80 0,41 -37,78 -81,78l-1823 0c-44,0 -80,-37 -80,-78 0,-44 36,-80 80,-80z"/>
  <path class="fil1" d="M1916 2869l1823 0c44,0 81,37 81,81 0,44 -37,81 -81,81l-1823 0c-14,0 -25,-4 -36,-11l-37 -37c-4,-11 -7,-22 -7,-33 0,-44 36,-81 80,-81z"/>
  <path class="fil1" d="M2188 3145l1551 0c44,0 81,37 81,81 0,44 -37,81 -81,81l-1551 0c-44,0 -81,-37 -81,-81 0,-44 37,-81 81,-81z"/>
  <path class="fil1" d="M2423 3424l1316 0c44,0 81,37 81,81 0,44 -37,77 -81,77l-1304 0 -92 -92c7,-36 40,-66 80,-66z"/>
  <path class="fil1" d="M2626 3700l1113 0c44,0 81,37 81,81 0,44 -37,81 -81,81l-959 0 -7 -26 -26 26 -40 0 -137 -140c15,-15 34,-22 56,-22z"/>
  <path class="fil1" d="M2898 3979l841 0c44,0 81,33 81,77 0,44 -37,81 -81,81l-841 0c-8,0 7,4 0,0 -19,-73 -78,-158 0,-158z"/>
  <path class="fil1" d="M3078 4255l661 0c44,0 81,37 81,81 0,44 -37,80 -81,80l-661 0c-44,0 -77,-36 -77,-80 0,-45 33,-81 77,-81z"/>
  <path class="fil0" d="M2416 4317l294 -290 -44 -48 -860 -871 -51 -55 -298 290c232,236 731,739 959,974z"/>
  <polygon class="fil0" points="1336,3218 1361,3244 1655,2954 1578,2873 1281,3163 "/>
  <path class="fil0" d="M2835 4449c11,-11 15,-29 11,-44l-121 -364 -298 287 360 132c15,4 33,0 48,-11z"/>
  <polygon class="fil0" points="1424,3310 1450,3332 1747,3046 1667,2961 1369,3251 "/>
  <path class="fil2" d="M2832 108c-362,-1 -656,303 -657,679 -1,261 167,385 286,595 61,107 56,505 56,505 0,80 62,145 138,145l170 1 7 -1925 0 0z"/>
  <path class="fil3" d="M3484 792c1,-377 -291,-683 -652,-684l-7 1925 169 0c77,0 139,-64 139,-144 0,0 -2,-402 60,-509 121,-208 290,-328 291,-588z"/>
  <path class="fil4" d="M2709 1747c65,-65 170,-65 234,0l91 92c65,65 64,170 -1,235l-91 91c-65,64 -170,64 -235,-1l-91 -92c-65,-65 -64,-170 1,-234l92 -91z"/>
  <path class="fil5" d="M3203 1965c0,39 -49,70 -108,70l-540 -2c-59,0 -108,-32 -107,-71l0 0c0,-39 48,-71 108,-71l539 2c60,0 108,32 108,72l0 0z"/>
  <path class="fil4" d="M3203 1832c0,39 -48,71 -108,70l-539 -1c-60,-1 -108,-33 -108,-72l0 0c0,-39 49,-71 108,-70l540 1c59,1 107,33 107,72l0 0z"/>
  <path class="fil5" d="M3204 1699c0,39 -49,71 -108,70l-540 -1c-60,-1 -108,-32 -108,-72l0 0c0,-39 49,-70 109,-70l539 2c60,0 108,32 108,71l0 0z"/>
  <path class="fil4" d="M3204 1566c0,39 -48,71 -108,71l-539 -2c-60,0 -108,-32 -108,-71l0 0c0,-40 48,-71 108,-71l540 2c59,0 107,32 107,71l0 0z"/>
 </g>
</svg>
