<?xml version="1.0" encoding="UTF-8"?>
<!DOCTYPE svg PUBLIC "-//W3C//DTD SVG 1.1//EN" "http://www.w3.org/Graphics/SVG/1.1/DTD/svg11.dtd">
<!-- Creator: CorelDRAW X8 -->
<svg xmlns="http://www.w3.org/2000/svg" xml:space="preserve" width="50mm" height="50mm" version="1.1" style="shape-rendering:geometricPrecision; text-rendering:geometricPrecision; image-rendering:optimizeQuality; fill-rule:evenodd; clip-rule:evenodd"
viewBox="0 0 5000 5000"
 xmlns:xlink="http://www.w3.org/1999/xlink">
 <defs>
  <style type="text/css">
   <![CDATA[
    .fil0 {fill:#0F303F}
    .fil1 {fill:#2C5871}
    .fil5 {fill:#9FB603}
    .fil3 {fill:#C1D64B}
    .fil7 {fill:#E6E6E6}
    .fil4 {fill:#FD692B}
    .fil2 {fill:#FDC63A}
    .fil6 {fill:white}
   ]]>
  </style>
 </defs>
 <g id="Layer_x0020_1">
  <metadata id="CorelCorpID_0Corel-Layer"/>
  <path class="fil0" d="M4573 3642l-4132 0 0 -2639 4132 0 0 2639zm-4337 -2850l0 3061 4542 0 0 -3061 -4542 0z"/>
  <polygon class="fil1" points="4573,1433 441,1433 441,1003 4573,1003 "/>
  <polygon class="fil2" points="3840,1313 3650,1313 3650,1123 3840,1123 "/>
  <polygon class="fil3" points="4121,1313 3932,1313 3932,1123 4121,1123 "/>
  <polygon class="fil4" points="4402,1313 4213,1313 4213,1123 4402,1123 "/>
  <polygon class="fil3" points="2507,3642 441,3642 441,1433 2507,1433 "/>
  <polygon class="fil5" points="4573,3642 2507,3642 2507,1433 4573,1433 "/>
  <path class="fil6" d="M2507 3022c-19,0 -34,-15 -34,-34l0 -323c0,-19 15,-35 34,-35 19,0 34,16 34,35l0 323c0,19 -15,34 -34,34z"/>
  <path class="fil6" d="M1604 2462c-8,0 -17,-3 -23,-9 -14,-12 -15,-34 -2,-48l398 -432c13,-14 35,-15 48,-2 14,12 15,34 2,48l-398 432c-7,8 -16,11 -25,11z"/>
  <path class="fil6" d="M1424 3022c-19,0 -34,-15 -34,-34l0 -252c0,-19 15,-34 34,-34 19,0 34,15 34,34l0 252c0,19 -15,34 -34,34z"/>
  <path class="fil6" d="M3410 2462c-9,0 -19,-3 -25,-11l-399 -432c-13,-14 -12,-36 2,-48 14,-13 36,-12 48,2l399 432c13,14 12,36 -2,48 -7,6 -15,9 -23,9z"/>
  <path class="fil6" d="M3590 3022c-19,0 -35,-15 -35,-34l0 -252c0,-19 16,-34 35,-34 18,0 34,15 34,34l0 252c0,19 -16,34 -34,34z"/>
  <path class="fil6" d="M2147 2605l-363 0c-19,0 -35,-15 -35,-34 0,-19 16,-34 35,-34l363 0c19,0 35,15 35,34 0,19 -16,34 -35,34z"/>
  <path class="fil6" d="M2507 2440c-19,0 -34,-15 -34,-34l0 -324c0,-19 15,-34 34,-34 19,0 34,15 34,34l0 324c0,19 -15,34 -34,34z"/>
  <path class="fil7" d="M3140 1864c0,-120 -283,-218 -633,-218l0 436c350,0 633,-97 633,-218z"/>
  <path class="fil6" d="M2507 1646c-350,0 -633,98 -633,218 0,121 283,218 633,218l0 0 0 -436 0 0z"/>
  <path class="fil7" d="M1784 2571c0,-91 -161,-165 -360,-165l0 330c199,0 360,-74 360,-165z"/>
  <path class="fil6" d="M1424 2406c-198,0 -359,74 -359,165 0,91 161,165 359,165l0 0 0 -330z"/>
  <path class="fil6" d="M2147 3188l-363 0c-19,0 -35,-16 -35,-35 0,-19 16,-34 35,-34l363 0c19,0 35,15 35,34 0,19 -16,35 -35,35z"/>
  <path class="fil6" d="M3230 2605l-364 0c-19,0 -34,-15 -34,-34 0,-19 15,-34 34,-34l364 0c19,0 34,15 34,34 0,19 -15,34 -34,34z"/>
  <path class="fil6" d="M3230 3188l-364 0c-19,0 -34,-16 -34,-35 0,-19 15,-34 34,-34l364 0c19,0 34,15 34,34 0,19 -15,35 -34,35z"/>
  <path class="fil7" d="M2866 2571c0,-91 -161,-165 -359,-165l0 330c198,0 359,-74 359,-165z"/>
  <path class="fil6" d="M2507 2406c-199,0 -360,74 -360,165 0,91 161,165 360,165l0 0 0 -330z"/>
  <path class="fil7" d="M3949 2571c0,-91 -161,-165 -359,-165l0 330c198,0 359,-74 359,-165z"/>
  <path class="fil6" d="M3590 2406c-199,0 -360,74 -360,165 0,91 161,165 360,165l0 0 0 -330z"/>
  <path class="fil7" d="M1784 3153c0,-91 -161,-165 -360,-165l0 330c199,0 360,-73 360,-165z"/>
  <path class="fil6" d="M1424 2988c-198,0 -359,74 -359,165 0,92 161,165 359,165l0 0 0 -330z"/>
  <path class="fil7" d="M2866 3153c0,-91 -161,-165 -359,-165l0 330c198,0 359,-73 359,-165z"/>
  <path class="fil6" d="M2507 2988c-199,0 -360,74 -360,165 0,92 161,165 360,165l0 0 0 -330z"/>
  <path class="fil7" d="M3949 3153c0,-91 -161,-165 -359,-165l0 330c198,0 359,-73 359,-165z"/>
  <path class="fil6" d="M3590 2988c-199,0 -360,74 -360,165 0,92 161,165 360,165l0 0 0 -330z"/>
 </g>
</svg>
