<?xml version="1.0" encoding="UTF-8"?>
<!DOCTYPE svg PUBLIC "-//W3C//DTD SVG 1.1//EN" "http://www.w3.org/Graphics/SVG/1.1/DTD/svg11.dtd">
<!-- Creator: CorelDRAW X8 -->
<svg xmlns="http://www.w3.org/2000/svg" xml:space="preserve" width="100mm" height="100mm" version="1.1" style="shape-rendering:geometricPrecision; text-rendering:geometricPrecision; image-rendering:optimizeQuality; fill-rule:evenodd; clip-rule:evenodd"
viewBox="0 0 5000 5000"
 xmlns:xlink="http://www.w3.org/1999/xlink">
 <defs>
  <style type="text/css">
   <![CDATA[
    .str0 {stroke:#FEFEFE;stroke-width:7.62}
    .str4 {stroke:#02A9AC;stroke-width:7.62}
    .str3 {stroke:#2B8EAC;stroke-width:7.62}
    .str1 {stroke:#ED8661;stroke-width:7.62}
    .str6 {stroke:#F1F1F0;stroke-width:7.62}
    .str5 {stroke:#FDC334;stroke-width:7.62}
    .str2 {stroke:#FDEB94;stroke-width:7.62}
    .str7 {stroke:#FFBE56;stroke-width:7.62}
    .fil152 {fill:none}
    .fil151 {fill:#A9DDE3}
    .fil102 {fill:#02A9AC;fill-rule:nonzero}
    .fil108 {fill:#03878E;fill-rule:nonzero}
    .fil74 {fill:#09A8AA;fill-rule:nonzero}
    .fil20 {fill:#16B6B0;fill-rule:nonzero}
    .fil92 {fill:#226386;fill-rule:nonzero}
    .fil62 {fill:#22ACAD;fill-rule:nonzero}
    .fil68 {fill:#23B7AB;fill-rule:nonzero}
    .fil138 {fill:#298FB0;fill-rule:nonzero}
    .fil69 {fill:#2B292C;fill-rule:nonzero}
    .fil64 {fill:#2B2E30;fill-rule:nonzero}
    .fil83 {fill:#2B8EAC;fill-rule:nonzero}
    .fil127 {fill:#2E8EAD;fill-rule:nonzero}
    .fil136 {fill:#3091B8;fill-rule:nonzero}
    .fil150 {fill:#33363B;fill-rule:nonzero}
    .fil149 {fill:#363946;fill-rule:nonzero}
    .fil128 {fill:#3DA6C1;fill-rule:nonzero}
    .fil148 {fill:#485057;fill-rule:nonzero}
    .fil34 {fill:#53160B;fill-rule:nonzero}
    .fil58 {fill:#622013;fill-rule:nonzero}
    .fil54 {fill:#632111;fill-rule:nonzero}
    .fil29 {fill:#662211;fill-rule:nonzero}
    .fil110 {fill:#6B8893;fill-rule:nonzero}
    .fil5 {fill:#6FCED2;fill-rule:nonzero}
    .fil88 {fill:#767676;fill-rule:nonzero}
    .fil31 {fill:#772C13;fill-rule:nonzero}
    .fil37 {fill:#7AD2D4;fill-rule:nonzero}
    .fil33 {fill:#82D6E1;fill-rule:nonzero}
    .fil85 {fill:#848484;fill-rule:nonzero}
    .fil22 {fill:#85D5DC;fill-rule:nonzero}
    .fil89 {fill:#86CFE6;fill-rule:nonzero}
    .fil46 {fill:#88D7DF;fill-rule:nonzero}
    .fil43 {fill:#88D9DF;fill-rule:nonzero}
    .fil107 {fill:#8F8F8F;fill-rule:nonzero}
    .fil70 {fill:#94E0E6;fill-rule:nonzero}
    .fil141 {fill:#96DDDF;fill-rule:nonzero}
    .fil30 {fill:#9CDFE2;fill-rule:nonzero}
    .fil113 {fill:#9DE1E2;fill-rule:nonzero}
    .fil35 {fill:#9EE1E6;fill-rule:nonzero}
    .fil39 {fill:#9FE0E9;fill-rule:nonzero}
    .fil47 {fill:#A2E0E3;fill-rule:nonzero}
    .fil139 {fill:#A2E2E9;fill-rule:nonzero}
    .fil109 {fill:#A3E2E6;fill-rule:nonzero}
    .fil126 {fill:#A6E2E2;fill-rule:nonzero}
    .fil21 {fill:#A6E2E6;fill-rule:nonzero}
    .fil56 {fill:#A6E2EB;fill-rule:nonzero}
    .fil73 {fill:#A7E0E6;fill-rule:nonzero}
    .fil76 {fill:#A8E3E9;fill-rule:nonzero}
    .fil3 {fill:#A9DDE3;fill-rule:nonzero}
    .fil111 {fill:#A9E1EA;fill-rule:nonzero}
    .fil25 {fill:#A9E4EB;fill-rule:nonzero}
    .fil41 {fill:#AAE6EA;fill-rule:nonzero}
    .fil103 {fill:#ACE3EA;fill-rule:nonzero}
    .fil36 {fill:#ACE4E9;fill-rule:nonzero}
    .fil19 {fill:#ADE2E0;fill-rule:nonzero}
    .fil112 {fill:#ADE2E9;fill-rule:nonzero}
    .fil79 {fill:#AEE8EB;fill-rule:nonzero}
    .fil12 {fill:#B0E7E9;fill-rule:nonzero}
    .fil7 {fill:#B1E7EA;fill-rule:nonzero}
    .fil17 {fill:#B3B0AE;fill-rule:nonzero}
    .fil28 {fill:#B3E9EB;fill-rule:nonzero}
    .fil13 {fill:#B5EBEA;fill-rule:nonzero}
    .fil57 {fill:#B6B7B7;fill-rule:nonzero}
    .fil143 {fill:#B87662;fill-rule:nonzero}
    .fil48 {fill:#B8B9B6;fill-rule:nonzero}
    .fil38 {fill:#B8EBEB;fill-rule:nonzero}
    .fil145 {fill:#B97561;fill-rule:nonzero}
    .fil114 {fill:#B97663;fill-rule:nonzero}
    .fil120 {fill:#B97763;fill-rule:nonzero}
    .fil14 {fill:#B9EAEB;fill-rule:nonzero}
    .fil78 {fill:#BAE9EB;fill-rule:nonzero}
    .fil147 {fill:#BB7764;fill-rule:nonzero}
    .fil87 {fill:#BDEBEE;fill-rule:nonzero}
    .fil72 {fill:#C0BDBC;fill-rule:nonzero}
    .fil84 {fill:#C1EEF1;fill-rule:nonzero}
    .fil50 {fill:#C3C6C4;fill-rule:nonzero}
    .fil105 {fill:#C5C0B8;fill-rule:nonzero}
    .fil16 {fill:#C6C5C5;fill-rule:nonzero}
    .fil142 {fill:#CA917E;fill-rule:nonzero}
    .fil86 {fill:#CCEBEA;fill-rule:nonzero}
    .fil146 {fill:#CD9181;fill-rule:nonzero}
    .fil144 {fill:#CD9280;fill-rule:nonzero}
    .fil26 {fill:#CFF4FA;fill-rule:nonzero}
    .fil42 {fill:#D05456;fill-rule:nonzero}
    .fil32 {fill:#D0ECEC;fill-rule:nonzero}
    .fil125 {fill:#D2866C;fill-rule:nonzero}
    .fil123 {fill:#D2866E;fill-rule:nonzero}
    .fil60 {fill:#DEDEE1;fill-rule:nonzero}
    .fil90 {fill:#E38562;fill-rule:nonzero}
    .fil117 {fill:#E4E4E4;fill-rule:nonzero}
    .fil55 {fill:#E6636B;fill-rule:nonzero}
    .fil129 {fill:#E6A789;fill-rule:nonzero}
    .fil51 {fill:#E6E6E6;fill-rule:nonzero}
    .fil96 {fill:#E7A68B;fill-rule:nonzero}
    .fil130 {fill:#E7A789;fill-rule:nonzero}
    .fil106 {fill:#EB553A;fill-rule:nonzero}
    .fil40 {fill:#ED8661;fill-rule:nonzero}
    .fil52 {fill:#EEE9DD;fill-rule:nonzero}
    .fil98 {fill:#F06F50;fill-rule:nonzero}
    .fil93 {fill:#F0F0F0;fill-rule:nonzero}
    .fil59 {fill:#F0F0F4;fill-rule:nonzero}
    .fil121 {fill:#F1F1F0;fill-rule:nonzero}
    .fil2 {fill:#F36C37;fill-rule:nonzero}
    .fil71 {fill:#F36D39;fill-rule:nonzero}
    .fil77 {fill:#F5682C;fill-rule:nonzero}
    .fil95 {fill:#F6907C;fill-rule:nonzero}
    .fil45 {fill:#F7A178;fill-rule:nonzero}
    .fil100 {fill:#F8A079;fill-rule:nonzero}
    .fil80 {fill:#F9F1EC;fill-rule:nonzero}
    .fil61 {fill:#FAF8FC;fill-rule:nonzero}
    .fil1 {fill:#FAFDF9;fill-rule:nonzero}
    .fil91 {fill:#FB633E;fill-rule:nonzero}
    .fil18 {fill:#FCC33C;fill-rule:nonzero}
    .fil8 {fill:#FCDF7C;fill-rule:nonzero}
    .fil0 {fill:#FCFDFD;fill-rule:nonzero}
    .fil104 {fill:#FDA639;fill-rule:nonzero}
    .fil115 {fill:#FDB346;fill-rule:nonzero}
    .fil99 {fill:#FDC23A;fill-rule:nonzero}
    .fil122 {fill:#FDC334;fill-rule:nonzero}
    .fil119 {fill:#FDC538;fill-rule:nonzero}
    .fil140 {fill:#FDC55F;fill-rule:nonzero}
    .fil116 {fill:#FDD351;fill-rule:nonzero}
    .fil75 {fill:#FDDB6C;fill-rule:nonzero}
    .fil97 {fill:#FDDE7B;fill-rule:nonzero}
    .fil10 {fill:#FDDE7C;fill-rule:nonzero}
    .fil81 {fill:#FDDF7B;fill-rule:nonzero}
    .fil23 {fill:#FDE07C;fill-rule:nonzero}
    .fil24 {fill:#FDE085;fill-rule:nonzero}
    .fil63 {fill:#FDEB8B;fill-rule:nonzero}
    .fil65 {fill:#FDEB94;fill-rule:nonzero}
    .fil101 {fill:#FDFFFD;fill-rule:nonzero}
    .fil6 {fill:#FDFFFF;fill-rule:nonzero}
    .fil27 {fill:#FF8156;fill-rule:nonzero}
    .fil131 {fill:#FF8A2C;fill-rule:nonzero}
    .fil133 {fill:#FF8B27;fill-rule:nonzero}
    .fil137 {fill:#FFAC42;fill-rule:nonzero}
    .fil124 {fill:#FFB046;fill-rule:nonzero}
    .fil134 {fill:#FFBB52;fill-rule:nonzero}
    .fil135 {fill:#FFBE56;fill-rule:nonzero}
    .fil132 {fill:#FFC239;fill-rule:nonzero}
    .fil82 {fill:#FFC33B;fill-rule:nonzero}
    .fil118 {fill:#FFD351;fill-rule:nonzero}
    .fil94 {fill:#FFD760;fill-rule:nonzero}
    .fil44 {fill:#FFDB8B;fill-rule:nonzero}
    .fil66 {fill:#FFDC82;fill-rule:nonzero}
    .fil53 {fill:#FFDC91;fill-rule:nonzero}
    .fil9 {fill:#FFDE79;fill-rule:nonzero}
    .fil15 {fill:#FFDE7B;fill-rule:nonzero}
    .fil49 {fill:#FFDE7C;fill-rule:nonzero}
    .fil67 {fill:#FFF8FC;fill-rule:nonzero}
    .fil4 {fill:#FFFCFF;fill-rule:nonzero}
    .fil11 {fill:white;fill-rule:nonzero}
   ]]>
  </style>
 </defs>
 <g id="Layer_x0020_1">
  <metadata id="CorelCorpID_0Corel-Layer"/>
  <g id="_2122544250880">
   <path class="fil0" d="M2791 1463c41,73 70,152 106,227 3,14 6,28 10,42 -4,-5 -11,-15 -14,-21 -34,-82 -78,-161 -102,-248z"/>
   <path class="fil0" d="M180 1655c19,18 30,42 35,68 -18,-19 -28,-43 -35,-68z"/>
   <path class="fil0" d="M1595 1806c53,-6 98,28 135,61 -45,-20 -89,-43 -135,-61z"/>
   <path class="fil0" d="M488 2339c37,-1 72,49 39,78 -22,37 -77,9 -78,-28 1,-23 19,-41 39,-50zm6 87l0 0c16,-5 29,-15 39,-28 -11,-19 -23,-36 -38,-52 -37,15 -49,73 -1,80z"/>
   <path class="fil0" d="M3170 2617c24,-19 47,34 17,37 -22,15 -41,-27 -17,-37z"/>
   <path class="fil1" d="M1374 1232c6,-41 6,-89 41,-117 17,10 34,20 51,30 12,14 23,28 35,42 -26,19 -53,37 -81,53 21,-25 59,-44 49,-82 -23,0 -47,-3 -53,-31 -22,31 -28,70 -42,105z"/>
   <path class="fil2" d="M3977 600c25,14 39,39 53,63 32,-9 64,-15 97,-20 -20,25 -41,47 -63,70 20,32 39,64 57,97 -38,-9 -75,-23 -111,-39 -24,26 -49,51 -77,73 3,-32 9,-63 12,-94 -20,-17 -47,-25 -70,-38 30,-10 59,-21 89,-31 4,-27 8,-54 13,-81z"/>
   <path class="fil3" d="M1948 729c14,0 29,1 43,1 58,66 39,159 38,238 4,6 11,16 15,21 -63,-26 -138,-48 -171,-115 -10,-27 -29,-66 -1,-88 30,-6 46,26 66,41 -4,-33 0,-66 10,-98zm10 12l0 0c-23,37 -3,80 5,118 -31,-22 -54,-65 -97,-63 -7,95 80,149 157,177 2,-60 4,-121 -8,-180 -5,-27 -25,-63 -57,-52z"/>
   <path class="fil4" d="M1786 1933c28,35 33,80 17,121 3,-41 -5,-82 -17,-121z"/>
   <path class="fil4" d="M1577 2670c2,-40 7,-81 29,-116 -8,39 -18,77 -22,116 -2,0 -5,0 -7,0z"/>
   <path class="fil4" d="M3488 2563c20,-21 47,9 32,31 -23,15 -45,-8 -32,-31z"/>
   <path class="fil4" d="M1290 3182c27,-10 57,-4 81,12 24,26 25,66 16,99 -20,45 -56,83 -89,120 -77,79 -154,160 -248,219 -30,21 -76,29 -105,1 -37,-42 -24,-103 -3,-149 -8,50 -29,113 17,151 52,20 101,-17 140,-48 92,-75 179,-158 252,-252 31,-34 41,-85 21,-127 -33,-35 -83,-17 -121,-3 -103,38 -184,115 -251,199 63,-107 170,-187 290,-222z"/>
   <path class="fil4" d="M1433 3566c21,29 40,60 45,96 -18,-22 -31,-47 -43,-72 -18,28 -34,57 -52,85 8,-39 29,-75 50,-109z"/>
   <path class="fil4" d="M1211 4000c12,-42 31,-81 53,-119 -6,38 -24,73 -40,107 58,2 97,-47 148,-65 -41,44 -97,82 -161,77z"/>
   <path class="fil5" d="M2467 703c20,6 40,13 61,20 -26,34 -12,75 -2,112 -29,-13 -58,-25 -88,-34 -20,-15 -40,-30 -61,-44 26,-7 53,-14 79,-21 2,-8 8,-25 11,-33zm-12 75l0 0c13,12 29,21 44,30 -7,-24 -13,-48 -20,-71 -9,13 -23,24 -24,41z"/>
   <path class="fil3" d="M3826 1176c31,-43 67,-89 121,-103 -38,37 -77,73 -121,103z"/>
   <path class="fil6" d="M1137 1283c8,-70 66,-139 140,-144 -70,17 -130,82 -129,156 -1,42 53,50 71,81 4,46 -10,91 -4,137 60,37 141,38 202,3 35,-23 25,-67 29,-103 9,32 19,71 -7,97 -31,36 -82,39 -126,45 4,19 7,39 10,59 -8,-19 -13,-38 -17,-58 -35,-6 -73,-13 -99,-40 -17,-47 12,-97 -3,-143 -28,-25 -77,-44 -67,-90z"/>
   <path class="fil6" d="M2436 1376c30,45 63,91 73,146 -30,-45 -60,-93 -73,-146z"/>
   <path class="fil6" d="M1370 1684c42,16 80,43 108,78 -40,-20 -79,-44 -108,-78z"/>
   <path class="fil6" d="M3792 2100c9,-110 47,-223 127,-301 -60,91 -107,192 -117,301 -3,0 -7,0 -10,0z"/>
   <path class="fil6" d="M2367 2041c8,-8 17,-16 25,-24 9,8 17,16 26,24 -17,21 -35,22 -51,0z"/>
   <path class="fil6" d="M335 2236c-45,-36 -91,-85 -89,-146 21,54 53,101 89,146z"/>
   <path class="fil6" d="M2364 2281c53,84 105,168 155,253 -67,-67 -93,-163 -155,-233 -21,51 -40,104 -61,156 -3,1 -8,3 -11,4 25,-60 47,-120 72,-180z"/>
   <path class="fil6" d="M1310 2295c13,2 26,4 38,7 3,15 -8,26 -15,39 -6,-4 -18,-10 -24,-13 1,-9 1,-25 1,-33z"/>
   <path class="fil6" d="M1532 2951c28,-2 55,-4 82,-5 -24,7 -50,13 -75,18 38,38 79,73 129,95 45,19 95,23 142,35 -91,7 -179,-32 -249,-88 1,27 2,54 1,82 -15,-44 -23,-91 -30,-137z"/>
   <path class="fil6" d="M0 3126c54,-29 112,-49 170,-69 30,-2 60,-2 91,-1 -56,15 -116,18 -169,41 -31,11 -61,23 -92,29z"/>
   <path class="fil6" d="M877 3280c46,-2 93,-3 139,0 -44,20 -94,9 -139,0z"/>
   <path class="fil7" d="M4029 841c42,42 20,117 -17,155 4,-52 12,-103 17,-155z"/>
   <path class="fil8" d="M1359 870c36,37 52,89 65,138 -37,-37 -54,-88 -65,-138z"/>
   <path class="fil8" d="M1962 1822c8,-20 15,-39 23,-58 9,15 19,30 28,45 14,-4 42,-11 56,-14 -12,15 -25,31 -37,46 11,20 22,40 32,60 -23,-8 -46,-16 -69,-25 -16,15 -32,29 -48,43 2,-20 5,-40 8,-61 -14,-8 -28,-16 -42,-25 16,-4 33,-7 49,-11z"/>
   <path class="fil8" d="M1360 2593l11 2c20,-2 20,22 28,34 -7,6 -22,17 -29,23l-2 3 -2 5c-2,-23 -4,-45 -6,-67z"/>
   <path class="fil9" d="M1469 876c4,-1 13,-2 18,-2 5,49 8,98 -4,146 -9,-47 -11,-96 -14,-144z"/>
   <path class="fil9" d="M1543 1033c5,-51 32,-105 75,-133 -18,48 -47,90 -75,133z"/>
   <path class="fil9" d="M1580 1082c21,-37 66,-66 110,-61 -36,22 -72,43 -110,61z"/>
   <path class="fil9" d="M1257 2616c22,-2 45,11 56,30 -19,10 -38,20 -56,31 -6,-15 -12,-30 -16,-46 4,-4 12,-11 16,-15z"/>
   <path class="fil9" d="M1399 3757c13,-24 26,-48 40,-71 9,28 12,57 14,86 30,6 61,12 92,19 -26,23 -59,34 -91,47 0,33 0,66 -7,98 -16,-24 -32,-47 -47,-71 -23,8 -47,16 -70,23 11,-24 23,-48 36,-71 -14,-24 -29,-47 -43,-71 25,4 51,8 76,11z"/>
   <path class="fil10" d="M1360 1111c16,-72 113,-101 169,-56 52,38 77,136 15,177 -48,21 -108,23 -142,70 -20,-16 -40,-33 -60,-50 21,-45 11,-94 18,-141zm14 121l0 0c14,-35 20,-74 42,-105 6,28 30,31 53,31 10,38 -28,57 -49,82 28,-16 55,-34 81,-53 -12,-14 -23,-28 -35,-42 -17,-10 -34,-20 -51,-30 -35,28 -35,76 -41,117z"/>
   <path class="fil10" d="M1591 1131c39,-17 82,-24 125,-20 -30,32 -85,16 -125,20z"/>
   <path class="fil11 str0" d="M3102 3095c42,-3 85,-6 127,-5 19,7 39,13 58,20 -1,8 -2,22 -3,30 -56,15 -115,16 -170,32 -5,4 -14,12 -19,16 -40,-2 -80,-8 -119,-16 12,-30 27,-60 54,-78 24,1 48,2 72,1z"/>
   <path class="fil12" d="M3455 1072c10,0 28,0 37,0 0,9 0,28 0,37 -10,0 -28,1 -38,1 0,-9 1,-28 1,-38z"/>
   <path class="fil13" d="M3588 1120c30,-4 43,12 41,42 -10,0 -30,0 -40,0 0,-10 -1,-31 -1,-42z"/>
   <path class="fil14" d="M3447 1207c30,-35 62,52 20,49 -30,10 -41,-35 -20,-49z"/>
   <path class="fil15" d="M3566 1301c60,-101 215,-111 296,-29 -10,39 -10,83 -38,114 -61,66 -155,99 -243,78l-6 0c-26,-50 -42,-113 -9,-163z"/>
   <path class="fil15" d="M247 3564c68,-75 142,-145 220,-210 28,32 57,65 88,94l-3 6c-39,97 -136,154 -237,171 -22,-21 -46,-41 -68,-61z"/>
   <path class="fil16" d="M1293 1271c14,-11 30,-18 49,-19 20,17 40,34 60,50 2,14 4,29 5,43 -6,6 -19,17 -25,23 -34,-28 -75,-52 -89,-97z"/>
   <path class="fil17" d="M1315 1395c-53,-21 -36,-81 -22,-124 14,45 55,69 89,97 -18,17 -45,19 -67,27z"/>
   <path class="fil18" d="M3862 1272c16,37 29,79 10,118 -28,64 -98,90 -159,114 -28,49 -65,100 -128,104 35,-44 20,-99 -4,-144 88,21 182,-12 243,-78 28,-31 28,-75 38,-114z"/>
   <path class="fil18" d="M4081 2813c6,0 19,2 26,3 15,45 31,88 47,132 1,4 4,13 6,17 -7,-1 -20,-3 -26,-4 -18,-50 -36,-99 -53,-148z"/>
   <path class="fil19" d="M2570 1332c25,20 13,56 16,84 -4,33 6,70 -16,98 -11,-60 -12,-122 0,-182z"/>
   <path class="fil20" d="M710 1407c13,7 14,17 3,29 -15,10 -27,9 -36,-3 6,-14 18,-23 33,-26z"/>
   <path class="fil21" d="M3334 1552c17,-60 53,-118 108,-151 -14,62 -69,104 -108,151z"/>
   <path class="fil22" d="M2309 1454c50,10 97,44 121,90 -49,-16 -89,-50 -121,-90z"/>
   <path class="fil23" d="M135 1483c9,14 19,28 29,42 20,-3 40,-7 60,-10 -13,15 -26,31 -38,46 11,20 23,40 34,60 -24,-8 -47,-17 -71,-26 -16,15 -32,30 -49,46 3,-21 7,-42 10,-62 -15,-9 -30,-17 -44,-26 18,-5 36,-10 54,-14 5,-19 10,-38 15,-56z"/>
   <path class="fil24" d="M2573 1628c18,-75 89,-136 168,-128 32,72 64,143 93,215 -38,7 -78,11 -110,34 -24,17 -36,46 -51,70 -39,-9 -83,-30 -121,-8 -25,11 -35,38 -48,59 -44,-62 -91,-122 -138,-182 39,-74 134,-93 207,-60z"/>
   <path class="fil25" d="M3297 1618c22,49 17,105 22,157 -29,-47 -34,-104 -22,-157z"/>
   <path class="fil26" d="M3951 1686c13,1 26,2 39,3 1,13 2,26 3,39 -15,0 -29,1 -44,1 1,-15 1,-29 2,-43z"/>
   <path class="fil27" d="M2834 1715l7 -1c-6,13 -11,25 -17,38 -24,0 -49,-4 -72,3 -36,11 -48,53 -80,68 -31,4 -62,-5 -93,2 -28,10 -40,48 -75,45 13,-21 23,-48 48,-59 38,-22 82,-1 121,8 15,-24 27,-53 51,-70 32,-23 72,-27 110,-34z"/>
   <path class="fil27" d="M4441 2895c135,-4 269,-6 404,-11 -1,8 -1,24 -2,31 -128,35 -263,32 -394,15 0,18 0,36 0,54l-10 0c1,-29 2,-59 2,-89z"/>
   <path class="fil28" d="M4093 1774c-7,-23 -3,-60 29,-46 29,23 -2,46 -29,46z"/>
   <path class="fil29" d="M3514 1835c42,-28 75,-65 106,-104 4,47 8,97 -11,142 -17,50 -54,87 -89,124 51,-4 102,-16 148,-39 -28,49 -59,102 -112,128 -73,42 -157,6 -231,-14 11,29 20,59 28,90 -67,1 -131,-17 -195,-29 23,46 90,83 67,143 -33,23 -73,3 -106,-7 -75,-31 -163,-28 -229,-80 -9,71 52,126 58,195 10,42 -5,84 -24,120l-3 -4c-36,-60 -67,-125 -70,-196 -3,-54 30,-102 30,-156 48,28 107,50 161,24 53,-17 33,-84 48,-125 40,-8 81,13 120,2 13,-17 22,-37 31,-56 52,-21 108,-19 161,-32 54,-20 110,-64 112,-126z"/>
   <path class="fil29" d="M3644 2177c27,6 32,38 45,58 4,-6 11,-19 14,-26 9,64 4,129 -16,190 -4,13 -8,27 -12,40 -18,-27 -36,-55 -55,-81 -16,-24 -32,-47 -47,-72 15,-40 20,-98 71,-109z"/>
   <path class="fil30" d="M2816 1786c41,-9 89,-28 125,3 -53,10 -106,19 -159,29l9 -16c6,-4 19,-12 25,-16z"/>
   <path class="fil31" d="M3388 1866c44,4 87,-9 126,-31 -2,62 -58,106 -112,126 -53,13 -109,11 -161,32 -9,19 -18,39 -31,56 -39,11 -80,-10 -120,-2 -15,41 5,108 -48,125 -54,26 -113,4 -161,-24 -4,-72 24,-145 82,-190 117,-98 280,-97 425,-92z"/>
   <path class="fil32" d="M4083 1844c25,-19 68,2 58,35 -3,41 -80,29 -66,-14 2,-5 6,-16 8,-21z"/>
   <path class="fil33" d="M222 1857c18,4 7,37 9,51 -1,5 -5,47 -15,27 -4,-26 -7,-55 6,-78z"/>
   <path class="fil34" d="M3668 1958c26,-24 52,-47 78,-71 -1,74 -36,142 -84,196 17,41 33,82 41,126 -3,7 -10,20 -14,26 -13,-20 -18,-52 -45,-58 -51,11 -56,69 -71,109 -18,-35 -30,-73 -41,-110 -51,5 -101,-4 -146,-25 22,26 46,51 71,75 -61,20 -125,13 -183,-14 24,36 56,67 91,92 -52,21 -107,40 -164,36 -80,0 -147,-49 -224,-63 13,63 28,127 29,192 -5,28 -11,56 -17,84 -9,0 -27,1 -37,1 -9,-16 -19,-33 -28,-50 19,-36 34,-78 24,-120 -6,-69 -67,-124 -58,-195 66,52 154,49 229,80 33,10 73,30 106,7 23,-60 -44,-97 -67,-143 64,12 128,30 195,29 -8,-31 -17,-61 -28,-90 74,20 158,56 231,14 53,-26 84,-79 112,-128z"/>
   <path class="fil35" d="M3826 2098c-1,-64 28,-131 82,-167 -27,56 -53,112 -82,167z"/>
   <path class="fil36" d="M2502 2056c8,0 24,0 33,0 1,9 5,28 6,37 -11,0 -33,0 -43,1 1,-10 3,-29 4,-38z"/>
   <path class="fil37" d="M1806 2130c20,-3 47,-10 59,13 18,17 2,40 -3,59 -19,-4 -42,1 -54,-17 -2,-18 -2,-37 -2,-55zm19 18l0 0c-14,13 4,44 22,31 15,-13 -4,-44 -22,-31z"/>
   <path class="fil38" d="M2405 2159c-3,-32 36,-22 55,-18 0,12 -1,35 -1,47 -23,9 -63,6 -54,-29z"/>
   <path class="fil39" d="M2711 2126c31,44 49,96 67,146 -43,-35 -62,-92 -67,-146z"/>
   <path class="fil40 str1" d="M3457 2226c-25,-24 -49,-49 -71,-75 45,21 95,30 146,25 11,37 23,75 41,110 15,25 31,48 47,72 -60,-19 -88,-77 -107,-132 -52,11 -103,24 -153,40 14,13 29,25 44,37 -66,40 -142,62 -219,63 -56,3 -109,-18 -162,-35 1,47 -6,93 -17,138 -1,-65 -16,-129 -29,-192 77,14 144,63 224,63 57,4 112,-15 164,-36 -35,-25 -67,-56 -91,-92 58,27 122,34 183,14z"/>
   <path class="fil41" d="M2608 2147c65,49 114,115 170,174 -31,-5 -52,-29 -73,-50 -37,-38 -77,-74 -97,-124z"/>
   <path class="fil42" d="M631 2193c15,1 30,2 46,3 5,33 8,67 7,101 -36,-23 -34,-70 -53,-104z"/>
   <path class="fil42" d="M3265 2744c69,15 142,-3 195,-49 11,41 -27,69 -50,96 -32,0 -65,3 -96,-2 -23,-6 -34,-29 -49,-45z"/>
   <path class="fil43" d="M1721 2212c11,-18 24,-34 47,-27 21,16 22,52 4,70 -16,13 -38,9 -57,13 -5,-16 -10,-32 -14,-48 14,11 29,22 44,33 10,-15 33,-29 17,-49 -14,2 -28,5 -41,8z"/>
   <path class="fil44" d="M677 2196c41,10 64,45 57,88 -17,4 -34,8 -50,13 1,-34 -2,-68 -7,-101z"/>
   <path class="fil45" d="M3360 2266c50,-16 101,-29 153,-40 19,55 47,113 107,132 19,26 37,54 55,81 4,-13 8,-27 12,-40 29,1 63,-10 86,13 25,21 24,56 32,85l-7 8c-24,43 -67,65 -114,72 -1,6 -3,19 -4,25 -32,119 -136,198 -216,285 0,9 1,27 1,36 -7,39 -45,53 -77,69 -27,-15 -61,-25 -74,-57 -10,-14 -13,-36 -33,-40 -68,-25 -140,-43 -201,-83 -34,-21 -49,-59 -73,-88 -19,3 -37,9 -55,14 -36,-13 -85,-28 -87,-75 -10,-55 28,-114 87,-109 10,0 28,-1 37,-1 6,-28 12,-56 17,-84 11,-45 18,-91 17,-138 53,17 106,38 162,35 77,-1 153,-23 219,-63 -15,-12 -30,-24 -44,-37zm53 109l0 0c33,29 80,30 122,28 17,-2 26,-13 25,-30 -40,-38 -106,-32 -147,2zm-368 92l0 0c-20,19 -6,64 22,38 30,-24 71,-55 60,-99 -31,14 -64,31 -82,61zm403 106l0 0c28,52 113,45 133,-10l2 6c0,-36 1,-83 -39,-101 -61,-31 -127,46 -96,105zm-347 -24l0 0c-32,24 -31,74 -4,101 38,60 142,15 124,-54 -7,-55 -79,-80 -120,-47zm248 165l0 0c-33,8 -69,8 -98,28l14 2c15,16 26,39 49,45 31,5 64,2 96,2 23,-27 61,-55 50,-96 0,-8 -1,-24 -2,-32 -34,21 -69,43 -109,51zm-35 188l0 0c20,59 138,54 144,-14 -47,12 -95,17 -144,14z"/>
   <path class="fil46" d="M1817 2323c1,-36 2,-96 54,-87l3 8c0,5 -2,16 -3,22 -13,-17 -38,-6 -37,15 -6,25 25,25 34,8 1,6 3,19 5,26 -19,2 -38,5 -56,8z"/>
   <path class="fil47" d="M1215 2252c22,-6 29,1 21,23 -22,6 -29,-2 -21,-23z"/>
   <path class="fil48" d="M684 2297c16,-5 33,-9 50,-13 17,81 113,124 108,213 -70,-26 -84,-104 -112,-164 -8,-20 -30,-26 -46,-36z"/>
   <path class="fil49" d="M2128 2268c42,22 83,46 120,76 -11,16 -32,21 -47,31 39,69 77,139 121,206 17,-53 35,-104 56,-155 46,60 88,124 133,186 13,16 18,35 15,56 -56,-59 -92,-132 -145,-193 -19,51 -36,103 -56,154 -55,-77 -95,-164 -147,-243 -17,10 -35,20 -52,29 1,-49 2,-98 2,-147z"/>
   <path class="fil50" d="M485 2298c86,-29 185,18 229,95 -27,6 -54,13 -81,19 4,-27 6,-54 8,-81 -26,0 -52,-1 -78,-1 -2,7 -5,20 -7,26 1,7 2,21 2,28 2,6 5,17 6,23 8,1 23,3 31,4 -20,37 -38,75 -66,106 -10,-40 -61,-73 -91,-32l14 8c-3,7 -11,21 -15,29 -1,2 -3,7 -4,9 -11,-40 -24,-79 -39,-118 -1,-51 43,-99 91,-115zm3 41l0 0c-20,9 -38,27 -39,50 1,37 56,65 78,28 33,-29 -2,-79 -39,-78z"/>
   <path class="fil51" d="M1178 2333c12,-3 23,-8 35,-6 7,13 11,27 11,43 -14,-2 -29,-4 -43,-6 -1,-8 -2,-23 -3,-31z"/>
   <path class="fil51" d="M3395 4229c3,27 7,54 12,81 5,0 16,1 21,2 10,0 30,2 40,2 -1,-22 -1,-44 -2,-66 138,9 276,3 414,6 0,-6 0,-19 1,-26 11,29 23,58 35,87 21,-1 41,-2 62,-3 -4,-18 -9,-36 -13,-54 159,-5 318,12 478,9 7,15 14,30 21,45 7,0 21,1 28,1 12,0 35,0 47,0 -3,-10 -9,-32 -12,-42 129,9 258,15 386,28 31,3 60,16 87,31 -88,27 -181,28 -272,36 -128,10 -256,14 -384,16 -305,18 -611,6 -916,18 -248,-3 -496,1 -744,-10 -190,-4 -381,-4 -571,-20 -114,-9 -230,-8 -341,-40 20,-16 45,-25 71,-28 130,-18 262,-21 393,-30 -3,10 -10,31 -13,42 11,0 33,0 44,1 31,3 44,-23 54,-47 157,-3 314,-9 470,-13 -5,19 -10,39 -15,59 10,0 32,-1 42,-2 6,-1 17,-2 22,-2 8,-19 16,-38 23,-57 174,0 348,1 521,-3 3,-5 8,-16 11,-21z"/>
   <path class="fil52" d="M563 2330c26,0 52,1 78,1 -2,27 -4,54 -8,81 -9,0 -28,-1 -38,-1 -8,-1 -23,-3 -31,-4 -1,-6 -4,-17 -6,-23 18,5 36,23 56,14 9,-17 10,-37 14,-56 -24,3 -48,8 -72,14 2,-6 5,-19 7,-26z"/>
   <path class="fil53" d="M556 2356c24,-6 48,-11 72,-14 -4,19 -5,39 -14,56 -20,9 -38,-9 -56,-14 0,-7 -1,-21 -2,-28z"/>
   <path class="fil54" d="M3413 2375c41,-34 107,-40 147,-2 1,17 -8,28 -25,30 -42,2 -89,1 -122,-28z"/>
   <path class="fil55" d="M494 2426c-48,-7 -36,-65 1,-80 15,16 27,33 38,52 -10,13 -23,23 -39,28z"/>
   <path class="fil56" d="M1655 2482c19,-36 39,-75 74,-99 -5,44 -35,80 -74,99z"/>
   <path class="fil57" d="M633 2412c27,-6 54,-13 81,-19 5,27 10,58 -12,80 -30,37 -82,20 -122,21 -10,29 -12,64 -32,89 -41,27 -106,17 -132,-25 -33,-45 -33,-102 -25,-154l3 9c15,39 28,78 39,118 1,-2 3,-7 4,-9 24,9 49,19 75,12 4,-5 13,-13 17,-17 28,-31 46,-69 66,-106 10,0 29,1 38,1z"/>
   <path class="fil58" d="M3045 2467c18,-30 51,-47 82,-61 11,44 -30,75 -60,99 -28,26 -42,-19 -22,-38z"/>
   <path class="fil59" d="M3210 2982c23,33 51,62 81,91 -1,9 -3,28 -4,37 -19,-7 -39,-13 -58,-20 -42,-1 -85,2 -127,5 -24,1 -48,0 -72,-1 28,-24 58,-45 90,-63 30,-16 60,-32 90,-49z"/>
   <path class="fil60" d="M438 2485c30,-41 81,-8 91,32 -4,4 -13,12 -17,17 3,-38 -33,-38 -60,-41l-14 -8z"/>
   <path class="fil61" d="M3448 2573c-31,-59 35,-136 96,-105 40,18 39,65 39,101l-2 -6c-4,-36 -31,-74 -72,-66 -40,2 -52,44 -61,76z"/>
   <path class="fil62" d="M452 2493c27,3 63,3 60,41 -26,7 -51,-3 -75,-12 4,-8 12,-22 15,-29z"/>
   <path class="fil63 str2" d="M2921 2500l3 4c9,17 19,34 28,50 -59,-5 -97,54 -87,109 2,47 51,62 87,75 -48,81 -92,165 -101,260 -19,66 -28,135 -33,204 -13,0 -26,0 -39,0 -10,-48 -23,-96 -33,-144 -17,-91 -25,-186 -3,-276 26,-112 96,-205 178,-282z"/>
   <path class="fil64" d="M3448 2573c9,-32 21,-74 61,-76 41,-8 68,30 72,66 -20,55 -105,62 -133,10zm40 -10l0 0c-13,23 9,46 32,31 15,-22 -12,-52 -32,-31z"/>
   <path class="fil65 str2" d="M3684 2577c47,-7 90,-29 114,-72 145,118 193,311 202,489 1,58 1,116 -11,174 -2,3 -7,10 -10,13 -16,-80 -49,-155 -58,-237 -7,-15 -13,-29 -20,-44 -52,-111 -111,-233 -221,-298 1,-6 3,-19 4,-25z"/>
   <path class="fil66" d="M1432 2520c14,24 26,49 38,74 -17,7 -34,13 -50,20l-4 1c-9,-33 4,-65 16,-95z"/>
   <path class="fil67" d="M3101 2549c41,-33 113,-8 120,47 -26,-21 -61,-43 -94,-22 -29,14 -29,49 -30,76 -27,-27 -28,-77 4,-101z"/>
   <path class="fil68" d="M1360 2593c-22,-26 36,-20 11,2l-11 -2z"/>
   <path class="fil69" d="M3127 2574c33,-21 68,1 94,22 18,69 -86,114 -124,54 1,-27 1,-62 30,-76zm43 43l0 0c-24,10 -5,52 17,37 30,-3 7,-56 -17,-37z"/>
   <path class="fil70" d="M1113 2601c31,-5 71,-13 89,22 -31,-1 -62,-8 -89,-22z"/>
   <path class="fil71" d="M1241 2631c-42,-8 9,-56 16,-15 -4,4 -12,11 -16,15z"/>
   <path class="fil71" d="M900 3000c15,10 30,20 45,30 16,-11 33,-21 50,-32 -7,19 -13,39 -19,58 18,15 35,29 53,44 -26,1 -51,2 -77,3 -10,19 -19,38 -29,56 -4,-20 -8,-41 -13,-61 -11,-1 -35,-3 -47,-4 14,-12 28,-25 42,-37 -2,-19 -3,-38 -5,-57z"/>
   <path class="fil72" d="M1420 2614c16,-7 33,-13 50,-20 4,27 8,54 14,81l-6 4c-19,9 -39,18 -59,26 -1,-31 -1,-61 1,-91z"/>
   <path class="fil73" d="M727 2607c4,1 13,1 18,2 9,4 39,23 16,30 -20,4 -34,-14 -34,-32z"/>
   <path class="fil74" d="M1416 2615l4 -1c-2,30 -2,60 -1,91 -12,4 -24,9 -36,13 -4,-5 -14,-14 -19,-19 1,-11 3,-33 4,-44l2 -3c7,-6 22,-17 29,-23 4,-3 13,-10 17,-14z"/>
   <path class="fil75" d="M3680 2602c110,65 169,187 221,298 7,15 13,29 20,44 9,82 42,157 58,237 3,-3 8,-10 10,-13l6 -7c-1,10 -1,31 -1,41 -87,3 -173,-1 -260,3 0,-5 0,-17 0,-23l-1 -11c24,-10 46,-24 66,-39 -18,-25 -37,-50 -57,-73 -23,-25 -48,-48 -75,-69 -62,-35 -130,-60 -202,-67 0,-9 -1,-27 -1,-36 80,-87 184,-166 216,-285z"/>
   <path class="fil76" d="M861 2646c39,-26 86,-28 131,-23 -36,31 -87,25 -131,23z"/>
   <path class="fil77" d="M1257 2677c18,-11 37,-21 56,-31l4 -2c15,19 30,38 47,55 5,5 15,14 19,19 -23,7 -46,14 -69,21 -19,-22 -37,-43 -57,-62z"/>
   <path class="fil78" d="M1685 2646c22,3 50,4 56,31 -7,13 -19,39 -38,28 -31,-3 -22,-38 -18,-59z"/>
   <path class="fil79" d="M2648 2656c18,-18 47,11 29,28 -18,21 -50,-11 -29,-28z"/>
   <path class="fil80" d="M3349 2714c40,-8 75,-30 109,-51 1,8 2,24 2,32 -53,46 -126,64 -195,49l-14 -2c29,-20 65,-20 98,-28z"/>
   <path class="fil81" d="M1419 2705c20,-8 40,-17 59,-26 12,55 29,117 1,171 -19,42 -63,60 -102,80 -37,-57 -62,-121 -87,-184 6,-2 18,-5 24,-7 23,-7 46,-14 69,-21 12,-4 24,-9 36,-13z"/>
   <path class="fil82" d="M1478 2679l6 -4c34,68 63,140 74,215 -2,5 -5,14 -7,19 -46,22 -95,36 -143,53 -10,-10 -20,-21 -31,-32 39,-20 83,-38 102,-80 28,-54 11,-116 -1,-171z"/>
   <path class="fil83" d="M4238 2970c21,-72 8,-156 54,-219 6,74 -18,146 -27,219 -6,0 -20,0 -27,0z"/>
   <path class="fil83 str3" d="M3180 3597c132,-76 302,-88 443,-28 27,14 65,28 66,64 2,90 -29,177 -46,265 -6,21 1,43 8,63 -10,-2 -28,-5 -37,-7 10,-59 13,-118 25,-176 8,-45 17,-94 -2,-138 -127,-62 -280,-63 -411,-11 -16,8 -24,25 -34,38 -1,47 7,94 16,139 9,49 12,99 20,148 -17,2 -34,5 -50,7 7,-9 15,-18 22,-27 -17,-79 -56,-154 -61,-235 -1,-37 5,-82 41,-102z"/>
   <path class="fil84" d="M1639 2770c21,-7 28,0 22,22 -22,8 -29,0 -22,-22z"/>
   <path class="fil85" d="M1817 2771c157,-2 313,1 470,-1 34,0 70,-2 104,4 47,101 79,209 119,313 -205,-1 -421,-49 -578,-186 -30,-26 -52,-64 -92,-74 -8,-18 -16,-37 -23,-56z"/>
   <path class="fil86" d="M2597 2792c42,-26 66,54 21,56 -35,11 -47,-45 -21,-56z"/>
   <path class="fil87" d="M1742 2863c-24,-31 12,-50 41,-42 2,25 -9,58 -41,42z"/>
   <path class="fil88" d="M1840 2827c40,10 62,48 92,74 157,137 373,185 578,186 2,8 8,23 11,31 2,7 8,21 11,27 -186,1 -371,0 -556,1 -44,-107 -94,-211 -136,-319z"/>
   <path class="fil89" d="M4154 2948c1,-36 -15,-80 14,-109 10,43 16,86 23,130 -8,-1 -23,-3 -31,-4 -2,-4 -5,-13 -6,-17z"/>
   <path class="fil90" d="M3314 2902c49,3 97,-2 144,-14 -6,68 -124,73 -144,14z"/>
   <path class="fil91" d="M4449 2930c131,17 266,20 394,-15 0,19 0,37 0,55 -131,5 -263,9 -394,14 0,-18 0,-36 0,-54z"/>
   <path class="fil92" d="M3203 2932c7,1 22,3 29,4 5,5 13,16 18,22 28,36 56,72 82,110 -10,1 -31,3 -41,5 -30,-29 -58,-58 -81,-91 -3,-17 -5,-33 -7,-50z"/>
   <path class="fil93" d="M3388 2992c32,-16 70,-30 77,-69 72,7 140,32 202,67 27,21 52,44 75,69 -114,2 -226,28 -331,74l-6 2c-7,-6 -21,-18 -28,-24 -1,-9 -3,-27 -5,-36 -13,-3 -26,-5 -40,-7 -26,-38 -54,-74 -82,-110 21,-8 42,-15 64,-23 13,32 47,42 74,57z"/>
   <path class="fil94" d="M3120 3031c-32,18 -62,39 -90,63 -27,18 -42,48 -54,78 39,8 79,14 119,16l-12 11c-86,8 -177,-1 -265,3 5,-69 14,-138 33,-204 9,-95 53,-179 101,-260 18,-5 36,-11 55,-14 24,29 39,67 73,88 61,40 133,58 201,83 20,4 23,26 33,40 -22,8 -43,15 -64,23 -5,-6 -13,-17 -18,-22 -7,-1 -22,-3 -29,-4 2,17 4,33 7,50 -30,17 -60,33 -90,49z"/>
   <path class="fil95" d="M4134 2961c6,1 19,3 26,4 8,1 23,3 31,4 15,1 31,1 47,1 7,0 21,0 27,0l27 -1c1,11 1,32 1,43 -49,20 -102,18 -152,2 0,38 0,77 2,115l-9 -5c-2,-1 -4,-4 -6,-5 3,-52 9,-105 6,-158z"/>
   <path class="fil96" d="M4292 2969c19,77 3,157 12,234 49,0 98,0 147,0 114,0 227,-1 341,0 1,23 1,46 2,69 -180,1 -361,0 -541,0 -118,-1 -236,0 -353,1 -36,0 -72,1 -108,0 -60,-1 -120,-1 -180,0 -142,0 -284,-1 -426,0 -106,-2 -211,-1 -317,0l-8 -1c-117,0 -234,0 -352,0 -128,2 -256,-2 -385,2 -53,0 -106,-2 -160,-2 3,-23 5,-46 8,-69 246,-1 492,-1 738,0 23,0 46,0 69,-1 13,0 26,0 39,0 88,-4 179,5 265,-3 83,14 168,7 251,8 134,-1 267,3 400,-2 87,-4 173,0 260,-3 46,-1 93,-2 140,-1 53,1 105,2 158,0 1,-24 3,-49 4,-74 1,-38 -1,-76 -3,-115 0,-11 0,-32 -1,-43z"/>
   <path class="fil97 str2" d="M4449 2984c131,-5 263,-9 394,-14 1,31 7,63 13,94l-17 1c-1,-10 -3,-29 -4,-39 -150,26 -305,35 -456,11 0,-17 1,-34 2,-51 19,-1 39,-1 58,-2l10 0z"/>
   <path class="fil98" d="M4141 3014c50,16 103,18 152,-2 2,39 4,77 3,115 -49,24 -104,24 -153,2 -2,-38 -2,-77 -2,-115z"/>
   <path class="fil99" d="M4379 3037c151,24 306,15 456,-11 1,10 3,29 4,39 -133,10 -265,14 -398,21 -21,0 -42,1 -63,1 0,-17 0,-34 1,-50z"/>
   <path class="fil100" d="M3291 3073c10,-2 31,-4 41,-5 14,2 27,4 40,7 2,9 4,27 5,36 7,6 21,18 28,24 -40,2 -81,0 -121,5 1,-8 2,-22 3,-30 1,-9 3,-28 4,-37z"/>
   <path class="fil101 str0" d="M3411 3133c105,-46 217,-72 331,-74 20,23 39,48 57,73 -20,15 -42,29 -66,39 -106,-5 -211,-57 -317,-21 -1,-4 -4,-13 -5,-17z"/>
   <path class="fil102 str4" d="M4441 3086c133,-7 265,-11 398,-21l17 -1c4,26 6,53 7,80 -89,36 -186,32 -280,34 -46,1 -92,-8 -136,-22 -2,-23 -4,-47 -6,-70z"/>
   <path class="fil103" d="M380 3072c56,4 118,26 149,76 -54,-16 -101,-48 -149,-76z"/>
   <path class="fil104" d="M3995 3161c19,-25 34,-61 70,-65 25,-10 44,11 63,23 2,1 4,4 6,5 0,25 0,51 0,77 -47,-1 -94,0 -140,1 0,-10 0,-31 1,-41z"/>
   <path class="fil105" d="M3405 3135l6 -2c1,4 4,13 5,17 106,-36 211,16 317,21l1 11c-191,0 -381,2 -572,0 -28,-2 -54,7 -79,17l12 -11c5,-4 14,-12 19,-16 55,-16 114,-17 170,-32 40,-5 81,-3 121,-5z"/>
   <path class="fil106" d="M4134 3124l9 5c49,22 104,22 153,-2 -1,25 -3,50 -4,74 -53,2 -105,1 -158,0 0,-26 0,-52 0,-77z"/>
   <path class="fil107" d="M1976 3146c185,-1 370,0 556,-1 58,3 117,2 176,2 1,18 1,37 2,56 -246,-1 -492,-1 -738,0 1,-19 3,-38 4,-57z"/>
   <path class="fil108" d="M4583 3178c94,-2 191,2 280,-34 0,20 -1,40 -1,59 -24,0 -47,0 -70,0 -114,-1 -227,0 -341,0 -1,-16 -3,-31 -4,-47 44,14 90,23 136,22z"/>
   <path class="fil109" d="M1735 3181c38,-18 80,-27 123,-28 -33,33 -81,29 -123,28z"/>
   <path class="fil110" d="M3083 3199c25,-10 51,-19 79,-17 191,2 381,0 572,0 0,6 0,18 0,23 -133,5 -266,1 -400,2 -83,-1 -168,6 -251,-8z"/>
   <path class="fil111" d="M598 3198c49,-8 100,11 136,43 -49,0 -92,-24 -136,-43z"/>
   <path class="fil112" d="M1488 3229c40,-13 83,-23 126,-19 -36,26 -85,36 -126,19z"/>
   <path class="fil113" d="M343 3336c32,-24 59,-59 101,-62 -42,48 -98,81 -144,124 -44,34 -76,82 -126,106 43,-68 110,-116 169,-168z"/>
   <path class="fil114" d="M2509 3272c118,0 235,0 352,0 -1,21 -2,42 -3,64 -37,-1 -74,-1 -111,-2 -12,22 -23,43 -34,65 -22,-2 -44,-5 -66,-7 -3,-17 -5,-34 -7,-52 -42,-6 -85,-10 -127,-13 -2,-18 -3,-36 -4,-55z"/>
   <path class="fil115" d="M2861 3272l8 1c0,9 0,29 0,39 -3,60 25,114 67,155 20,27 42,51 64,76 1,5 2,16 3,21 -6,-2 -18,-5 -23,-7 -3,9 -8,25 -10,33 -11,-18 -22,-36 -35,-52 -60,-12 -134,22 -180,-33 -5,18 -10,37 -15,56 -20,-33 -37,-69 -52,-105 8,-19 16,-38 25,-57 11,-22 22,-43 34,-65 37,1 74,1 111,2 1,-22 2,-43 3,-64z"/>
   <path class="fil116" d="M2869 3273c106,-1 211,-2 317,0 2,8 6,24 7,32 4,16 8,32 13,48 -115,10 -227,-11 -337,-41 0,-10 0,-30 0,-39z"/>
   <path class="fil117" d="M3186 3273c142,-1 284,0 426,0 -1,12 -2,35 -2,47l-2 -4c-2,-5 -7,-16 -9,-21 -122,74 -276,52 -406,10 -1,-8 -5,-24 -7,-32z"/>
   <path class="fil118" d="M3612 3273c60,-1 120,-1 180,0 -54,34 -118,49 -182,47 0,-12 1,-35 2,-47z"/>
   <path class="fil119 str5" d="M3792 3273c36,1 72,0 108,0 2,20 4,41 6,61 8,0 25,1 32,1 -12,43 -28,86 -56,122 -38,-9 -77,-16 -117,-16 -43,-23 -87,-45 -134,-58 -9,-3 -26,-8 -35,-10 4,-19 9,-38 12,-57l2 4c64,2 128,-13 182,-47z"/>
   <path class="fil120" d="M3900 3273c117,-1 235,-2 353,-1 0,21 0,41 1,61 -24,1 -48,1 -72,1 -24,2 -49,0 -73,9 0,17 0,34 1,51 -20,1 -40,2 -59,3 -11,-20 -17,-48 -38,-59 -25,-3 -50,-3 -75,-3 -7,0 -24,-1 -32,-1 -2,-20 -4,-41 -6,-61z"/>
   <path class="fil121 str6" d="M3193 3305c130,42 284,64 406,-10 2,5 7,16 9,21 -3,19 -8,38 -12,57 -70,45 -156,44 -236,41 -47,-1 -93,-16 -134,-37 -7,-8 -14,-16 -20,-24 -5,-16 -9,-32 -13,-48z"/>
   <path class="fil122 str5" d="M2869 3312c110,30 222,51 337,41 6,8 13,16 20,24 -9,3 -26,8 -34,11 -49,17 -96,42 -139,71 -39,1 -78,3 -117,8 -42,-41 -70,-95 -67,-155z"/>
   <path class="fil123" d="M2513 3327c42,3 85,7 127,13 2,18 4,35 7,52 22,2 44,5 66,7 -9,19 -17,38 -25,57 -121,271 -247,540 -367,812 -10,24 -23,50 -54,47 61,-189 145,-369 216,-554 50,-120 98,-242 146,-363 -23,-2 -45,-4 -68,-6 7,-18 13,-37 19,-55 -22,-1 -44,-1 -66,-2l-1 -8z"/>
   <path class="fil124 str7" d="M3938 3335c25,0 50,0 75,3 21,11 27,39 38,59 8,22 16,44 25,65 -36,27 -66,60 -93,96 -48,-6 -97,-9 -145,-11 -3,-14 -5,-27 -9,-40 18,-17 36,-33 53,-50 28,-36 44,-79 56,-122z"/>
   <path class="fil125" d="M4109 3343c24,-9 49,-7 73,-9 7,20 13,39 20,58 -26,3 -53,6 -79,9 120,306 245,608 369,912 -7,0 -21,-1 -28,-1 -7,-15 -14,-30 -21,-45 -121,-269 -242,-538 -367,-805 -9,-21 -17,-43 -25,-65 19,-1 39,-2 59,-3 -1,-17 -1,-34 -1,-51z"/>
   <path class="fil126" d="M513 3358c61,28 106,80 147,131 -59,-29 -110,-77 -147,-131z"/>
   <path class="fil127 str3" d="M3360 3414c80,3 166,4 236,-41 9,2 26,7 35,10 -83,65 -193,84 -295,70 -52,-11 -98,-40 -144,-65 8,-3 25,-8 34,-11 41,21 87,36 134,37z"/>
   <path class="fil128" d="M3631 3383c47,13 91,35 134,58 24,20 45,42 64,66 4,13 6,26 9,40l1 12c-24,19 -48,38 -67,62 4,26 27,42 42,62 -2,6 -6,17 -8,23 -13,32 -27,63 -42,94 -9,18 -19,36 -28,54 -21,38 -42,75 -64,112l-21 -5c-7,-20 -14,-42 -8,-63 17,-88 48,-175 46,-265 -1,-36 -39,-50 -66,-64 -141,-60 -311,-48 -443,28 -36,20 -42,65 -41,102 5,81 44,156 61,235 -7,9 -15,18 -22,27l-4 4c-45,-56 -73,-124 -107,-187 -8,-16 -14,-32 -21,-49 13,-20 49,-38 31,-65 -12,-29 -42,-42 -68,-54 -2,-15 -4,-31 -6,-46 -1,-5 -2,-16 -3,-21 11,-31 29,-61 53,-84 43,-29 90,-54 139,-71 46,25 92,54 144,65 102,14 212,-5 295,-70z"/>
   <path class="fil129" d="M2561 3392c23,2 45,4 68,6 -48,121 -96,243 -146,363 -71,185 -155,365 -216,554 -11,-1 -33,-1 -44,-1 3,-11 10,-32 13,-42 108,-294 218,-586 325,-880z"/>
   <path class="fil130" d="M4123 3401c26,-3 53,-6 79,-9 108,293 218,585 325,879 3,10 9,32 12,42 -12,0 -35,0 -47,0 -124,-304 -249,-606 -369,-912z"/>
   <path class="fil131" d="M3765 3441c40,0 79,7 117,16 -17,17 -35,33 -53,50 -19,-24 -40,-46 -64,-66z"/>
   <path class="fil132" d="M315 3625c101,-17 198,-74 237,-171 31,31 59,64 86,98 -30,-7 -60,-18 -90,-27 -66,37 -112,102 -174,147 -21,-14 -40,-31 -59,-47z"/>
   <path class="fil133" d="M2936 3467c39,-5 78,-7 117,-8 -24,23 -42,53 -53,84 -22,-25 -44,-49 -64,-76z"/>
   <path class="fil134 str7" d="M3983 3558c27,-36 57,-69 93,-96 -62,104 -150,207 -270,244 2,-6 6,-17 8,-23 12,-40 22,-82 25,-124l-1 -12c48,2 97,5 145,11z"/>
   <path class="fil135 str7" d="M2755 3505c46,55 120,21 180,33 13,16 24,34 35,52 2,-8 7,-24 10,-33 5,2 17,5 23,7 2,15 4,31 6,46 9,41 22,81 37,119 7,17 13,33 21,49 -4,-1 -12,-4 -16,-6 -37,-12 -75,-24 -111,-40 -79,-39 -149,-98 -200,-171 5,-19 10,-38 15,-56z"/>
   <path class="fil136 str3" d="M3772 3621c19,-24 43,-43 67,-62 -3,42 -13,84 -25,124 -15,-20 -38,-36 -42,-62z"/>
   <path class="fil137" d="M3226 3629c131,-52 284,-51 411,11 -142,47 -298,60 -445,27 10,-13 18,-30 34,-38z"/>
   <path class="fil138 str3" d="M3009 3610c26,12 56,25 68,54 18,27 -18,45 -31,65 -15,-38 -28,-78 -37,-119z"/>
   <path class="fil139" d="M174 3629c52,23 97,61 139,100 -59,-7 -103,-56 -139,-100z"/>
   <path class="fil140" d="M3192 3667c147,33 303,20 445,-27 19,44 10,93 2,138 -62,9 -124,21 -186,27l-8 1c-35,3 -71,4 -107,4 -43,0 -87,-1 -130,-4 -9,-45 -17,-92 -16,-139z"/>
   <path class="fil141" d="M1209 3710c38,-1 94,-29 118,14 -30,2 -60,3 -90,4 16,34 34,68 42,106 -32,-36 -51,-80 -70,-124z"/>
   <path class="fil142" d="M3764 3800c15,-31 29,-62 42,-94 57,183 105,368 159,552 4,18 9,36 13,54 -21,1 -41,2 -62,3 -12,-29 -24,-58 -35,-87 -13,-35 -27,-70 -39,-106 3,-16 7,-33 9,-49 -3,-19 -7,-37 -12,-55 -19,-74 -46,-146 -75,-218z"/>
   <path class="fil143" d="M2940 3732c36,16 74,28 111,40 -63,160 -126,321 -188,481 -7,19 -15,38 -23,57 -5,0 -16,1 -22,2 36,-108 69,-217 101,-325 20,-66 52,-130 56,-200 -16,-3 -32,-7 -48,-11 5,-14 9,-29 13,-44z"/>
   <path class="fil144" d="M2927 3776c16,4 32,8 48,11 -4,70 -36,134 -56,200 -32,108 -65,217 -101,325 -10,1 -32,2 -42,2 5,-20 10,-40 15,-59 45,-160 90,-319 136,-479z"/>
   <path class="fil145" d="M3338 3810c36,0 72,-1 107,-4 -2,15 -4,31 -6,46 -17,3 -34,6 -51,9 13,150 28,300 40,451 -5,-1 -16,-2 -21,-2 -5,-27 -9,-54 -12,-81 -18,-140 -38,-279 -57,-419z"/>
   <path class="fil146" d="M3445 3806l8 -1c0,148 10,295 13,443 1,22 1,44 2,66 -10,0 -30,-2 -40,-2 -12,-151 -27,-301 -40,-451 17,-3 34,-6 51,-9 2,-15 4,-31 6,-46z"/>
   <path class="fil147" d="M3764 3800c29,72 56,144 75,218 -17,-11 -34,-23 -52,-34 -17,-43 -34,-87 -51,-130 9,-18 19,-36 28,-54z"/>
   <path class="fil148" d="M3174 3965l4 -4c16,-2 33,-5 50,-7 8,22 17,43 25,64 -75,45 -162,71 -249,54 -3,12 -7,36 -9,48 -8,-42 -5,-91 32,-118 39,-34 92,-21 135,-4 3,-8 9,-25 12,-33z"/>
   <path class="fil148" d="M3614 3954c9,2 27,5 37,7l21 5c2,11 4,22 6,33 34,-14 72,-23 109,-15 18,11 35,23 52,34 5,18 9,36 12,55 -47,5 -96,12 -144,0 -43,-9 -79,-37 -116,-61 8,-19 16,-39 23,-58z"/>
   <path class="fil149" d="M3004 4072c87,17 174,-9 249,-54 6,14 11,27 17,41 -91,23 -181,54 -275,61 2,-12 6,-36 9,-48z"/>
   <path class="fil150" d="M3573 4059c6,-16 12,-31 18,-47 37,24 73,52 116,61 48,12 97,5 144,0 -2,16 -6,33 -9,49 -92,-13 -180,-39 -269,-63z"/>
   <g>
    <path class="fil151" d="M689 1844c-87,-117 -176,-132 -232,-101 -41,73 -6,192 181,234 11,2 20,5 29,7 81,-2 159,63 159,63l-43 44c0,0 -12,-10 -31,-22 -4,11 -12,22 -22,32l-43 44c-81,80 -322,129 -164,-66l11 -12 44 -44c2,-2 4,-4 6,-5 -201,-50 -217,-192 -152,-256l43 -43c52,-52 156,-54 257,81l-43 44zm-133 205c-124,162 54,138 148,74 19,-34 4,-71 -80,-95 -23,0 -46,6 -68,21z"/>
   </g>
   <path class="fil152" d="M710 1822c-229,-308 -471,93 -94,177 381,84 -314,356 -71,58 99,-122 259,12 260,12"/>
   <g>
    <path class="fil151" d="M826 1930c7,17 39,178 33,184l-43 44c-1,1 -4,-5 -10,-20l8 -8c-6,-48 -26,-144 -31,-157l43 -43z"/>
   </g>
   <path class="fil152" d="M805 1952c7,20 54,252 23,164"/>
   <g>
    <path class="fil151" d="M877 2056c0,-76 18,-132 41,-155l43 -43c31,-32 72,0 88,131 1,8 9,24 13,23l-44 44c-4,0 -12,-16 -13,-24 -12,-100 -38,-142 -64,-142 -12,29 -21,71 -21,122l-43 44z"/>
   </g>
   <path class="fil152" d="M899 2034c0,-178 100,-251 128,-24 1,8 9,25 13,24"/>
   <g>
    <path class="fil151" d="M1189 1879c-40,1 -70,6 -91,15 -6,38 41,82 78,84 3,-16 2,-36 -3,-62 -3,-10 -4,-17 -4,-17l20 -20zm27 -7c6,29 21,87 34,105l-44 43c-5,-7 -10,-21 -16,-37l-28 28c-41,41 -146,-48 -94,-99l43 -43c19,-19 57,-33 127,-33l-24 24c0,3 1,6 2,10l0 2z"/>
   </g>
   <path class="fil152" d="M1216 1857c-329,4 31,295 -22,35 -12,-58 13,78 34,107"/>
   <g>
    <path class="fil151" d="M1306 1809c4,52 13,135 86,107 10,-41 -23,-93 -24,-93l44 -43c1,0 50,78 9,119l-44 44c-4,4 -10,8 -17,12 -83,40 -93,-48 -98,-102l44 -44z"/>
   </g>
   <path class="fil152" d="M1284 1831c4,54 14,143 98,102 70,-34 9,-131 8,-131"/>
   <path class="fil3" d="M1322 1053c9,-2 12,1 9,9 -9,3 -12,0 -9,-9z"/>
   <g>
    <path class="fil151" d="M1629 1423c24,93 32,160 28,163l-36 21c-5,2 -21,-56 -47,-210 -3,-14 -4,-26 -6,-36 -1,-3 -2,-7 -3,-11l2 -1c-1,-11 0,-17 2,-18l36 -21c11,-6 64,132 115,140 15,-22 29,-64 40,-134 5,-28 7,-40 9,-41l37 -21c6,-4 4,102 20,167 3,15 20,98 20,113l-37 20c0,-14 -16,-97 -20,-112 -4,-20 -7,-44 -10,-67 -12,42 -25,64 -40,72l-36 21c-25,14 -51,-12 -74,-45z"/>
   </g>
   <path class="fil152" d="M1583 1340c79,242 70,408 9,47 -43,-255 119,340 186,-82 19,-115 10,42 29,127 4,15 21,98 21,112"/>
   <g>
    <path class="fil151" d="M1954 1398c-18,-3 -32,-4 -44,-2 -26,40 11,120 50,127 9,-14 16,-35 21,-65 2,-13 2,-26 1,-38 -4,-15 -7,-26 -9,-33l-19 11zm64 1c7,22 17,54 32,98l-36 21c-4,-10 -7,-20 -10,-30 -7,17 -16,27 -24,32l-36 21c-50,28 -115,-103 -55,-138l36 -21c11,-6 26,-9 46,-7 0,-1 1,-2 1,-2l36 -21c1,0 8,20 10,47z"/>
   </g>
   <path class="fil152" d="M1972 1388c-196,-39 -12,299 27,60 12,-77 -46,-169 33,60"/>
   <g>
    <path class="fil151" d="M2122 1245c3,14 30,214 81,227 8,-10 15,-24 23,-42l37 -21c-15,34 -29,53 -42,60l-36 21c-63,36 -96,-209 -99,-224l36 -21z"/>
   </g>
   <path class="fil152" d="M2104 1255c3,19 51,369 140,165"/>
   <g>
    <path class="fil151" d="M2098 1386c41,-28 96,-60 136,-88l37 -21c-40,28 -95,61 -137,88l-36 21z"/>
   </g>
   <path class="fil152" d="M2116 1376c41,-28 97,-60 136,-89"/>
   <g>
    <path class="fil151" d="M2335 1354c37,-97 33,-138 17,-143 -28,34 -51,103 -14,164 25,41 85,30 130,9 1,-1 2,-1 3,-2l36 -21c-5,4 -12,9 -19,13l-36 21 -1 0c-45,26 -120,48 -149,0 -46,-74 -1,-162 33,-181l36 -21c28,-16 48,15 0,140l-36 21z"/>
   </g>
   <path class="fil152" d="M2353 1344c105,-275 -117,-97 -33,41 33,55 130,17 169,-13"/>
   <g>
    <path class="fil151" d="M2503 1189c11,10 25,58 37,101 9,13 18,28 20,40 1,20 2,28 0,29l-36 21c-2,1 -10,-32 -21,-69 -7,-11 -14,-21 -16,-29l7 -4c-9,-32 -19,-61 -27,-68l36 -21z"/>
   </g>
   <path class="fil152" d="M2485 1199c25,24 67,249 56,142 -2,-23 -31,-51 -36,-70"/>
   <g>
    <path class="fil151" d="M2483 1254c29,-28 100,-78 100,-129l36 -20c8,22 26,60 40,97 7,-51 14,-109 23,-115l36 -21c3,-1 6,2 8,9 15,44 66,161 66,202l-36 21c0,-33 -33,-115 -54,-169 -8,54 -15,125 -23,129l-37 21c-2,2 -4,-2 -7,-13 -7,-33 -25,-75 -39,-107 -23,30 -58,56 -77,74l-36 21z"/>
   </g>
   <path class="fil152" d="M2501 1243c29,-28 100,-78 100,-128 11,31 42,95 52,140 19,83 32,-236 55,-169 15,43 66,161 66,201"/>
   <g>
    <path class="fil151" d="M2916 1077c-19,-1 -34,-1 -47,2 -15,19 -21,48 -21,91 0,47 20,67 44,63 28,-28 50,-86 41,-165l-17 9zm52 -34c1,0 26,156 60,162l-36 21c-13,-2 -26,-29 -35,-59 -12,29 -29,50 -47,60l-36 21c-31,18 -63,2 -62,-57 0,-55 10,-89 36,-104l36 -21c15,-8 35,-12 62,-10l22 -13z"/>
   </g>
   <path class="fil152" d="M2934 1067c-80,-7 -103,25 -104,114 -1,124 144,57 120,-126 -1,-14 25,155 60,160"/>
   <g>
    <path class="fil151" d="M3092 904c25,87 21,256 80,248 7,-7 16,-16 25,-27l36 -20c-17,20 -32,34 -44,41l-36 21c-77,44 -70,-147 -97,-242l36 -21z"/>
   </g>
   <path class="fil152" d="M3074 915c32,110 17,349 141,200"/>
   <g>
    <path class="fil151" d="M2960 1037l7 -4 36 -21c17,-10 62,-34 106,-59 35,-20 62,-38 63,-44l37 -21c-2,7 -39,30 -81,54l-36 21c-41,23 -86,48 -112,63l-20 11z"/>
   </g>
   <path class="fil152" d="M2978 1027c16,-11 209,-113 213,-128"/>
   <g>
    <path class="fil151" d="M3289 888c35,15 72,198 72,241l-36 21c0,-43 -37,-226 -72,-241l36 -21z"/>
   </g>
   <path class="fil152" d="M3271 899c35,14 72,198 72,240"/>
   <g>
    <path class="fil151" d="M3401 744c5,23 39,282 69,335l11 -7c0,6 1,11 0,16l-37 21c-32,0 -74,-319 -79,-344l36 -21z"/>
   </g>
   <path class="fil152" d="M3383 754c5,26 47,345 80,345 1,-5 0,-11 0,-16"/>
   <g>
    <path class="fil151" d="M3401 1013c20,-26 80,-120 128,-148l37 -21c-49,29 -109,122 -129,148l-36 21z"/>
   </g>
   <path class="fil152" d="M3419 1003c20,-27 80,-120 128,-149"/>
   <g>
    <path class="fil151" d="M3473 968c10,3 133,18 133,44l-37 21c0,-26 -122,-42 -132,-44l36 -21z"/>
   </g>
   <path class="fil152" d="M3455 979c10,2 133,18 133,44"/>
   <g>
    <path class="fil151" d="M3689 829c-12,-3 -23,-4 -32,-3 -9,14 -15,34 -20,62 -8,49 22,77 51,75 18,-24 24,-67 1,-134zm27 -46c32,77 92,132 114,177l-36 21c-11,-23 -33,-49 -55,-79 -4,28 -16,46 -31,55l-36 20c-34,20 -81,-7 -71,-68 7,-41 16,-66 35,-77l36 -21c3,-1 6,-2 9,-3 0,-2 -1,-3 -1,-4l0 0 0 0 0 0 36 -21z"/>
   </g>
   <path class="fil152" d="M3708 818c-59,-12 -78,13 -89,80 -19,116 168,109 79,-104 32,77 92,131 114,177"/>
   <g>
    <path class="fil151" d="M4141 1485c131,-171 214,-258 263,-286l90 -52c135,-78 2,300 -113,548 54,-62 113,-124 151,-146l90 -51c31,-18 48,-10 38,47 6,-4 13,-8 20,-12l90 -52c21,-12 46,-23 74,-29 -135,152 -202,443 -414,698l-90 52c212,-255 279,-546 414,-698 -10,2 -19,5 -28,8 -62,54 -89,121 -90,121l-90 52 1 -1c30,-89 32,-130 18,-140 -89,84 -207,236 -226,247l-90 52c-4,3 -4,-2 3,-16 107,-210 266,-620 188,-638 -50,46 -118,125 -209,244l-90 52z"/>
   </g>
   <path class="fil152" d="M4186 1459c539,-707 268,33 111,342 -67,133 440,-579 295,-143 -4,13 54,-147 207,-180 -135,152 -202,443 -414,698"/>
  </g>
 </g>
</svg>
