<?xml version="1.0" encoding="UTF-8"?>
<!DOCTYPE svg PUBLIC "-//W3C//DTD SVG 1.1//EN" "http://www.w3.org/Graphics/SVG/1.1/DTD/svg11.dtd">
<!-- Creator: CorelDRAW X8 -->
<svg xmlns="http://www.w3.org/2000/svg" xml:space="preserve" width="151mm" height="90mm" version="1.1" style="shape-rendering:geometricPrecision; text-rendering:geometricPrecision; image-rendering:optimizeQuality; fill-rule:evenodd; clip-rule:evenodd"
viewBox="0 0 15100 9000"
 xmlns:xlink="http://www.w3.org/1999/xlink">
 <defs>
  <style type="text/css">
   <![CDATA[
    .fil7 {fill:#060633}
    .fil3 {fill:#0B0755}
    .fil26 {fill:#163560}
    .fil20 {fill:#233862}
    .fil9 {fill:#2C3A64}
    .fil29 {fill:#2E3552}
    .fil14 {fill:#304B77}
    .fil24 {fill:#334272}
    .fil19 {fill:#505ABA}
    .fil17 {fill:#548EE2}
    .fil16 {fill:#699DEE}
    .fil11 {fill:#94B0ED}
    .fil21 {fill:#A9453D}
    .fil2 {fill:#AEC3FF}
    .fil6 {fill:#BDCFFE}
    .fil5 {fill:#CCDBFD}
    .fil1 {fill:#D9E5FC}
    .fil27 {fill:#EA642F}
    .fil0 {fill:#EBF3FA}
    .fil13 {fill:#ED7D2B}
    .fil22 {fill:#ED975D}
    .fil12 {fill:#ED985F}
    .fil28 {fill:#EF873A}
    .fil18 {fill:#F4D2B8}
    .fil4 {fill:#F78248}
    .fil8 {fill:#F99746}
    .fil25 {fill:#FCA56B}
    .fil15 {fill:#FCECDB}
    .fil10 {fill:#FFB27D}
    .fil23 {fill:white}
   ]]>
  </style>
 </defs>
 <g id="Layer_x0020_1">
  <metadata id="CorelCorpID_0Corel-Layer"/>
  <g id="_2043924230768">
   <path class="fil0" d="M1125 8952c0,0 -1868,-1647 -679,-3584 1188,-1937 2785,-963 2708,-3217 -78,-2255 3671,-2448 4864,-1795 1194,654 1187,1441 3650,1181 2463,-261 2934,1911 2293,3018 -909,1570 2524,1311 361,4397l-13197 0z"/>
   <path class="fil1" d="M9283 4661c0,0 420,-869 1174,-869 27,0 53,1 80,3 0,0 157,15 170,194 14,179 -289,113 -491,139 -201,26 -700,215 -933,533z"/>
   <path class="fil1" d="M9306 4473c0,0 99,-831 733,-993 0,0 12,-3 30,-3 40,0 111,14 151,106 57,134 -192,163 -339,236 -148,73 -480,349 -575,654z"/>
   <path class="fil1" d="M8542 8589l-79 -4c0,0 -55,-546 -248,-827 -8,-10 -19,-25 -32,-43l0 0c-33,-39 -55,-68 -70,-89 -98,-123 -235,-281 -308,-305l0 0c-64,296 -680,477 -1045,482 -6,0 -12,0 -17,0 -343,0 -215,-131 -66,-328 151,-201 554,-244 656,-332 62,-54 18,-85 -78,-85 -61,0 -144,13 -233,40 -228,68 -291,326 -659,444 -30,10 -62,14 -93,14 -346,0 -721,-541 -721,-541 13,1 27,1 40,1 277,0 670,-226 668,-315 -1,-21 -37,-30 -93,-30 -95,0 -247,23 -388,46 -141,23 -270,46 -317,46 -2,0 -3,0 -4,0 -114,-3 -350,-177 -331,-632 18,-455 773,-479 773,-479 0,0 649,632 805,632 1,0 3,0 4,-1 147,-13 -459,-660 -459,-660 51,-17 121,-24 201,-24 339,0 853,122 853,122 0,0 146,840 282,840 4,0 8,0 12,-2 139,-49 -177,-778 -177,-778 286,22 608,280 608,280 428,442 -157,965 -157,965 0,0 60,306 327,614 0,0 390,377 346,949zm-737 -1268c0,0 0,0 0,0 0,0 0,0 0,0zm0 0c0,0 0,0 0,0zm0 0c0,0 0,0 0,0zm0 -1c0,0 0,0 0,1 0,-1 0,-1 0,-1zm0 0c0,0 0,0 0,0 0,0 0,0 0,0zm0 0c0,0 0,0 0,0 0,0 0,0 0,0zm0 0c0,0 0,0 0,0 0,0 0,0 0,0zm1 -1c-1,0 -1,1 -1,1 0,0 0,-1 1,-1zm0 -3c0,1 0,2 0,3 0,-1 0,-2 0,-3zm0 0c0,0 0,0 0,0 0,0 0,0 0,0zm0 0c0,0 0,0 0,0 0,0 0,0 0,0z"/>
   <path class="fil1" d="M10013 8762c-88,0 -175,-19 -219,-84 -111,-161 -57,-284 -127,-383 -48,-66 -100,-109 -125,-109 -12,0 -17,10 -13,31 14,67 161,210 160,337 0,87 5,158 -38,158 -19,0 -50,-15 -96,-52 -144,-115 -334,-378 -269,-517 3,-6 5,-12 8,-18 -6,11 -8,18 -8,18 -8,-3 -19,-4 -32,-4 -48,0 -124,16 -184,31l-1 0c-12,4 -30,8 -55,14l0 0 0 0c-11,3 -19,5 -26,7l0 0 0 0c-10,3 -19,7 -29,11l-25 -29c58,-19 98,-24 98,-24l0 0c201,-41 319,-145 319,-145 0,0 -74,-392 232,-436 0,0 2,0 6,0 34,0 214,3 323,75 0,0 -349,196 -309,259 4,5 10,8 18,8 81,0 356,-254 356,-254 0,0 370,168 451,287 0,0 -440,72 -386,123 18,16 78,22 150,22 154,0 367,-25 367,-25 0,0 294,244 162,433 -91,130 -190,169 -258,169 -30,0 -54,-8 -68,-18 -43,-32 -244,-277 -293,-277 -4,0 -6,1 -8,3 -30,37 68,270 186,346 0,0 -135,43 -267,43z"/>
   <path class="fil2" d="M4938 3936l193 3022 -95 6c-1,0 -73,-287 -73,-287l-174 -2732 149 -9z"/>
   <polygon class="fil3" points="5056,6962 5102,7155 5112,6959 "/>
   <path class="fil4" d="M4997 6644c-4,-52 36,-97 89,-101 52,-3 98,37 101,89 3,53 -37,98 -89,102 -53,3 -98,-37 -101,-90z"/>
   <path class="fil2" d="M5009 3917l1467 2650 83 -46c1,-1 -94,-281 -94,-281l-1325 -2395 -131 72z"/>
   <polygon class="fil3" points="6541,6531 6607,6717 6492,6558 "/>
   <polygon class="fil4" points="6295,5821 6248,5847 6132,5636 6179,5610 "/>
   <polygon class="fil3" points="4973,3723 4865,3754 4759,3383 4867,3352 "/>
   <path class="fil4" d="M5156 3820l-23 214 105 364 -240 69 -104 -365 -133 -169c-31,-109 32,-223 141,-254l0 0c109,-31 223,32 254,141z"/>
   <path class="fil3" d="M4903 3886c-9,-30 9,-61 38,-69 30,-9 61,8 70,38 8,30 -9,61 -39,69 -30,9 -61,-8 -69,-38z"/>
   <polygon class="fil5" points="11455,3083 11417,3083 11417,3069 11441,3069 11441,3045 11455,3045 "/>
   <path class="fil5" d="M11352 3083l-64 0 0 -14 64 0 0 14zm-129 0l-64 0 0 -14 64 0 0 14zm-128 0l-65 0 0 -14 65 0 0 14zm-129 0l-65 0 0 -14 65 0 0 14zm-129 0l-65 0 0 -14 65 0 0 14zm-129 0l-64 0 0 -14 64 0 0 14zm-129 0l-64 0 0 -14 64 0 0 14zm-129 0l-64 0 0 -14 64 0 0 14zm-129 0l-64 0 0 -14 64 0 0 14z"/>
   <polygon class="fil5" points="10193,3083 10155,3083 10155,3045 10168,3045 10168,3069 10193,3069 "/>
   <path class="fil5" d="M10168 2986l-13 0 0 -60 13 0 0 60zm0 -119l-13 0 0 -60 13 0 0 60zm0 -119l-13 0 0 -59 13 0 0 59zm0 -119l-13 0 0 -59 13 0 0 59zm0 -118l-13 0 0 -60 13 0 0 60zm0 -119l-13 0 0 -59 13 0 0 59zm0 -119l-13 0 0 -59 13 0 0 59zm0 -118l-13 0 0 -60 13 0 0 60z"/>
   <polygon class="fil5" points="10168,2036 10155,2036 10155,1998 10193,1998 10193,2012 10168,2012 "/>
   <path class="fil5" d="M11352 2012l-64 0 0 -14 64 0 0 14zm-129 0l-64 0 0 -14 64 0 0 14zm-128 0l-65 0 0 -14 65 0 0 14zm-129 0l-65 0 0 -14 65 0 0 14zm-129 0l-65 0 0 -14 65 0 0 14zm-129 0l-64 0 0 -14 64 0 0 14zm-129 0l-64 0 0 -14 64 0 0 14zm-129 0l-64 0 0 -14 64 0 0 14zm-129 0l-64 0 0 -14 64 0 0 14z"/>
   <polygon class="fil5" points="11455,2036 11441,2036 11441,2012 11417,2012 11417,1998 11455,1998 "/>
   <path class="fil5" d="M11455 2986l-14 0 0 -60 14 0 0 60zm0 -119l-14 0 0 -60 14 0 0 60zm0 -119l-14 0 0 -59 14 0 0 59zm0 -119l-14 0 0 -59 14 0 0 59zm0 -118l-14 0 0 -60 14 0 0 60zm0 -119l-14 0 0 -59 14 0 0 59zm-10 -119l-4 0 0 -59 14 0 0 56c-4,1 -7,2 -10,3zm10 -118l-14 0 0 -60 14 0 0 60z"/>
   <path class="fil5" d="M11640 3608c-23,0 -46,-1 -69,-3l1 -16c23,2 46,4 68,4l0 15zm70 -3l-1 -16c22,-2 45,-5 67,-10l3 15c-23,5 -46,8 -69,11zm-208 -11c-23,-5 -46,-11 -68,-18l5 -15c21,7 44,13 66,18l-3 15zm345 -17l-5 -15c22,-7 43,-15 64,-24l6 14c-21,9 -43,18 -65,25zm-478 -25c-22,-10 -43,-20 -63,-32l8 -13c20,11 40,21 61,30l-6 15zm606 -31l-8 -13c20,-12 39,-24 58,-37l9 13c-19,13 -39,26 -59,37zm-728 -38c-19,-13 -37,-28 -55,-43l11 -12c17,15 35,29 53,42l-9 13zm842 -42l-11 -12c17,-15 34,-31 50,-47l11 10c-16,17 -33,33 -50,49zm-947 -50c-16,-17 -31,-35 -45,-53l13 -10c13,18 28,36 44,53l-12 10zm1042 -52l-12 -10c13,-18 26,-37 38,-56l13 8c-12,20 -25,39 -39,58zm-1126 -59c-12,-20 -23,-41 -33,-61l14 -7c10,20 21,41 32,60l-13 8zm1199 -60l-14 -7c9,-20 18,-42 26,-63l14 5c-7,22 -16,44 -26,65zm-1259 -66c-8,-22 -14,-44 -20,-67l15 -4c6,22 12,44 20,66l-15 5zm1305 -66l-15 -3c6,-22 10,-45 13,-67l15 2c-3,23 -7,46 -13,68zm-1338 -70c-3,-23 -5,-46 -5,-69l15 -1c1,23 3,46 6,68l-16 2zm1357 -68l-15 0c0,-8 0,-16 0,-24 0,-15 0,-30 -1,-45l15 -1c1,16 2,31 2,46 0,8 0,16 -1,24zm-1347 -24l-16 0c0,-23 1,-46 4,-69l15 1c-2,23 -3,46 -3,68zm1323 -112c-4,-23 -9,-45 -15,-67l15 -4c6,22 11,45 15,68l-15 3zm-1309 -23l-16 -3c5,-23 11,-46 18,-68l15 5c-7,21 -13,44 -17,66zm1272 -109c-8,-21 -18,-42 -28,-62l14 -7c10,21 20,42 28,64l-14 5zm-1231 -21l-14 -6c9,-22 19,-43 31,-63l13 8c-11,20 -21,40 -30,61zm1168 -100c-12,-19 -26,-37 -40,-55l12 -10c15,18 29,37 41,57l-13 8zm-1101 -19l-13 -9c13,-19 28,-37 43,-55l12 10c-15,18 -29,36 -42,54zm1015 -86c-16,-16 -33,-32 -50,-46l9 -12c18,14 36,30 52,47l-11 11zm-926 -17l-10 -11c17,-16 35,-31 53,-45l10 12c-18,14 -36,29 -53,44zm821 -70c-19,-12 -39,-24 -59,-34l7 -14c20,11 41,23 60,35l-8 13zm-712 -12l-8 -13c20,-12 40,-23 61,-33l7 14c-20,9 -41,20 -60,32zm591 -50c-21,-9 -43,-16 -65,-22l4 -15c23,6 45,14 66,22l-5 15zm-468 -9l-5 -14c10,-4 21,-7 32,-11l10 0 0 -3c8,-2 16,-4 25,-6l3 15c-22,5 -44,12 -65,19z"/>
   <path class="fil6" d="M11455 2273l-10 0c3,-1 6,-2 10,-3l0 3z"/>
   <path class="fil5" d="M11754 2270c-22,-4 -45,-7 -67,-8l1 -16c23,2 46,5 69,9l-3 15zm-204 -4l-2 -15c23,-3 47,-5 70,-6l0 16c-22,0 -45,2 -68,5z"/>
   <polygon class="fil2" points="3806,8932 2987,7650 4642,6593 "/>
   <polygon class="fil0" points="3733,8323 3363,7743 4110,7266 "/>
   <polygon class="fil7" points="3170,7698 3162,7702 3102,7609 3110,7604 "/>
   <polygon class="fil7" points="3188,7632 3181,7636 3145,7581 3153,7576 "/>
   <polygon class="fil7" points="3224,7608 3217,7613 3182,7558 3189,7553 "/>
   <polygon class="fil7" points="3259,7586 3251,7591 3216,7536 3224,7531 "/>
   <polygon class="fil7" points="3291,7566 3283,7571 3248,7516 3255,7511 "/>
   <polygon class="fil7" points="3326,7543 3319,7548 3284,7493 3291,7488 "/>
   <polygon class="fil7" points="3386,7559 3379,7564 3319,7470 3326,7466 "/>
   <polygon class="fil7" points="3405,7493 3397,7498 3362,7443 3370,7438 "/>
   <polygon class="fil7" points="3441,7470 3434,7475 3399,7420 3406,7415 "/>
   <polygon class="fil7" points="3475,7448 3468,7453 3433,7398 3440,7393 "/>
   <polygon class="fil7" points="3507,7428 3500,7432 3465,7377 3472,7372 "/>
   <polygon class="fil7" points="3543,7405 3535,7410 3500,7355 3508,7350 "/>
   <polygon class="fil7" points="3617,7412 3609,7417 3549,7323 3557,7318 "/>
   <polygon class="fil7" points="3635,7346 3628,7351 3593,7296 3600,7291 "/>
   <polygon class="fil7" points="3671,7323 3664,7327 3629,7272 3636,7268 "/>
   <polygon class="fil7" points="3706,7301 3698,7305 3663,7250 3671,7246 "/>
   <polygon class="fil7" points="3738,7280 3730,7285 3695,7230 3702,7225 "/>
   <polygon class="fil7" points="3773,7258 3766,7262 3731,7207 3738,7203 "/>
   <polygon class="fil7" points="3833,7274 3826,7278 3766,7185 3773,7180 "/>
   <polygon class="fil7" points="3852,7208 3844,7212 3809,7157 3817,7152 "/>
   <polygon class="fil7" points="3888,7184 3881,7189 3846,7134 3853,7129 "/>
   <polygon class="fil7" points="3923,7162 3915,7167 3880,7112 3887,7107 "/>
   <polygon class="fil7" points="3954,7142 3947,7147 3912,7092 3919,7087 "/>
   <polygon class="fil7" points="3990,7119 3983,7124 3947,7069 3955,7064 "/>
   <polygon class="fil7" points="4060,7129 4052,7134 3993,7040 4000,7035 "/>
   <polygon class="fil7" points="4078,7063 4071,7068 4036,7013 4043,7008 "/>
   <polygon class="fil7" points="4114,7040 4107,7044 4072,6989 4079,6985 "/>
   <polygon class="fil7" points="4149,7018 4142,7022 4106,6967 4114,6963 "/>
   <polygon class="fil7" points="4181,6997 4173,7002 4138,6947 4146,6942 "/>
   <polygon class="fil7" points="4216,6975 4209,6979 4174,6924 4181,6920 "/>
   <polygon class="fil7" points="4276,6991 4269,6995 4209,6902 4217,6897 "/>
   <polygon class="fil7" points="4295,6924 4288,6929 4252,6874 4260,6869 "/>
   <polygon class="fil7" points="4331,6901 4324,6906 4289,6851 4296,6846 "/>
   <polygon class="fil7" points="4366,6879 4358,6884 4323,6829 4330,6824 "/>
   <polygon class="fil7" points="4397,6859 4390,6864 4355,6809 4362,6804 "/>
   <polygon class="fil7" points="4433,6836 4426,6841 4390,6786 4398,6781 "/>
   <polygon class="fil7" points="4507,6843 4499,6848 4440,6754 4447,6750 "/>
   <path class="fil4" d="M12267 7716c0,0 9,-478 487,-537 478,-58 1390,-24 1390,-24l0 275c0,0 -1035,-9 -1380,0 -143,4 -317,17 -497,286z"/>
   <path class="fil4" d="M13037 7378c0,0 -39,1423 -254,1540 -214,117 -500,-26 -338,-299 163,-273 260,-286 319,-604 58,-319 58,-637 58,-637l215 0z"/>
   <path class="fil4" d="M13466 7378c0,0 -149,975 -97,1241 52,267 292,403 533,260 240,-143 169,-351 169,-351 0,0 -196,156 -352,39 -155,-117 -77,-1241 -77,-1241l-176 52z"/>
   <path class="fil2" d="M3644 4450c-228,0 -441,89 -602,249 -161,161 -249,375 -249,602 0,227 88,441 249,601 161,161 374,249 602,249 227,0 440,-88 601,-249 161,-160 249,-374 249,-601 0,-227 -88,-441 -249,-602 -161,-160 -374,-249 -601,-249zm0 1718c-232,0 -450,-91 -613,-254 -164,-164 -254,-382 -254,-613 0,-232 90,-449 254,-613 163,-164 381,-254 613,-254 231,0 449,90 613,254 163,164 253,381 253,613 0,231 -90,449 -253,613 -164,163 -382,254 -613,254z"/>
   <path class="fil2" d="M3701 5038c-14,0 -27,0 -41,0l0 -9c14,0 27,0 41,0l0 9zm-121 0l0 -9c13,0 27,0 40,0l0 9c-13,0 -27,0 -40,0zm201 3c-14,-1 -27,-1 -40,-2l0 -9c13,1 27,1 40,2l0 9zm-281 0l0 -9c13,0 26,-1 40,-1l0 9c-13,0 -27,1 -40,1zm361 5c-13,-1 -27,-2 -40,-3l0 -9c14,1 27,2 40,3l0 9zm-441 1l-1 -9c14,-1 27,-2 40,-3l1 9c-13,1 -27,2 -40,3zm521 7c-14,-1 -27,-3 -40,-4l1 -9c13,1 26,3 40,4l-1 9zm-601 1l-1 -9c13,-2 27,-3 40,-4l1 9c-13,1 -27,2 -40,4zm680 10c-13,-2 -26,-4 -40,-6l1 -9c14,2 27,4 40,6l-1 9zm-759 1l-2 -9c13,-2 27,-4 40,-6l1 9c-13,2 -26,4 -39,6zm838 12c-13,-2 -26,-5 -39,-7l1 -9c13,3 27,5 40,8l-2 8zm-917 2l-2 -9c13,-3 26,-5 40,-8l1 9c-13,3 -26,5 -39,8zm995 16c-12,-3 -26,-6 -39,-9l2 -9c13,3 27,6 39,9l-2 9zm-1073 1l-2 -8c12,-4 25,-7 39,-10l2 9c-13,3 -27,6 -39,9zm1150 20c-12,-4 -25,-7 -38,-11l2 -9c14,4 27,8 39,12l-3 8zm-1227 2l-3 -8c12,-4 25,-8 39,-12l2 9c-13,3 -26,7 -38,11zm1302 26c-11,-5 -24,-10 -37,-15l3 -8c13,4 26,9 38,14l-4 9zm-1377 2l-4 -8c12,-5 25,-10 38,-15l3 8c-13,5 -25,10 -37,15zm1449 33c-11,-7 -23,-13 -35,-19l4 -8c12,6 24,13 35,19l-4 8zm-1520 3l-5 -8c11,-6 23,-13 36,-19l4 8c-13,6 -25,13 -35,19zm1583 45c-9,-9 -19,-18 -30,-26l5 -8c12,9 22,18 31,27l-6 7zm-1645 4l-6 -6c8,-9 18,-19 30,-28l5 7c-11,9 -21,18 -29,27zm1679 63c-1,-12 -5,-24 -11,-36l8 -5c7,13 11,27 12,40l-9 1zm-1717 19c0,-4 -1,-9 -1,-13 0,-14 3,-27 10,-41l8 4c-6,12 -9,25 -9,37 0,4 1,8 1,12l-9 1zm1698 56l-7 -5c9,-11 15,-22 20,-33l8 3c-4,12 -12,24 -21,35zm-1657 15c-11,-10 -20,-21 -26,-32l8 -5c6,11 14,21 24,31l-6 6zm1595 38l-5 -8c12,-7 22,-15 32,-23l6 7c-10,8 -21,16 -33,24zm-1530 10c-12,-7 -24,-15 -34,-22l5 -7c10,7 22,14 34,21l-5 8zm1458 27l-4 -8c13,-6 25,-11 36,-17l4 8c-11,6 -23,12 -36,17zm-1385 8c-13,-5 -25,-11 -37,-16l4 -9c12,6 24,11 37,16l-4 9zm1309 21l-2 -9c12,-4 25,-8 37,-13l3 8c-12,5 -25,10 -38,14zm-1233 6c-13,-4 -26,-9 -38,-13l3 -8c12,4 25,8 38,12l-3 9zm1156 16l-2 -8c13,-4 26,-7 38,-11l3 9c-13,3 -26,7 -39,10zm-1078 5c-13,-3 -26,-6 -39,-10l2 -9c13,4 26,7 39,10l-2 9zm999 14l-1 -9c13,-3 26,-6 39,-9l2 9c-13,3 -26,6 -40,9zm-920 3c-13,-2 -27,-5 -40,-8l2 -9c13,3 26,6 40,8l-2 9zm841 11l-1 -9c13,-2 26,-4 39,-7l2 9c-13,2 -27,5 -40,7zm-762 3c-13,-2 -27,-4 -40,-7l2 -8c13,2 26,4 40,6l-2 9zm682 8l-1 -9c14,-2 27,-3 40,-5l1 9c-13,2 -26,3 -40,5zm-602 2c-13,-1 -27,-3 -40,-5l1 -9c13,2 27,4 40,5l-1 9zm522 6l0 -9c13,-1 26,-2 39,-4l1 9c-13,2 -26,3 -40,4zm-442 2c-13,-1 -27,-2 -40,-4l1 -9c13,2 27,3 40,4l-1 9zm362 4l0 -9c13,-1 26,-2 40,-3l0 9c-13,1 -27,2 -40,3zm-281 1c-14,-1 -27,-2 -41,-2l1 -9c13,0 27,1 40,2l0 9zm201 2l-1 -9c14,0 27,-1 40,-1l1 9c-13,0 -27,1 -40,1zm-121 1c-13,-1 -27,-1 -40,-2l0 -9c13,1 27,1 40,1l0 10zm51 0c-4,0 -7,0 -11,0l0 -9c14,0 27,0 40,0l0 9c-9,0 -19,0 -29,0z"/>
   <path class="fil2" d="M3682 4455c-13,-6 -26,-8 -38,-8l0 -10c14,0 28,3 42,9l-4 9zm-108 18l-6 -7c12,-10 25,-17 38,-21l3 8c-12,5 -24,11 -35,20zm171 31c-9,-11 -19,-20 -29,-28l6 -8c10,9 21,19 30,30l-7 6zm-225 30l-8 -6c8,-12 17,-23 26,-33l7 6c-9,10 -17,21 -25,33zm271 38c-7,-12 -14,-24 -21,-35l8 -5c7,11 14,23 21,36l-8 4zm-312 34l-8 -4c6,-13 12,-26 19,-38l8 5c-6,11 -13,24 -19,37zm347 42c-5,-14 -11,-26 -16,-39l8 -3c6,12 11,25 17,38l-9 4zm-378 35l-8 -3c4,-14 9,-27 14,-40l9 4c-5,12 -10,25 -15,39zm405 43c-4,-13 -8,-27 -13,-39l9 -3c5,12 9,26 13,39l-9 3zm-429 36l-9 -2c4,-14 7,-28 11,-41l9 3c-4,13 -7,26 -11,40zm451 44c-4,-13 -7,-27 -11,-40l10 -2c3,13 7,26 10,40l-9 2zm-471 37l-9 -2c3,-14 6,-28 9,-41l10 2c-4,13 -7,27 -10,41zm488 45c-3,-14 -5,-28 -8,-41l9 -2c3,13 5,27 8,41l-9 2zm-503 37l-9 -2c2,-14 4,-28 7,-41l9 2c-2,13 -5,27 -7,41zm516 45c-2,-14 -4,-28 -6,-41l9 -2c2,14 4,28 6,42l-9 1zm-528 37l-9 -1c2,-14 3,-28 5,-42l10 2c-2,13 -4,27 -6,41zm538 45c-1,-13 -3,-27 -4,-41l9 -1c1,14 3,28 4,42l-9 0zm-546 38l-10 -1c1,-14 3,-28 4,-42l10 1c-2,14 -3,28 -4,42zm553 45c-1,-13 -2,-27 -3,-41l9 -1c1,14 2,28 3,42l-9 0zm-559 38l-9 -1c0,-14 1,-28 2,-41l9 0c0,14 -1,28 -2,42zm563 46c0,-14 -1,-28 -2,-42l10 0c0,13 1,27 1,41l-9 1zm-566 37l-9 0c0,-14 0,-28 1,-42l9 0c0,14 -1,28 -1,42zm577 46l-10 0 0 -1c0,-14 0,-27 0,-41l9 0c1,13 1,27 1,41l0 1zm-586 37c0,-12 -1,-25 -1,-38l0 -3 10 0 0 3c0,13 0,26 0,38l-9 0zm584 46l-9 0c0,-14 1,-28 1,-42l9 1c0,14 0,28 -1,41zm-582 38c0,-14 -1,-28 -1,-42l9 0c0,14 1,28 2,42l-10 0zm578 46l-9 -1c1,-13 2,-27 2,-41l10 0c-1,14 -2,28 -3,42zm-572 37c-1,-13 -2,-27 -3,-41l9 -1c1,14 2,28 3,42l-9 0zm565 46l-9 -1c1,-13 3,-27 4,-41l9 1c-1,13 -2,27 -4,41zm-557 38c-1,-14 -3,-28 -4,-42l9 -1c1,14 3,28 4,41l-9 2zm547 45l-9 -1c2,-14 4,-28 5,-41l10 1c-2,14 -4,28 -6,41zm-535 37c-2,-13 -5,-27 -6,-41l9 -1c2,13 4,27 6,41l-9 1zm522 46l-10 -2c3,-13 5,-27 8,-41l9 1c-2,14 -5,28 -7,42zm-507 37c-3,-14 -6,-28 -8,-41l9 -2c3,14 5,27 8,41l-9 2zm489 44l-9 -2c3,-13 6,-27 9,-40l9 2c-2,13 -6,27 -9,40zm-470 37c-3,-13 -7,-27 -10,-41l9 -2c3,14 7,28 10,41l-9 2zm448 44l-9 -2c4,-13 8,-27 12,-40l9 2c-4,14 -8,27 -12,40zm-424 36c-4,-13 -8,-26 -12,-40l9 -2c4,13 8,26 12,39l-9 3zm397 43l-9 -3c5,-12 10,-26 15,-39l8 3c-4,14 -9,27 -14,39zm-366 35c-5,-12 -11,-25 -16,-39l9 -3c5,13 10,26 16,38l-9 4zm330 41l-8 -4c7,-12 13,-24 19,-37l8 4c-6,13 -12,26 -19,37zm-290 33c-7,-11 -14,-23 -21,-36l8 -5c7,13 14,25 21,36l-8 5zm243 37l-7 -6c8,-10 17,-21 25,-33l8 6c-9,12 -17,23 -26,33zm-188 27c-10,-8 -20,-19 -30,-30l7 -6c10,11 20,21 29,29l-6 7zm121 24l-4 -8c12,-5 23,-12 35,-21l6 8c-12,9 -25,16 -37,21zm-43 8c-14,0 -28,-3 -42,-9l4 -9c13,6 26,9 39,9l-1 9z"/>
   <path class="fil2" d="M2813 5304l-28 0 0 -6 28 0 0 6zm55 0l-28 0 0 -6 28 0 0 6zm55 0l-28 0 0 -6 28 0 0 6zm55 0l-27 0 0 -6 27 0 0 6zm56 0l-28 0 0 -6 28 0 0 6zm55 0l-28 0 0 -6 28 0 0 6zm55 0l-27 0 0 -6 27 0 0 6zm56 0l-28 0 0 -6 28 0 0 6zm55 0l-28 0 0 -6 28 0 0 6zm55 0l-28 0 0 -6 28 0 0 6zm55 0l-27 0 0 -6 27 0 0 6zm56 0l-28 0 0 -6 28 0 0 6zm55 0l-28 0 0 -6 28 0 0 6zm55 0l-27 0 0 -6 27 0 0 6zm55 0l-27 0 0 -6 27 0 0 6zm56 0l-28 0 0 -6 28 0 0 6zm55 0l-28 0 0 -6 28 0 0 6zm55 0l-27 0 0 -6 27 0 0 6zm56 0l-28 0 0 -6 28 0 0 6zm55 0l-28 0 0 -6 28 0 0 6zm55 0l-27 0 0 -6 27 0 0 6zm55 0l-27 0 0 -6 27 0 0 6zm56 0l-28 0 0 -6 28 0 0 6zm55 0l-28 0 0 -6 28 0 0 6zm55 0l-27 0 0 -6 27 0 0 6zm56 0l-28 0 0 -6 28 0 0 6zm55 0l-28 0 0 -6 28 0 0 6zm55 0l-27 0 0 -6 27 0 0 6zm55 0l-27 0 0 -6 27 0 0 6zm56 0l-28 0 0 -6 28 0 0 6zm55 0l-28 0 0 -6 28 0 0 6zm31 0l-3 0 0 -6 3 0 0 6z"/>
   <path class="fil2" d="M3647 4470l-6 0 0 -28 6 0 0 28zm0 55l-6 0 0 -28 6 0 0 28zm0 55l-6 0 0 -27 6 0 0 27zm0 56l-6 0 0 -28 6 0 0 28zm0 55l-6 0 0 -28 6 0 0 28zm0 55l-6 0 0 -28 6 0 0 28zm0 55l-6 0 0 -27 6 0 0 27zm0 56l-6 0 0 -28 6 0 0 28zm0 55l-6 0 0 -28 6 0 0 28zm0 55l-6 0 0 -27 6 0 0 27zm0 56l-6 0 0 -28 6 0 0 28zm0 55l-6 0 0 -28 6 0 0 28zm0 55l-6 0 0 -28 6 0 0 28zm0 55l-6 0 0 -27 6 0 0 27zm0 56l-6 0 0 -28 6 0 0 28zm0 55l-6 0 0 -28 6 0 0 28zm0 55l-6 0 0 -27 6 0 0 27zm0 56l-6 0 0 -28 6 0 0 28zm0 55l-6 0 0 -28 6 0 0 28zm0 55l-6 0 0 -28 6 0 0 28zm0 55l-6 0 0 -27 6 0 0 27zm0 56l-6 0 0 -28 6 0 0 28zm0 55l-6 0 0 -28 6 0 0 28zm0 55l-6 0 0 -27 6 0 0 27zm0 56l-6 0 0 -28 6 0 0 28zm0 55l-6 0 0 -28 6 0 0 28zm0 55l-6 0 0 -28 6 0 0 28zm0 55l-6 0 0 -27 6 0 0 27zm0 56l-6 0 0 -28 6 0 0 28zm0 55l-6 0 0 -28 6 0 0 28zm0 55l-6 0 0 -27 6 0 0 27zm0 32l-6 0 0 -4 6 0 0 4z"/>
   <path class="fil5" d="M12995 5058l-330 -93 96 -339 -767 -216 13 -260 1142 -754 291 82 -271 961 211 59 -79 281 -211 -60 -95 339zm-18 -1200l-554 371 417 117 137 -488z"/>
   <path class="fil8" d="M5346 3145l100 -346c169,56 316,68 457,6 164,-72 231,-197 167,-343 -60,-136 -211,-165 -377,-92 -100,44 -179,111 -241,176l-261 -45 -300 -806 980 -430 135 308 -679 298 103 283c56,-44 108,-80 197,-119 310,-136 624,-95 784,270 148,337 3,656 -364,817 -255,112 -481,103 -701,23z"/>
   <path class="fil9" d="M10955 4290c1,-11 10,-133 196,-140 0,0 -91,11 -107,51 0,0 62,-49 113,-33 51,16 81,105 81,134 1,29 -28,124 -60,132 -12,3 -26,2 -39,0 8,14 17,28 25,45 74,153 -2,302 -65,286 -41,-11 -52,58 -52,58l-393 -318c0,0 144,-299 301,-215z"/>
   <path class="fil10" d="M10188 6105c115,-12 252,-32 306,-65 83,-51 226,-263 315,-418 2,-4 8,-82 10,-86 46,-82 67,-31 69,-97 2,-39 -2,-73 -10,-103 -11,-39 -29,-70 -47,-94 -3,-3 -5,-7 -9,-10 -30,-36 -60,-52 -60,-52 -15,-6 -32,2 -49,20l0 1c-14,14 -29,36 -43,64 -1,1 -2,1 -2,2 -3,6 -6,12 -10,19 -1,1 -2,3 -2,4 -7,15 -14,30 -21,46 -78,169 -136,449 -205,526 -30,32 -190,73 -298,121 -78,34 -20,130 56,122z"/>
   <path class="fil2" d="M10819 8796l83 31c0,0 363,-503 407,-945 8,-79 6,-156 -12,-227 0,0 4,-20 10,-56 3,-16 7,-36 11,-60 11,-67 28,-159 46,-265 43,-242 98,-551 141,-779l-23 -7 -243 -79 -50 -159 -181 -48c0,0 -41,79 -77,453 -7,49 -13,103 -17,162 -14,179 -15,401 17,655 8,65 19,132 32,201 9,51 11,120 7,199 -19,362 -151,924 -151,924z"/>
   <path class="fil11" d="M10914 6817l393 782c3,-16 7,-36 11,-60 11,-67 28,-159 46,-265 43,-242 98,-551 141,-779l-23 -7 -243 -79 -50 -159 -248 -66c0,0 -27,484 -27,633z"/>
   <path class="fil2" d="M11087 6302l9 -78c152,41 560,-113 560,-113 0,0 148,130 129,441 -10,153 -27,799 -45,990 -7,69 -12,118 -15,138l0 0c-1,6 2,12 5,17 26,45 48,92 66,141 178,472 -27,1054 -27,1054l-53 -21c0,0 -117,-648 -211,-934 -16,-49 -32,-87 -46,-110 -41,-66 -79,-175 -114,-304 -65,-244 -118,-561 -153,-806 -5,0 -105,-415 -105,-415z"/>
   <path class="fil10" d="M10795 5355c48,22 106,37 176,41 262,14 322,-216 333,-368 -38,-14 -71,-13 -90,-12 -7,1 -15,1 -22,2 -26,2 -51,-9 -67,-30 -30,-38 -65,-106 -88,-201l-12 5 -189 89c0,0 20,62 35,121 6,25 12,50 14,70 2,18 -8,35 -25,43l0 0 0 0c-2,5 -43,110 -65,240z"/>
   <path class="fil12" d="M10836 4881c0,0 20,62 35,121 111,-31 144,-147 154,-210l-189 89z"/>
   <path class="fil10" d="M10813 4946c0,0 264,-61 224,-225 -41,-165 -34,-283 -205,-251 -171,32 -188,103 -188,161 1,58 99,327 169,315z"/>
   <path class="fil9" d="M10629 4538c29,-60 62,-56 83,-46 125,-115 247,-21 247,-21 47,114 149,160 149,160 0,0 -41,42 -159,41 -36,-1 -72,-17 -105,-40 63,64 138,103 138,103 -148,-28 -247,-199 -257,-217 -12,18 -36,58 -38,91 -3,45 13,132 -13,136 0,0 -87,-118 -45,-207z"/>
   <path class="fil8" d="M11552 5809c-9,-10 -17,-21 -24,-33 -19,-30 -30,-63 -34,-98 -14,-137 -9,-266 -10,-345l0 0c-15,-10 -28,-20 -42,-30 -19,-14 -37,-28 -50,-42 -14,-15 -23,-30 -24,-47 -1,-13 0,-27 1,-40 0,-6 1,-13 2,-19 10,-67 38,-127 38,-127 -70,-29 -232,-10 -232,-10 0,0 -16,133 -78,187 -24,23 -161,100 -223,21 -25,-32 -3,-115 -1,-122 0,0 -106,33 -167,92 -41,39 -64,111 -73,140 0,0 47,-2 84,24 -7,52 -11,111 11,167 2,5 4,10 6,16 67,143 190,736 190,736 37,114 801,-21 803,-118 29,-103 -103,-269 -177,-352z"/>
   <path class="fil13" d="M11146 6079c161,-1 298,-169 382,-303 -19,-30 -30,-63 -34,-98 -14,-137 -9,-266 -10,-345l0 0c-15,-10 -28,-20 -42,-30 -19,-14 -37,-28 -50,-42 -132,224 -465,821 -246,818z"/>
   <path class="fil14" d="M11460 8936l421 0c0,0 10,-64 -12,-113 -21,-46 -54,-68 -46,-124 -27,27 -71,58 -131,50 -8,12 -49,77 -73,95 -28,19 -150,12 -159,92z"/>
   <path class="fil14" d="M10557 8936l421 0c0,0 16,-67 -12,-113 -24,-40 -15,-63 3,-97 -19,8 -44,15 -71,14 -21,-1 -43,-11 -62,-22 -18,20 -96,108 -120,126 -28,19 -150,12 -159,92z"/>
   <path class="fil2" d="M9354 5559c53,-446 -239,-808 -792,-874 -545,-64 -892,215 -946,674 -53,446 241,794 786,858 546,65 899,-213 952,-658zm-3064 2563l682 -771c331,338 623,511 1047,561 617,74 1003,-354 1155,-1020 -269,179 -622,275 -1060,223 -1092,-130 -1724,-816 -1601,-1850 120,-1013 992,-1666 2126,-1532 675,81 1050,293 1386,718 316,402 488,976 369,1981 -194,1630 -1094,2652 -2523,2482 -733,-87 -1199,-390 -1581,-792z"/>
   <path class="fil10" d="M10502 6193l16 65c0,0 210,-44 257,-54l0 0c79,-19 168,-42 242,-67 53,-18 98,-38 129,-58 3,-2 6,-3 9,-6 74,-54 161,-212 230,-381 9,-23 18,-47 27,-69 31,-85 57,-168 72,-240 9,-43 16,-82 17,-115 1,-11 1,-22 1,-32 -2,-183 -93,-208 -93,-208 -2,-1 -3,-2 -6,-2 -16,-3 -32,8 -49,29 -22,26 -44,68 -68,119 -36,82 -74,187 -109,292 -20,57 -39,115 -58,168 -10,32 -21,63 -31,90 -20,53 -37,96 -53,124 -10,17 -39,42 -78,70 -67,48 -455,275 -455,275z"/>
   <path class="fil8" d="M11267 5181c122,-33 235,55 235,55 -2,-183 -93,-208 -93,-208 -36,-15 -98,55 -142,153z"/>
   <path class="fil10" d="M10542 6169c0,0 -107,42 -128,58 -20,16 -60,69 -67,97 0,0 0,12 11,12 11,-1 35,-41 52,-35 0,0 -22,54 -35,68 -13,14 -21,83 -18,98 2,15 92,-57 130,-89 20,-17 20,-59 26,-107 5,-41 120,-66 120,-66l-91 -36z"/>
   <path class="fil15" d="M5967 8473l-1620 0 0 -616 1625 0c132,0 238,107 238,238l0 134c0,135 -109,244 -243,244z"/>
   <path class="fil16" d="M7600 8110l0 93c0,50 -13,96 -34,136 -44,80 -125,134 -218,134l-3051 0c-20,0 -36,-18 -36,-39l0 -14c0,-22 16,-39 36,-39l1860 0c10,-13 19,-27 26,-42 17,-35 27,-75 27,-118l0 -118c0,-21 -2,-42 -7,-62 -9,-34 -23,-65 -43,-92l-1863 0c-20,0 -36,-17 -36,-39l0 -14c0,-21 16,-39 36,-39l3066 0c108,0 199,78 228,184 6,22 9,45 9,69z"/>
   <path class="fil17" d="M7591 8041l-1388 0c-9,-34 -23,-65 -43,-92l-1863 0c-20,0 -36,-17 -36,-39l0 -14c0,-21 16,-39 36,-39l3066 0c108,0 199,78 228,184z"/>
   <polygon class="fil18" points="4347,8165 4573,8175 4347,8182 "/>
   <polygon class="fil18" points="4347,8262 4885,8272 4347,8278 "/>
   <path class="fil19" d="M4892 8950l1590 0 0 -479 -1604 0c-120,0 -216,97 -216,216l0 33c0,127 103,230 230,230z"/>
   <path class="fil15" d="M6405 8950l1812 0 0 -479 -1817 0c-121,0 -219,99 -219,220l0 35c0,124 100,224 224,224z"/>
   <path class="fil19" d="M6061 8950l2217 0c19,0 34,-15 34,-33l0 -5c0,-19 -15,-34 -34,-34l-2217 0c-18,0 -33,15 -33,34l0 5c0,18 15,33 33,33z"/>
   <path class="fil19" d="M6061 8543l2217 0c19,0 34,-15 34,-33l0 -5c0,-19 -15,-34 -34,-34l-2217 0c-18,0 -33,15 -33,34l0 5c0,18 15,33 33,33z"/>
   <polygon class="fil18" points="8217,8711 7970,8719 8217,8724 "/>
   <polygon class="fil18" points="8217,8601 7630,8609 8217,8613 "/>
   <path class="fil8" d="M7636 8607c0,0 25,21 33,54 2,6 3,13 3,19 1,45 0,147 0,147l74 -51 74 51 0 -138c0,-26 -6,-51 -18,-68 -6,-8 -12,-14 -20,-14l-146 0z"/>
   <path class="fil13" d="M7636 8607c0,0 25,21 33,54l149 2c0,0 -6,-48 -36,-56l-146 0z"/>
   <path class="fil15" d="M6227 7859l-1711 0 0 -704 1717 0c144,0 262,118 262,262l0 174c0,148 -120,268 -268,268z"/>
   <path class="fil8" d="M6496 7428l0 152c-1,64 -33,120 -81,150 -24,15 -51,23 -80,23l-1871 0c-21,0 -39,20 -39,44l0 18c0,24 18,44 39,44l3232 0c93,0 175,-51 225,-129 31,-49 49,-108 49,-173l0 -119c0,-44 -9,-86 -25,-123 -42,-94 -130,-160 -232,-160l-3249 0c-21,0 -39,20 -39,44l0 18c0,24 18,44 39,44l1877 0c45,0 86,21 114,54 25,30 40,70 41,113z"/>
   <path class="fil13" d="M4425 7797l0 18c0,24 18,44 39,44l3232 0c93,0 175,-51 225,-129l-1506 0c-24,15 -51,23 -80,23l-1871 0c-21,0 -39,20 -39,44z"/>
   <polygon class="fil18" points="4516,7507 4756,7519 4516,7526 "/>
   <polygon class="fil18" points="4516,7345 5087,7357 4516,7364 "/>
   <path class="fil8" d="M6197 7355c0,0 -37,22 -50,59 -2,6 -3,13 -4,20 -2,49 0,159 0,159l-111 -55 -111 55 0 -149c0,-29 10,-56 28,-74 8,-9 19,-15 30,-15l218 0z"/>
   <path class="fil13" d="M6197 7355c0,0 -37,22 -50,59l-222 2c0,0 8,-53 54,-61l218 0z"/>
   <path class="fil10" d="M8499 4745c11,12 12,26 7,41l0 0c-10,28 -43,58 -81,89 -5,4 -10,7 -13,11 -1,1 -2,1 -3,2 -1,1 -2,2 -2,2 -36,33 -23,41 -86,107 -73,76 -123,77 -138,70 -12,-6 13,-46 40,-91 1,-2 3,-4 4,-7 3,-5 7,-12 11,-18 32,-54 23,-79 16,-160 -6,-66 -102,-367 -102,-367l139 -25c0,0 42,240 88,277 25,20 53,20 77,35 1,1 3,2 5,3 13,9 27,18 38,31z"/>
   <path class="fil20" d="M8499 4745c11,12 12,26 7,41l0 0c-13,28 -45,58 -81,89 -5,4 -10,7 -13,11 -1,1 -2,1 -3,2 -1,1 -2,2 -2,2 -36,33 -23,41 -86,107 -73,76 -123,77 -138,70 -12,-6 13,-46 40,-91 14,-5 80,-32 130,-96 44,-55 73,-127 103,-169 1,1 3,2 5,3 13,9 27,18 38,31z"/>
   <path class="fil10" d="M7374 4658c-9,43 -70,36 -139,19 -68,-17 -52,3 -150,-8 -97,-11 -127,-47 -130,-62 -2,-12 46,-17 97,-23 7,-1 14,-1 20,-2 58,-8 101,-45 154,-76 51,-30 126,-149 126,-149l133 11c0,0 -70,106 -97,153 -16,27 -15,63 -13,91 1,15 2,31 -1,46z"/>
   <path class="fil20" d="M7235 4677c-68,-17 -52,3 -150,-8 -97,-11 -127,-47 -130,-62 -2,-12 46,-17 97,-23l1 1c0,0 59,42 140,44 66,1 136,-18 182,-17 1,15 2,31 -1,46 -9,43 -70,36 -139,19z"/>
   <path class="fil13" d="M7887 3802l125 337 163 439c0,0 45,4 87,-8 39,-11 84,-41 84,-41 0,0 -45,-472 -130,-743 -22,-69 -46,-125 -73,-157 -131,-155 -256,173 -256,173z"/>
   <path class="fil8" d="M8014 3267c73,-24 268,1 477,40 44,8 89,-12 113,-51l10 -17 507 -39c0,0 163,369 76,608 -24,66 -279,75 -493,57 -252,-20 -534,-173 -571,-180 -59,-12 -83,107 -143,232 -59,125 -560,555 -560,555 0,0 -77,0 -109,-11 -34,-13 -47,-30 -47,-30 0,0 555,-1104 740,-1164z"/>
   <path class="fil21" d="M8544 2604c153,139 505,268 507,267 0,0 120,81 206,49 143,-53 262,-259 80,-503 -91,-122 -169,-165 -142,-319 29,-167 -36,-382 -229,-401 -16,-2 -113,-20 -184,-2 -181,47 -492,810 -238,909z"/>
   <path class="fil10" d="M8753 2401c0,1 80,51 144,39 61,-11 118,-90 117,-91 -24,-7 -41,-37 -28,-185l-12 2 -194 22c0,0 0,60 -5,117 -4,47 -10,92 -22,96z"/>
   <path class="fil22" d="M8780 2188c0,0 0,60 -5,117 107,5 172,-87 199,-139l-194 22z"/>
   <path class="fil10" d="M8740 2238c0,0 252,25 266,-132 13,-158 54,-260 -107,-283 -160,-23 -197,35 -214,86 -17,52 -10,319 55,329z"/>
   <path class="fil21" d="M8767 1798c0,0 32,192 176,238 105,33 152,11 152,11 0,0 -50,-66 -68,-160 -6,-27 -25,-50 -52,-58 -74,-25 -165,-92 -208,-31z"/>
   <path class="fil21" d="M8815 1839c0,0 -48,11 -90,72 -23,34 -50,118 -45,156 0,0 -44,-178 20,-244 68,-71 115,16 115,16z"/>
   <path class="fil2" d="M9208 2918c-5,20 -8,37 -12,53 -5,27 -8,49 -11,69 -7,62 -5,99 -10,139 -3,23 -9,46 -19,76 -11,29 -285,54 -441,44 -50,-3 -85,-14 -101,-22 -47,-24 -61,7 -57,-451 1,-248 210,-469 210,-469 0,0 17,106 230,-20 7,-4 91,120 172,272 88,169 64,204 39,309z"/>
   <path class="fil8" d="M8012 4139l163 439c0,0 45,4 87,-8 39,-11 84,-41 84,-41 0,0 -45,-472 -130,-743l-204 353z"/>
   <path class="fil2" d="M8767 2357c0,0 -179,16 -239,189 -32,92 -207,561 -207,561 0,0 140,19 191,-32 52,-52 175,-447 175,-447l80 -271z"/>
   <path class="fil10" d="M7876 2988l-52 -20c0,0 -31,-7 -48,-2 -17,5 -59,5 -59,12 0,6 48,28 48,28l1 -1c-18,42 -110,66 -114,81 -5,18 37,28 60,33 24,6 81,6 109,-24 20,-22 55,-51 55,-51l0 -56z"/>
   <path class="fil23" d="M8798 2146c0,0 -10,25 -38,25 -28,0 -36,-4 -41,-10 -5,-6 -11,-17 -11,-17 0,0 47,-9 90,2z"/>
   <path class="fil2" d="M8381 2927l-386 -90c0,0 -79,32 -45,90 0,0 349,219 480,195 150,-26 251,-307 251,-307l-300 112z"/>
   <path class="fil11" d="M9185 3040c-7,62 -5,99 -10,139 -199,1 -464,-153 -464,-153l474 14z"/>
   <path class="fil11" d="M8711 2896c0,0 309,-10 361,-185 57,-194 122,79 122,79l-35 174 -339 0 -109 -68z"/>
   <polygon class="fil19" points="7673,3169 7140,3304 7036,2898 7569,2762 7434,2232 7853,2125 7988,2655 8521,2520 8625,2926 8091,3062 8226,3592 7808,3699 "/>
   <path class="fil10" d="M8711 2936l-35 -43c0,0 -24,-21 -42,-25 -17,-3 -53,-24 -57,-18 -3,5 28,48 28,48l2 0c-36,27 -128,3 -139,14 -14,14 19,43 36,59 18,17 67,44 106,32 29,-9 74,-18 74,-18l27 -49z"/>
   <path class="fil2" d="M8997 2337c0,0 201,13 251,92 50,78 112,475 86,612 -26,137 -669,-26 -669,-26l21 -119c0,0 371,3 392,-46 28,-64 -81,-513 -81,-513z"/>
   <path class="fil10" d="M3539 6209c0,0 112,44 150,32 38,-12 103,-48 115,-78 11,-30 -77,8 -107,0 -30,-8 -62,-17 -121,0 -59,17 -37,46 -37,46z"/>
   <path class="fil24" d="M2522 8784c0,0 8,136 33,168l390 0c-3,-14 -14,-47 -63,-56 -61,-11 -164,-54 -201,-135 -39,-86 -159,23 -159,23z"/>
   <path class="fil24" d="M1831 8765c0,0 -26,169 8,172 4,1 160,0 202,7 70,10 185,1 185,1 14,1 24,-15 17,-28 -8,-13 -24,-28 -53,-33 -62,-12 -164,-57 -200,-139 -37,-86 -159,20 -159,20z"/>
   <path class="fil11" d="M2705 6971c0,0 -98,342 -379,937 -280,595 -302,866 -302,866l-193 -9c0,0 18,-708 151,-1008 132,-300 159,-1121 159,-1121l564 335z"/>
   <path class="fil2" d="M2862 6676c0,0 8,531 -84,1182 -92,651 -61,927 -61,927l-220 7c0,0 -131,-651 -93,-977 37,-326 -180,-1118 -180,-1118l638 -21z"/>
   <path class="fil10" d="M2428 5436l104 76 150 -31c-2,-14 -12,-70 -21,-122 -1,-3 -1,-6 -2,-9 -8,-43 -14,-81 -14,-81l-140 -70 -52 -26c0,1 4,49 4,56 10,123 -29,207 -29,207z"/>
   <path class="fil8" d="M2882 6694c9,95 -748,206 -751,48 -2,-140 81,-908 107,-1018 45,-195 86,-306 173,-331 32,-10 150,21 235,46 6,2 12,4 18,6 21,8 40,21 56,36 23,22 41,49 50,80 13,44 28,101 40,164 12,56 20,117 23,177 1,13 2,25 2,38 0,46 4,106 10,173 3,42 8,87 12,132 2,13 3,26 4,40 1,9 16,309 20,389 0,2 0,3 0,4l0 0c0,1 0,2 0,3 1,7 1,12 1,13z"/>
   <path class="fil25" d="M2468 5231c30,59 145,110 193,128 -1,-3 -1,-6 -2,-9 -8,-43 -14,-81 -14,-81l-140 -70c-31,0 -50,8 -37,32z"/>
   <path class="fil10" d="M2713 5261c0,0 -253,79 -299,-79 -47,-158 -111,-254 48,-311 159,-57 209,-6 237,43 28,49 78,322 14,347z"/>
   <path class="fil26" d="M2689 4898c0,0 -16,184 -54,176 -38,-8 -72,-14 -67,42 6,55 58,119 -59,129 -117,10 -285,-292 -253,-350 93,-165 567,-198 433,3z"/>
   <path class="fil13" d="M2671 5397c-3,-2 -204,-61 -225,-54 -22,8 -35,50 -35,50l309 88c0,0 -7,-67 -49,-84z"/>
   <path class="fil10" d="M3576 6163c0,0 36,-30 67,-37 31,-7 59,-35 59,-22 0,14 -24,47 -24,59 0,12 -102,0 -102,0z"/>
   <path class="fil13" d="M2845 6113c-161,-61 -283,-298 -283,-298l271 87c1,13 2,25 2,38 0,46 4,106 10,173z"/>
   <path class="fil8" d="M3581 6189l0 -1c7,-28 -6,-57 -32,-69 -101,-49 -362,-175 -392,-191 -30,-16 -337,-311 -428,-399 -16,-15 -39,-21 -60,-14l-254 83c-47,16 -56,78 -15,106 187,128 577,394 647,430 124,63 374,96 467,107 26,3 51,-12 61,-36 2,-5 4,-10 6,-16z"/>
   <path class="fil4" d="M3082 8783c0,6 0,13 1,19 2,19 8,37 17,53 7,13 15,25 26,35 27,27 65,44 106,44l2120 0c83,0 150,-68 150,-151 0,-41 -16,-79 -44,-106 -27,-28 -65,-45 -106,-45l-2120 0c-83,0 -150,68 -150,151z"/>
   <path class="fil4" d="M3243 8605l727 0c13,0 23,-10 23,-23 0,-13 -10,-23 -23,-23l-727 0c-13,0 -23,10 -23,23 0,13 10,23 23,23z"/>
   <polygon class="fil27" points="3283,8632 3362,8632 3362,8605 3283,8605 "/>
   <path class="fil27" d="M3100 8855c7,13 15,25 26,35 27,27 65,44 106,44l449 0 0 -79 -581 0z"/>
   <path class="fil8" d="M5783 8739l0 88c0,10 -1,19 -4,28 -12,46 -53,79 -103,79l-2207 0c-50,0 -91,-33 -103,-79 -3,-9 -4,-18 -4,-28l0 -88c0,-59 48,-107 107,-107l2207 0c59,0 107,48 107,107z"/>
   <path class="fil28" d="M5779 8855c-12,46 -53,79 -103,79l-2207 0c-50,0 -91,-33 -103,-79l2413 0z"/>
   <path class="fil2" d="M5564 8784c0,47 17,88 44,116 0,1 1,1 1,2 21,21 47,33 76,33 45,0 155,-68 224,-112 34,-23 58,-39 58,-39 0,0 -24,-17 -58,-39 -69,-45 -179,-113 -224,-113 -13,0 -25,3 -37,8 -20,8 -37,22 -51,40 -16,20 -26,46 -31,74l0 1c-2,9 -2,19 -2,29z"/>
   <path class="fil0" d="M5597 8680l339 93 -288 -133c-20,8 -37,22 -51,40z"/>
   <path class="fil8" d="M5887 8784c0,18 9,33 22,39 34,-23 58,-39 58,-39 0,0 -24,-17 -58,-39 -13,5 -22,21 -22,39z"/>
   <path class="fil29" d="M14751 8971l-14137 0c-9,0 -16,-7 -16,-16l0 -6c0,-9 7,-17 16,-17l14137 0c9,0 16,8 16,17l0 6c0,9 -7,16 -16,16z"/>
  </g>
 </g>
</svg>
