<?xml version="1.0" encoding="UTF-8"?>
<!DOCTYPE svg PUBLIC "-//W3C//DTD SVG 1.1//EN" "http://www.w3.org/Graphics/SVG/1.1/DTD/svg11.dtd">
<!-- Creator: CorelDRAW X8 -->
<svg xmlns="http://www.w3.org/2000/svg" xml:space="preserve" width="30mm" height="30mm" version="1.1" style="shape-rendering:geometricPrecision; text-rendering:geometricPrecision; image-rendering:optimizeQuality; fill-rule:evenodd; clip-rule:evenodd"
viewBox="0 0 3000 3000"
 xmlns:xlink="http://www.w3.org/1999/xlink">
 <defs>
  <style type="text/css">
   <![CDATA[
    .fil3 {fill:none}
    .fil0 {fill:#2F318B}
    .fil1 {fill:#F94144}
    .fil4 {fill:#F72D30;fill-rule:nonzero}
    .fil2 {fill:#FDA1A2;fill-rule:nonzero}
   ]]>
  </style>
 </defs>
 <g id="Layer_x0020_1">
  <metadata id="CorelCorpID_0Corel-Layer"/>
  <g id="_1827491013648">
   <path class="fil0" d="M134 1613c256,-879 1682,-1417 2409,-1289 54,280 -892,980 -666,1338 143,118 684,-86 814,-163 229,399 141,1058 -213,1394 -130,-470 5,-528 -119,-807 -373,-93 -1060,110 -1500,0 39,-719 1048,-775 1040,-1227 -478,-249 -1163,709 -1765,754z"/>
   <path class="fil1" d="M221 1513c254,-745 1611,-1233 2283,-1165 49,259 -940,1022 -672,1328 132,109 707,-46 828,-117 212,369 158,955 -170,1265 -120,-434 9,-524 -105,-781 -345,-86 -1037,102 -1443,0 -145,-530 1027,-759 1020,-1176 -429,-447 -1185,604 -1741,646z"/>
   <g>
    <path class="fil2" d="M430 1278c102,-90 352,-251 464,-323 48,-29 120,-73 174,-88 296,-104 151,-158 569,-165 68,-1 132,-15 199,-16 27,0 48,3 72,12 9,2 35,20 44,26 86,65 31,-47 -9,-85 -33,-24 -62,-33 -102,-39 -72,-9 -134,1 -204,0 -54,-1 -105,0 -158,4 -249,20 -241,94 -439,184 -73,13 -389,271 -456,326 -8,6 -246,194 -154,164z"/>
   </g>
   <path class="fil3" d="M410 1286c145,-106 513,-409 645,-455 212,-73 153,-181 582,-181 131,0 287,-64 363,91"/>
   <g>
    <path class="fil2" d="M1848 1187c-6,2 -135,161 -138,165 -15,18 -29,37 -43,56 -35,45 -69,91 -101,140 -11,17 -20,35 -29,53 -4,8 -6,16 -9,25 -2,6 -1,12 -1,18 0,6 2,11 3,16 3,8 7,14 13,20 3,7 72,93 74,95 17,19 35,39 57,53 6,6 20,12 28,14 1,0 2,0 2,0 5,2 11,1 16,2 26,-2 16,-13 11,-26 0,0 -2,-10 -2,-10 -2,-9 -4,-17 -8,-25 -2,-15 -23,-52 -30,-65 -18,-32 -37,-63 -59,-93 0,0 -15,-17 -16,-18 5,5 9,10 11,18 2,2 2,9 3,12 1,3 0,6 0,9 -1,2 1,-6 2,-6 6,-15 13,-31 21,-45 25,-50 52,-98 78,-147 36,-62 72,-124 107,-186 9,-16 45,-72 10,-75z"/>
   </g>
   <path class="fil3" d="M1855 1186c-40,47 -296,438 -276,458 27,27 129,180 157,178"/>
   <g>
    <path class="fil2" d="M2598 1807c20,42 2,116 -13,156 -4,8 -34,65 -34,67 -43,79 -94,204 -57,293 42,73 98,-122 104,-142 11,-41 23,-82 34,-123 18,-65 26,-108 16,-177 -3,-15 -37,-126 -50,-74z"/>
   </g>
   <path class="fil3" d="M2599 1795c67,213 -72,265 -72,545"/>
   <g>
    <path class="fil2" d="M1227 1769c-9,10 -62,40 -74,48 -8,4 -23,19 -30,26 -5,6 -8,11 -12,18 -2,3 -2,12 -3,15 0,7 0,12 3,18 4,12 10,19 20,26 16,10 31,14 50,17 36,6 168,16 196,-12 47,-67 -48,-85 -97,-86 -32,2 -63,6 -95,9 -4,0 -18,-2 -14,2 5,3 8,7 10,13 2,2 1,8 2,11 0,1 -1,4 -1,6 -6,5 5,-16 11,-25 0,-1 15,-22 17,-23 10,-15 52,-63 17,-63z"/>
   </g>
   <path class="fil3" d="M1237 1768c-254,202 57,96 154,127"/>
   <g>
    <path class="fil2" d="M2013 1802c11,2 70,48 80,55 18,13 32,20 53,27 33,15 129,1 146,-37 22,-50 -66,-64 -99,-61 -12,1 -29,5 -42,7 -20,5 -63,-2 -83,-6 -17,-3 -65,-14 -55,15z"/>
   </g>
   <path class="fil3" d="M2009 1795c126,58 151,59 282,18"/>
   <g>
    <path class="fil2" d="M2123 510c13,-5 57,10 69,14 4,2 22,11 25,11 2,1 15,3 15,6 -1,1 -5,0 -6,0 -7,-2 -13,-6 -18,-11 -5,-7 -8,-13 -10,-21 -1,-2 0,-7 -1,-9 -1,-2 -4,9 -4,10 -6,20 -7,46 11,61 31,17 73,-8 90,-35 0,-1 0,-1 0,-2 2,-6 4,-12 5,-19 1,-7 0,-13 0,-19 -2,-12 -6,-21 -14,-30 -7,-9 -15,-14 -26,-18 -3,-2 -15,-3 -19,-3 -5,-1 -26,2 -30,4 -19,6 -39,15 -58,21 1,0 -50,20 -29,40z"/>
   </g>
   <path class="fil3" d="M2118 505c183,-16 118,-25 118,73"/>
   <g>
    <path class="fil2" d="M2558 2551c-5,-16 43,-29 44,-30 17,-13 32,-28 47,-44 18,-17 39,-38 49,-60 4,-10 7,-19 4,-29 0,-3 -1,-8 -3,-10 0,-1 -2,-4 -2,-4 -1,-2 -4,-5 -5,-6 -1,-2 -2,-3 -3,-4 -6,-14 -6,-5 -12,-4 -1,0 -4,-1 -5,-1 -2,0 -5,-1 -8,-1 -6,-2 -10,-2 -16,-1 -13,-1 -22,2 -33,9 -4,2 -14,11 -17,15 -9,13 -19,34 -26,48 -13,28 -31,63 -38,93 -2,16 12,22 24,29z"/>
   </g>
   <path class="fil3" d="M2554 2549c1,-1 118,-186 118,-191"/>
   <g>
    <path class="fil4" d="M1421 1513c-8,13 -77,41 -90,46 -24,10 -51,24 -69,41 -14,13 -23,25 -30,43 -7,21 -8,39 -1,61 8,23 20,37 38,52 18,13 41,25 63,19 40,-19 14,-62 2,-93 -2,-2 -6,-11 -5,-14l-1 0c0,0 1,3 0,3 -2,0 5,-13 5,-13 -1,-5 72,-82 79,-89 11,-12 40,-51 9,-56z"/>
   </g>
   <path class="fil3" d="M1428 1513c-76,78 -253,148 -73,237"/>
   <g>
    <path class="fil4" d="M1836 1935c57,12 228,97 167,3 -2,-2 -24,-13 -24,-13 -100,-46 -226,-73 -335,-55 -25,5 -50,8 -75,13 -14,4 -29,7 -41,14 -5,3 -9,4 -13,7 -28,24 -5,39 21,48 5,5 33,9 40,12 29,5 58,7 88,5 13,0 25,-1 38,-1 86,-3 172,12 256,27 63,14 57,-57 30,-59 -35,-3 -240,-49 -152,-1z"/>
   </g>
   <path class="fil3" d="M1809 1922c445,126 36,-40 -155,-1 -40,8 -129,10 -145,19"/>
   <g>
    <path class="fil4" d="M2461 1769c8,-12 56,-25 69,-27 1,-1 3,-1 4,-1 14,-3 32,-6 46,-1 3,1 6,2 7,5 2,2 1,3 3,5 4,9 30,29 40,31 55,13 67,-69 31,-107 0,0 -4,-3 -4,-4 -14,-11 -26,-17 -44,-22 -16,-3 -29,-3 -46,0 -29,7 -49,20 -71,39 -5,2 -26,26 -30,31 -11,13 -31,43 -5,51z"/>
   </g>
   <path class="fil3" d="M2454 1768c86,-72 164,-121 209,9"/>
   <g>
    <path class="fil4" d="M2506 2685c3,-9 40,-26 48,-30 26,-11 76,-40 52,-75 -19,-29 -72,-37 -94,-10 -11,16 -15,54 -20,74 0,0 -12,40 14,41z"/>
   </g>
   <path class="fil3" d="M2499 2685c50,-62 43,-69 82,-127"/>
   <g>
    <path class="fil4" d="M1958 518c27,-9 122,-4 150,-1 6,2 11,3 17,4 6,1 8,2 14,3 3,2 -2,1 -5,0 -4,-2 -7,-5 -10,-8 -3,-3 -4,-10 -5,-12 -1,-2 0,-9 -1,-9 -54,39 -96,175 -76,244 38,67 103,-94 120,-128 14,-28 29,-58 38,-88 3,-12 4,-20 3,-32 -2,-9 -5,-15 -10,-23 -5,-7 -10,-11 -18,-16 -10,-5 -19,-7 -30,-8 -2,0 -24,2 -26,2 -29,7 -59,16 -88,24 -15,4 -118,30 -73,48z"/>
   </g>
   <path class="fil3" d="M1945 514c365,-51 153,-48 128,245"/>
   <g>
    <path class="fil4" d="M549 1251c59,-17 170,-37 236,-53 17,-3 29,-4 46,-6 8,-2 13,-4 20,-9 67,-30 327,-208 347,-277 -3,1 -5,2 -8,2 -3,0 -2,-1 -4,-2 -7,-4 19,-20 -7,-36 -7,-5 -20,3 -21,3 -29,-11 -141,73 -163,89 1,0 -180,141 -194,158 0,0 9,-6 13,-6 -50,16 -100,48 -150,70 -31,13 -184,57 -115,67z"/>
   </g>
   <path class="fil3" d="M528 1249c180,-30 231,-78 299,-92 0,-2 299,-223 343,-274 6,-7 13,-7 21,-6"/>
  </g>
 </g>
</svg>
