<?xml version="1.0" encoding="UTF-8"?>
<!DOCTYPE svg PUBLIC "-//W3C//DTD SVG 1.1//EN" "http://www.w3.org/Graphics/SVG/1.1/DTD/svg11.dtd">
<!-- Creator: CorelDRAW X8 -->
<svg xmlns="http://www.w3.org/2000/svg" xml:space="preserve" width="50mm" height="50mm" version="1.1" style="shape-rendering:geometricPrecision; text-rendering:geometricPrecision; image-rendering:optimizeQuality; fill-rule:evenodd; clip-rule:evenodd"
viewBox="0 0 5000 5000"
 xmlns:xlink="http://www.w3.org/1999/xlink">
 <defs>
  <style type="text/css">
   <![CDATA[
    .fil7 {fill:none}
    .fil4 {fill:#2F318B}
    .fil0 {fill:black}
    .fil1 {fill:#DBDBDB}
    .fil5 {fill:#F94144}
    .fil3 {fill:#FDA014}
    .fil2 {fill:#FDC63A}
    .fil8 {fill:#F72D30;fill-rule:nonzero}
    .fil6 {fill:#FDA1A2;fill-rule:nonzero}
   ]]>
  </style>
 </defs>
 <g id="Layer_x0020_1">
  <metadata id="CorelCorpID_0Corel-Layer"/>
  <polygon class="fil0" points="4889,4008 63,4008 63,907 4889,907 "/>
  <path class="fil1" d="M4535 4653l-4118 0c-196,0 -354,-144 -354,-323l0 -322 4826 0c0,0 0,144 0,322 0,179 -158,323 -354,323z"/>
  <polygon class="fil2" points="205,1049 205,3866 2551,3866 2551,1049 "/>
  <polygon class="fil3" points="4748,1049 2551,1049 2551,3866 4748,3866 "/>
  <g id="_2347671605872">
   <path class="fil4" d="M976 2629c231,-791 1515,-1276 2170,-1160 49,252 -804,882 -600,1205 129,106 616,-78 733,-148 207,360 128,953 -192,1256 -116,-424 4,-476 -107,-727 -336,-83 -954,100 -1350,1 34,-648 943,-699 936,-1106 -431,-224 -1048,638 -1590,679z"/>
   <path class="fil5" d="M1055 2540c228,-672 1450,-1111 2055,-1050 45,233 -846,921 -604,1196 118,98 637,-41 745,-106 191,333 143,860 -153,1140 -107,-391 8,-472 -95,-704 -310,-77 -933,92 -1299,1 -131,-478 925,-684 918,-1060 -386,-402 -1066,545 -1567,583z"/>
   <g>
    <path class="fil6" d="M1243 2327c92,-80 317,-225 418,-290 43,-27 108,-66 156,-80 267,-93 136,-142 513,-148 61,-1 119,-14 180,-15 23,1 42,3 64,12 8,1 32,17 39,22 78,59 28,-42 -8,-76 -29,-22 -56,-30 -91,-35 -65,-8 -121,1 -184,-1 -48,0 -94,1 -142,4 -225,19 -217,86 -396,166 -65,12 -350,244 -410,293 -7,6 -222,176 -139,148z"/>
   </g>
   <path class="fil7" d="M1225 2334c131,-95 462,-367 581,-409 191,-66 138,-163 524,-163 118,0 259,-57 327,82"/>
   <g>
    <path class="fil6" d="M2520 2245c-5,2 -121,145 -124,149 -13,16 -26,33 -39,50 -32,41 -62,83 -91,126 -10,16 -18,32 -26,49 -4,7 -5,14 -8,22 -2,5 -1,11 -1,17 -1,4 2,9 3,13 2,8 6,13 11,18 3,6 65,85 67,86 15,18 32,35 51,48 6,5 18,11 26,12 0,0 1,0 1,0 5,2 10,2 15,2 23,-1 14,-11 10,-23 0,0 -2,-9 -2,-9 -2,-9 -4,-16 -7,-23 -2,-13 -21,-46 -27,-59 -17,-28 -34,-56 -53,-83 0,0 -14,-15 -15,-17 5,6 8,10 10,17 2,2 2,8 3,11 0,2 0,5 -1,8 0,2 2,-6 2,-6 6,-13 13,-27 19,-40 23,-45 47,-89 71,-132 32,-56 64,-112 96,-168 8,-14 41,-65 9,-68z"/>
   </g>
   <path class="fil7" d="M2526 2245c-36,42 -266,394 -248,412 24,24 116,163 142,161"/>
   <g>
    <path class="fil6" d="M3195 2804c18,38 2,105 -11,140 -4,8 -31,59 -31,60 -39,72 -85,185 -51,265 38,66 88,-110 93,-128 11,-37 21,-74 31,-111 17,-58 23,-98 14,-159 -2,-14 -33,-114 -45,-67z"/>
   </g>
   <path class="fil7" d="M3197 2793c60,192 -66,239 -66,491"/>
   <g>
    <path class="fil6" d="M1961 2770c-8,9 -56,36 -67,43 -7,4 -21,17 -27,23 -4,6 -8,10 -11,17 -1,2 -2,10 -3,13 0,6 1,11 3,16 4,11 10,17 19,23 14,10 27,13 44,16 33,6 152,15 177,-11 42,-60 -44,-76 -87,-77 -29,1 -58,5 -86,7 -4,1 -16,-1 -13,2 5,4 7,7 9,13 2,1 2,7 2,9 0,1 -1,4 -1,5 -5,5 4,-13 10,-22 0,0 14,-19 15,-21 10,-13 47,-56 16,-56z"/>
   </g>
   <path class="fil7" d="M1970 2769c-229,182 51,87 139,114"/>
   <g>
    <path class="fil6" d="M2668 2800c10,1 64,43 73,49 16,11 28,18 47,24 31,14 117,1 132,-33 20,-45 -60,-58 -89,-55 -11,1 -26,4 -38,6 -18,5 -57,-1 -75,-5 -15,-3 -59,-12 -50,14z"/>
   </g>
   <path class="fil7" d="M2665 2793c114,53 136,53 254,16"/>
   <g>
    <path class="fil6" d="M2768 1636c11,-5 51,8 62,13 4,1 20,9 22,9 3,1 13,3 14,6 -1,1 -4,0 -5,0 -7,-2 -12,-5 -16,-10 -5,-6 -8,-12 -10,-19 0,-2 0,-6 0,-8 -1,-2 -4,8 -4,9 -6,18 -7,42 9,55 28,15 66,-7 82,-32 0,0 0,-1 0,-1 2,-6 3,-12 4,-18 1,-6 0,-11 0,-17 -2,-11 -5,-19 -12,-27 -7,-8 -14,-13 -24,-16 -3,-2 -13,-2 -17,-3 -4,0 -23,2 -27,4 -17,5 -35,13 -52,19 0,0 -45,18 -26,36z"/>
   </g>
   <path class="fil7" d="M2763 1631c165,-14 107,-22 107,66"/>
   <g>
    <path class="fil6" d="M3160 3474c-5,-15 38,-26 40,-27 15,-12 28,-25 41,-39 17,-16 35,-35 44,-55 4,-8 7,-17 5,-26 0,-3 -2,-7 -4,-9 0,-1 -2,-3 -2,-3 -1,-2 -3,-5 -4,-6 -1,-1 -2,-3 -3,-4 -5,-12 -5,-4 -11,-3 0,0 -3,-1 -4,-1 -2,0 -5,-1 -7,-1 -5,-1 -9,-2 -15,-1 -11,-1 -19,2 -29,9 -4,1 -13,9 -15,13 -9,11 -18,30 -24,43 -12,25 -28,57 -34,84 -2,15 11,20 22,26z"/>
   </g>
   <path class="fil7" d="M3156 3472c1,-1 107,-167 106,-172"/>
   <g>
    <path class="fil8" d="M2135 2539c-7,12 -69,37 -81,42 -21,9 -45,21 -62,36 -12,12 -20,23 -27,39 -6,19 -7,35 0,55 7,21 17,34 34,47 16,12 37,22 57,17 35,-17 12,-56 1,-84 -2,-2 -5,-10 -5,-12l0 0c0,0 1,3 0,2 -2,0 4,-11 4,-11 -1,-5 65,-74 71,-81 10,-11 36,-45 8,-50z"/>
   </g>
   <path class="fil7" d="M2141 2539c-68,71 -228,133 -65,213"/>
   <g>
    <path class="fil8" d="M2510 2919c51,11 205,88 150,3 -2,-2 -22,-12 -22,-12 -90,-41 -204,-66 -302,-49 -22,5 -45,7 -68,12 -12,3 -25,6 -36,12 -5,2 -8,4 -12,7 -25,21 -4,35 19,42 4,5 30,9 36,11 26,5 53,7 79,5 12,-1 23,-1 35,-1 77,-3 154,10 230,25 56,12 51,-52 27,-54 -32,-2 -216,-44 -136,-1z"/>
   </g>
   <path class="fil7" d="M2485 2908c400,113 32,-36 -140,-1 -36,7 -116,8 -130,17"/>
   <g>
    <path class="fil8" d="M3072 2769c7,-10 51,-22 62,-24 1,0 3,0 4,-1 13,-2 28,-5 41,-1 3,1 5,2 7,5 1,2 1,2 2,5 4,8 27,26 36,28 50,11 61,-63 29,-97 0,0 -4,-3 -4,-3 -13,-11 -24,-16 -40,-20 -15,-3 -26,-3 -41,0 -26,6 -44,18 -65,35 -4,2 -22,23 -26,28 -10,12 -28,39 -5,45z"/>
   </g>
   <path class="fil7" d="M3066 2769c78,-65 147,-109 188,8"/>
   <g>
    <path class="fil8" d="M3112 3595c4,-8 36,-24 44,-27 23,-10 68,-37 47,-68 -18,-26 -65,-33 -85,-9 -10,15 -13,49 -18,66 0,0 -11,37 12,38z"/>
   </g>
   <path class="fil7" d="M3107 3595c45,-56 38,-62 73,-115"/>
   <g>
    <path class="fil8" d="M2619 1643c25,-8 110,-4 135,-1 5,2 10,3 15,4 6,1 8,1 13,3 3,1 -2,0 -5,-1 -3,-2 -6,-4 -8,-7 -3,-2 -4,-8 -5,-11 -1,-1 0,-8 -1,-8 -48,36 -86,158 -68,220 34,60 92,-84 108,-115 12,-26 26,-53 34,-80 3,-10 4,-17 2,-28 -1,-8 -3,-14 -8,-21 -5,-6 -9,-10 -16,-14 -10,-5 -17,-7 -28,-7 -1,-1 -21,1 -23,2 -26,6 -53,14 -80,21 -13,4 -105,27 -65,43z"/>
   </g>
   <path class="fil7" d="M2608 1640c328,-47 137,-43 114,220"/>
   <g>
    <path class="fil8" d="M1351 2303c52,-15 152,-33 211,-48 16,-3 27,-4 42,-5 7,-2 12,-4 18,-8 61,-27 295,-187 312,-249 -2,1 -4,1 -6,1 -3,0 -3,-1 -5,-2 -5,-3 18,-18 -6,-32 -6,-4 -18,3 -18,3 -26,-10 -128,66 -147,80 0,0 -162,127 -175,142 0,0 8,-5 11,-5 -45,14 -89,43 -134,63 -28,12 -166,51 -103,60z"/>
   </g>
   <path class="fil7" d="M1332 2302c161,-28 207,-71 268,-83 0,-2 270,-201 310,-247 5,-7 11,-6 19,-6"/>
  </g>
 </g>
</svg>
