<?xml version="1.0" encoding="UTF-8"?>
<!DOCTYPE svg PUBLIC "-//W3C//DTD SVG 1.0//EN" "http://www.w3.org/TR/2001/REC-SVG-20010904/DTD/svg10.dtd">
<!-- Creator: CorelDRAW X8 -->
<svg xmlns="http://www.w3.org/2000/svg" xml:space="preserve" width="151mm" height="71mm" version="1.0" style="shape-rendering:geometricPrecision; text-rendering:geometricPrecision; image-rendering:optimizeQuality; fill-rule:evenodd; clip-rule:evenodd"
viewBox="0 0 15100 7100"
 xmlns:xlink="http://www.w3.org/1999/xlink">
 <defs>
  <style type="text/css">
   <![CDATA[
    .str1 {stroke:#4D5682;stroke-width:35.28}
    .str0 {stroke:#21285B;stroke-width:17.64;stroke-linecap:round;stroke-linejoin:round}
    .fil23 {fill:none;fill-rule:nonzero}
    .fil28 {fill:#0F2D3F;fill-rule:nonzero}
    .fil30 {fill:#133A4F;fill-rule:nonzero}
    .fil22 {fill:#319087;fill-rule:nonzero}
    .fil29 {fill:#461A16;fill-rule:nonzero}
    .fil18 {fill:#4D5682;fill-rule:nonzero}
    .fil24 {fill:#4FAE85;fill-rule:nonzero}
    .fil25 {fill:#6BDF8A;fill-rule:nonzero}
    .fil16 {fill:#77BFEF;fill-rule:nonzero}
    .fil15 {fill:#8CCAF0;fill-rule:nonzero}
    .fil2 {fill:#90CCF2;fill-rule:nonzero}
    .fil9 {fill:#93CDF2;fill-rule:nonzero}
    .fil11 {fill:#9CD1F2;fill-rule:nonzero}
    .fil1 {fill:#A1D3F2;fill-rule:nonzero}
    .fil4 {fill:#B5DBF4;fill-rule:nonzero}
    .fil5 {fill:#BADDF4;fill-rule:nonzero}
    .fil12 {fill:#BFE1F6;fill-rule:nonzero}
    .fil13 {fill:#C1E1F6;fill-rule:nonzero}
    .fil32 {fill:#C8CDD8;fill-rule:nonzero}
    .fil7 {fill:#CAE6F6;fill-rule:nonzero}
    .fil0 {fill:#CFE6F6;fill-rule:nonzero}
    .fil8 {fill:#E4F0F9;fill-rule:nonzero}
    .fil10 {fill:#EDF4F9;fill-rule:nonzero}
    .fil3 {fill:#F7F9FB;fill-rule:nonzero}
    .fil6 {fill:#FBFBFB;fill-rule:nonzero}
    .fil27 {fill:#FDC3AC;fill-rule:nonzero}
    .fil31 {fill:#FF3A46;fill-rule:nonzero}
    .fil21 {fill:white;fill-rule:nonzero}
    .fil26 {fill:white;fill-rule:nonzero;fill-opacity:0.301961}
    .fil17 {fill:#E4F0F9;fill-rule:nonzero;fill-opacity:0.431373}
    .fil14 {fill:#54B1EB;fill-rule:nonzero;fill-opacity:0.470588}
    .fil20 {fill:url(#id0);fill-rule:nonzero}
    .fil19 {fill:url(#id1);fill-rule:nonzero}
   ]]>
  </style>
  <linearGradient id="id0" gradientUnits="userSpaceOnUse" x1="6643.53" y1="5303.23" x2="6643.53" y2="6296.16">
   <stop offset="0" style="stop-opacity:1; stop-color:#EDF4FB"/>
   <stop offset="0.45098" style="stop-opacity:1; stop-color:#DEEBF7"/>
   <stop offset="1" style="stop-opacity:1; stop-color:#CFE1F2"/>
  </linearGradient>
  <linearGradient id="id1" gradientUnits="userSpaceOnUse" xlink:href="#id0" x1="6969.75" y1="6185.26" x2="6969.75" y2="7012.03">
  </linearGradient>
 </defs>
 <g id="Layer_x0020_1">
  <metadata id="CorelCorpID_0Corel-Layer"/>
  <g id="_2449494049616">
   <g>
    <g>
     <path class="fil0" d="M8612 3363l287 0 0 -207 -287 0 0 207z"/>
     <path class="fil1" d="M8445 5870l0 -2648 664 0 0 2648 -664 0z"/>
     <g>
      <path class="fil2" d="M9238 4380l0 156 48 0 0 314 162 0 0 2178 -848 0 0 -2648 638 0z"/>
     </g>
     <g>
      <g>
       <path class="fil3" d="M7635 2576l-278 0 0 -28 278 0 0 28z"/>
       <path class="fil4" d="M7705 3055l-417 0 0 -479 417 0 0 479z"/>
      </g>
      <g>
       <g>
        <path class="fil5" d="M8130 4055l56 0 0 -2368 -56 0 0 2368z"/>
        <path class="fil5" d="M8254 4055l56 0 0 -2368 -56 0 0 2368z"/>
       </g>
       <path class="fil6" d="M8455 5014l-889 0 0 -2637 889 0 0 2637z"/>
       <g>
        <path class="fil7" d="M8075 2688l-76 0 0 -121 76 0 0 121z"/>
        <path class="fil7" d="M8075 2892l-76 0 0 -122 76 0 0 122z"/>
        <path class="fil7" d="M8237 3095l-75 0 0 -122 75 0 0 122z"/>
       </g>
       <path class="fil8" d="M9022 4119l-999 0 0 -794 999 794z"/>
       <path class="fil6" d="M6909 7028l0 -3956 1202 0 0 3956 -1202 0z"/>
       <path class="fil5" d="M7972 7028l0 -2974 1102 0 0 2974 -1102 0z"/>
       <path class="fil1" d="M7876 7028l0 -2648 664 0 0 2648 -664 0z"/>
       <path class="fil6" d="M7635 2956l-726 0 0 116 726 0 0 -116z"/>
      </g>
     </g>
     <g>
      <path class="fil7" d="M8008 5177l571 0 0 -109 -571 0 0 109z"/>
      <path class="fil7" d="M8008 5376l571 0 0 -109 -571 0 0 109z"/>
      <path class="fil7" d="M8008 5575l571 0 0 -109 -571 0 0 109z"/>
      <path class="fil7" d="M8008 5774l571 0 0 -109 -571 0 0 109z"/>
      <path class="fil7" d="M8008 5973l571 0 0 -109 -571 0 0 109z"/>
      <path class="fil7" d="M8008 6172l571 0 0 -109 -571 0 0 109z"/>
      <path class="fil7" d="M8008 6371l571 0 0 -109 -571 0 0 109z"/>
      <path class="fil7" d="M8008 6570l571 0 0 -109 -571 0 0 109z"/>
      <path class="fil7" d="M8008 6769l571 0 0 -109 -571 0 0 109z"/>
     </g>
    </g>
    <g>
     <g>
      <path class="fil9" d="M10692 3857l0 -2620 344 0 0 2620 -344 0z"/>
      <path class="fil5" d="M10427 4573l0 -3237 1252 0 0 3237 -1252 0z"/>
      <g>
       <path class="fil6" d="M11312 1896l-72 0 0 -169 72 0 0 169z"/>
       <path class="fil1" d="M11433 1912l-72 0 0 -169 72 0 0 169z"/>
       <path class="fil6" d="M11189 2113l-73 0 0 -169 73 0 0 169z"/>
       <path class="fil6" d="M11433 2113l-72 0 0 -169 72 0 0 169z"/>
       <path class="fil0" d="M11312 2331l-72 0 0 -169 72 0 0 169z"/>
       <path class="fil1" d="M11189 2564l-73 0 0 -169 73 0 0 169z"/>
       <path class="fil1" d="M11312 2548l-72 0 0 -169 72 0 0 169z"/>
       <path class="fil6" d="M11433 2548l-72 0 0 -169 72 0 0 169z"/>
       <path class="fil6" d="M11189 2982l-73 0 0 -169 73 0 0 169z"/>
       <path class="fil6" d="M11433 2982l-72 0 0 -169 72 0 0 169z"/>
       <path class="fil6" d="M11312 3199l-72 0 0 -169 72 0 0 169z"/>
       <path class="fil1" d="M11433 3199l-72 0 0 -169 72 0 0 169z"/>
       <path class="fil0" d="M11189 3416l-73 0 0 -169 73 0 0 169z"/>
       <path class="fil0" d="M11312 3633l-72 0 0 -169 72 0 0 169z"/>
      </g>
     </g>
     <g>
      <g>
       <path class="fil8" d="M10286 3822l227 0 0 -70 -227 0 0 70z"/>
       <path class="fil8" d="M10257 3837l285 0 0 -30 -285 0 0 30z"/>
       <path class="fil9" d="M10185 4341l428 0 0 -504 -428 0 0 504z"/>
      </g>
      <path class="fil1" d="M11867 7028l0 -3880 -1232 -655 -457 0 0 -116 -18 0 0 1025 -93 0 0 -689 -504 0 0 689 -84 0 0 1063 -95 0 0 2563 2483 0z"/>
      <path class="fil5" d="M10891 2629l0 4399 976 0 0 -3880 -976 -519z"/>
      <path class="fil10" d="M10675 7028l0 -3446 -582 0 0 3446 582 0z"/>
      <g>
       <path class="fil11" d="M10574 6115l-47 0 0 -2194 47 0 0 2194z"/>
       <path class="fil11" d="M10468 6115l-48 0 0 -2194 48 0 0 2194z"/>
       <path class="fil11" d="M10362 6115l-48 0 0 -2194 48 0 0 2194z"/>
       <path class="fil11" d="M10256 6115l-48 0 0 -2194 48 0 0 2194z"/>
      </g>
      <path class="fil5" d="M11236 3919l-336 0 0 -408 336 0 0 408z"/>
     </g>
    </g>
    <path class="fil1" d="M6644 7028l0 -2908 432 0 0 2908 -432 0z"/>
    <path class="fil0" d="M5600 4438l754 0 0 -394 -754 0 0 394z"/>
    <path class="fil2" d="M5696 3841l233 0 0 -395 -233 0 0 395z"/>
    <path class="fil2" d="M5844 3970l305 0 0 -300 -305 0 0 300z"/>
    <path class="fil2" d="M5558 3804l21 0 0 -1054 -21 0 0 1054z"/>
    <path class="fil1" d="M6132 7028l0 -3366 798 0 0 3366 -798 0z"/>
    <g>
     <path class="fil2" d="M7100 1139l413 0 0 -485 -413 0 0 485z"/>
     <g>
      <path class="fil12" d="M5096 7028l48 -3053 57 0 0 -313 944 -112 0 617 112 0 0 -3358 209 0 0 -759 59 0 0 759 1073 0 0 3281 121 0 0 2938 -2623 0z"/>
      <g>
       <path class="fil7" d="M7321 2430l-74 0 0 -175 74 0 0 175z"/>
       <path class="fil7" d="M7446 2446l-74 0 0 -174 74 0 0 174z"/>
       <path class="fil7" d="M7194 2654l-75 0 0 -174 75 0 0 174z"/>
       <path class="fil7" d="M7446 2654l-74 0 0 -174 74 0 0 174z"/>
       <path class="fil7" d="M7321 2879l-74 0 0 -175 74 0 0 175z"/>
       <path class="fil7" d="M7194 3120l-75 0 0 -175 75 0 0 175z"/>
       <path class="fil7" d="M7194 5929l-75 0 0 -175 75 0 0 175z"/>
       <path class="fil7" d="M7194 6394l-75 0 0 -174 75 0 0 174z"/>
       <path class="fil7" d="M7321 3103l-74 0 0 -175 74 0 0 175z"/>
       <path class="fil7" d="M7446 3103l-74 0 0 -175 74 0 0 175z"/>
       <path class="fil7" d="M7194 3552l-75 0 0 -175 75 0 0 175z"/>
       <path class="fil7" d="M7446 3552l-74 0 0 -175 74 0 0 175z"/>
       <path class="fil7" d="M7321 3776l-74 0 0 -174 74 0 0 174z"/>
       <path class="fil7" d="M7446 3776l-74 0 0 -174 74 0 0 174z"/>
       <path class="fil7" d="M7446 4731l-74 0 0 -174 74 0 0 174z"/>
       <path class="fil7" d="M7446 5180l-74 0 0 -174 74 0 0 174z"/>
       <path class="fil7" d="M7446 5405l-74 0 0 -175 74 0 0 175z"/>
       <path class="fil7" d="M7194 4001l-75 0 0 -175 75 0 0 175z"/>
       <path class="fil7" d="M7321 4225l-74 0 0 -175 74 0 0 175z"/>
      </g>
      <path class="fil1" d="M5996 6984l-595 0 0 -2678 595 0 0 2678z"/>
      <g>
       <path class="fil7" d="M6646 3696l-117 0 0 -214 117 0 0 214z"/>
       <path class="fil7" d="M5568 4056l-117 0 0 -215 117 0 0 215z"/>
      </g>
      <g>
       <path class="fil10" d="M5250 4764l409 0 0 -128 -409 0 0 128z"/>
       <path class="fil10" d="M5250 4997l409 0 0 -128 -409 0 0 128z"/>
       <path class="fil10" d="M5250 5231l409 0 0 -128 -409 0 0 128z"/>
       <path class="fil10" d="M5250 5464l409 0 0 -128 -409 0 0 128z"/>
       <path class="fil10" d="M5250 5698l409 0 0 -128 -409 0 0 128z"/>
       <path class="fil10" d="M5250 5931l409 0 0 -128 -409 0 0 128z"/>
       <path class="fil10" d="M5250 6164l409 0 0 -127 -409 0 0 127z"/>
       <path class="fil10" d="M5250 6398l409 0 0 -128 -409 0 0 128z"/>
       <path class="fil10" d="M5250 6631l409 0 0 -127 -409 0 0 127z"/>
      </g>
     </g>
     <path class="fil1" d="M7584 6984l-1033 0 0 -5823 1033 0 0 5823z"/>
     <g>
      <path class="fil7" d="M7067 1549l573 0 0 -76 -573 0 0 76z"/>
      <path class="fil7" d="M7067 1687l573 0 0 -76 -573 0 0 76z"/>
      <path class="fil7" d="M7067 1825l573 0 0 -76 -573 0 0 76z"/>
      <path class="fil7" d="M7067 1963l573 0 0 -75 -573 0 0 75z"/>
      <path class="fil7" d="M7067 2101l573 0 0 -75 -573 0 0 75z"/>
      <path class="fil7" d="M7067 2240l573 0 0 -76 -573 0 0 76z"/>
      <path class="fil7" d="M7067 2378l573 0 0 -76 -573 0 0 76z"/>
      <path class="fil7" d="M7067 2516l573 0 0 -76 -573 0 0 76z"/>
      <path class="fil7" d="M7067 2654l573 0 0 -76 -573 0 0 76z"/>
     </g>
     <g>
      <path class="fil7" d="M7067 2788l573 0 0 -76 -573 0 0 76z"/>
      <path class="fil7" d="M7067 2926l573 0 0 -76 -573 0 0 76z"/>
      <path class="fil7" d="M7067 3064l573 0 0 -76 -573 0 0 76z"/>
      <path class="fil7" d="M7067 3202l573 0 0 -75 -573 0 0 75z"/>
      <path class="fil7" d="M7067 3340l573 0 0 -75 -573 0 0 75z"/>
      <path class="fil7" d="M7067 3479l573 0 0 -76 -573 0 0 76z"/>
      <path class="fil7" d="M7067 3617l573 0 0 -76 -573 0 0 76z"/>
      <path class="fil7" d="M7067 3755l573 0 0 -76 -573 0 0 76z"/>
      <path class="fil7" d="M7067 3893l573 0 0 -76 -573 0 0 76z"/>
     </g>
    </g>
    <g>
     <g>
      <g>
       <path class="fil8" d="M13635 4089l144 0 0 -69 -144 0 0 69z"/>
       <path class="fil8" d="M13617 4105l181 0 0 -31 -181 0 0 31z"/>
       <path class="fil8" d="M13572 4183l271 0 0 -78 -271 0 0 78z"/>
       <path class="fil8" d="M13690 3335l34 0 -12 -363 -10 0 -12 363z"/>
       <path class="fil8" d="M13669 3329l0 706 77 0 0 -706 -77 0zm43 310l0 0 11 0 0 366 -11 0 0 -366zm-20 0l0 0 10 0 0 366 -10 0 0 -366z"/>
      </g>
      <g>
       <path class="fil1" d="M13360 6829l550 0 0 -3155 -550 0 0 3155z"/>
       <g>
        <path class="fil1" d="M13572 4113l126 0 0 -294 -126 0 0 294z"/>
       </g>
       <path class="fil1" d="M13615 7024l0 -2757 550 0 0 2757 -550 0z"/>
       <path class="fil5" d="M13320 7024l0 -1920 729 0 0 1920 -729 0z"/>
       <path class="fil1" d="M13852 5141l0 -874 76 0 0 874 -76 0z"/>
       <path class="fil6" d="M13524 4168l641 0 0 99 -641 0 0 -99z"/>
      </g>
     </g>
     <path class="fil4" d="M13124 4190l0 -2104 -145 0 0 -100 -33 0 0 -16 -13 0 0 -27 -25 0 0 -209 -15 0 -9 -182 -7 0 -8 182 -16 0 0 209 -25 0 0 27 -13 0 0 16 -33 0 0 100 -404 0 -234 325 0 1779 980 0zm-247 -2255l0 0 -7 0 0 -187 7 0 0 187zm15 0l0 0 -8 0 0 -187 8 0 0 187z"/>
     <g>
      <g>
       <path class="fil9" d="M12475 3075l-458 0 0 -408 458 0 0 408z"/>
      </g>
      <path class="fil9" d="M12554 5760l-859 0 0 -2427 859 0 0 2427z"/>
      <path class="fil6" d="M11884 3424l-189 -91 859 0 -670 91z"/>
      <path class="fil1" d="M13408 2485l0 680 -457 0 0 -262 -250 0 0 -109 -133 0 0 109 -627 0c-3,4 -5,8 -7,13l0 1165 -263 0 0 2947 1779 0 0 -4543 -42 0z"/>
      <path class="fil6" d="M12059 4350l-466 0 0 -65 466 0 0 65z"/>
      <path class="fil6" d="M12059 4521l-466 0 0 -65 466 0 0 65z"/>
      <path class="fil6" d="M12059 4676l-466 0 0 -65 466 0 0 65z"/>
      <path class="fil6" d="M12059 4831l-466 0 0 -65 466 0 0 65z"/>
      <path class="fil6" d="M12059 4986l-466 0 0 -65 466 0 0 65z"/>
      <path class="fil6" d="M12059 5141l-466 0 0 -65 466 0 0 65z"/>
      <path class="fil6" d="M12059 5296l-466 0 0 -65 466 0 0 65z"/>
      <path class="fil6" d="M12059 5451l-466 0 0 -65 466 0 0 65z"/>
      <path class="fil6" d="M12059 5606l-466 0 0 -65 466 0 0 65z"/>
      <path class="fil6" d="M12059 5762l-466 0 0 -66 466 0 0 66z"/>
      <path class="fil6" d="M12059 5917l-466 0 0 -66 466 0 0 66z"/>
      <path class="fil0" d="M13450 7028l-1204 0 0 -3864 1204 0 0 3864z"/>
      <g>
       <path class="fil6" d="M12981 4156l-93 0 0 -139 93 0 0 139z"/>
       <path class="fil1" d="M13136 4169l-93 0 0 -139 93 0 0 139z"/>
       <path class="fil6" d="M12823 4334l-92 0 0 -139 92 0 0 139z"/>
       <path class="fil0" d="M12981 4512l-93 0 0 -139 93 0 0 139z"/>
       <path class="fil6" d="M12981 3470l-93 0 0 -138 93 0 0 138z"/>
       <path class="fil0" d="M12981 3827l-93 0 0 -139 93 0 0 139z"/>
       <path class="fil1" d="M12981 4690l-93 0 0 -139 93 0 0 139z"/>
       <path class="fil6" d="M13136 4014l-93 0 0 -139 93 0 0 139z"/>
       <path class="fil6" d="M12823 5955l-92 0 0 -138 92 0 0 138z"/>
       <path class="fil6" d="M13136 5046l-93 0 0 -139 93 0 0 139z"/>
       <path class="fil6" d="M12981 5224l-93 0 0 -139 93 0 0 139z"/>
       <path class="fil1" d="M13136 5224l-93 0 0 -139 93 0 0 139z"/>
       <path class="fil0" d="M12823 5402l-92 0 0 -138 92 0 0 138z"/>
       <path class="fil0" d="M12981 5961l-93 0 0 -139 93 0 0 139z"/>
       <path class="fil6" d="M13136 5580l-93 0 0 -138 93 0 0 138z"/>
       <path class="fil0" d="M12823 6155l-92 0 0 -139 92 0 0 139z"/>
       <path class="fil6" d="M13136 6333l-93 0 0 -139 93 0 0 139z"/>
       <path class="fil6" d="M13349 3869l-93 0 0 -139 93 0 0 139z"/>
       <path class="fil0" d="M13349 4225l-93 0 0 -139 93 0 0 139z"/>
       <path class="fil0" d="M13349 3540l-93 0 0 -139 93 0 0 139z"/>
       <path class="fil1" d="M13349 4403l-93 0 0 -139 93 0 0 139z"/>
       <path class="fil6" d="M13349 4937l-93 0 0 -138 93 0 0 138z"/>
       <path class="fil0" d="M13349 5674l-93 0 0 -139 93 0 0 139z"/>
      </g>
     </g>
    </g>
    <g>
     <path class="fil13" d="M7076 6205l92 0 0 138 -92 0 0 -138z"/>
     <path class="fil14" d="M6921 6192l92 0 0 138 -92 0 0 -138z"/>
     <path class="fil13" d="M7233 6027l93 0 0 138 -93 0 0 -138z"/>
     <path class="fil15" d="M7076 5849l92 0 0 138 -92 0 0 -138z"/>
     <path class="fil13" d="M7076 6890l92 0 0 138 -92 0 0 -138z"/>
     <path class="fil15" d="M7076 6534l92 0 0 138 -92 0 0 -138z"/>
     <path class="fil14" d="M7076 5671l92 0 0 138 -92 0 0 -138z"/>
     <path class="fil13" d="M6921 6347l92 0 0 138 -92 0 0 -138z"/>
     <path class="fil13" d="M7233 4405l93 0 0 139 -93 0 0 -139z"/>
     <path class="fil13" d="M6921 5314l92 0 0 139 -92 0 0 -139z"/>
     <path class="fil13" d="M7076 5136l92 0 0 139 -92 0 0 -139z"/>
     <path class="fil14" d="M6921 5136l92 0 0 139 -92 0 0 -139z"/>
     <path class="fil15" d="M7233 4958l93 0 0 139 -93 0 0 -139z"/>
     <path class="fil15" d="M7076 4400l92 0 0 138 -92 0 0 -138z"/>
     <path class="fil13" d="M6921 4780l92 0 0 139 -92 0 0 -139z"/>
     <path class="fil15" d="M7233 4206l93 0 0 138 -93 0 0 -138z"/>
     <path class="fil13" d="M6921 4028l92 0 0 138 -92 0 0 -138z"/>
    </g>
    <g>
     <path class="fil6" d="M9790 5259l-93 0 0 -138 93 0 0 138z"/>
     <path class="fil1" d="M9945 5273l-93 0 0 -139 93 0 0 139z"/>
     <path class="fil6" d="M9632 5437l-92 0 0 -138 92 0 0 138z"/>
     <path class="fil0" d="M9790 5615l-93 0 0 -138 93 0 0 138z"/>
     <path class="fil6" d="M9790 4574l-93 0 0 -138 93 0 0 138z"/>
     <path class="fil0" d="M9790 4930l-93 0 0 -138 93 0 0 138z"/>
     <path class="fil1" d="M9790 5794l-93 0 0 -139 93 0 0 139z"/>
     <path class="fil6" d="M9945 5117l-93 0 0 -138 93 0 0 138z"/>
     <path class="fil6" d="M9945 6150l-93 0 0 -139 93 0 0 139z"/>
     <path class="fil6" d="M9790 6328l-93 0 0 -139 93 0 0 139z"/>
     <path class="fil1" d="M9945 6328l-93 0 0 -139 93 0 0 139z"/>
     <path class="fil0" d="M9632 6506l-92 0 0 -139 92 0 0 139z"/>
     <path class="fil6" d="M9945 6684l-93 0 0 -139 93 0 0 139z"/>
    </g>
    <g>
     <g>
      <path class="fil8" d="M3197 3794l-170 0 0 -52 170 0 0 52z"/>
      <path class="fil8" d="M3218 3805l-213 0 0 -22 213 0 0 22z"/>
      <path class="fil9" d="M3272 4182l-320 0 0 -377 320 0 0 377z"/>
     </g>
     <path class="fil1" d="M1898 7028l0 -2898 125 190 341 0 0 -766 14 0 0 766 69 0 0 -515 377 0 0 515 63 0 0 793 70 0 0 1915 -1059 0z"/>
     <path class="fil10" d="M2524 7028l0 -2574 434 0 0 2574 -434 0z"/>
     <g>
      <path class="fil11" d="M2599 6058l36 0 0 -1640 -36 0 0 1640z"/>
      <path class="fil11" d="M2678 6058l36 0 0 -1640 -36 0 0 1640z"/>
      <path class="fil11" d="M2758 6058l35 0 0 -1640 -35 0 0 1640z"/>
      <path class="fil11" d="M2837 6058l36 0 0 -1640 -36 0 0 1640z"/>
     </g>
     <path class="fil2" d="M2559 7028l783 0 0 -4400 -783 0 0 4400z"/>
     <g>
      <path class="fil9" d="M2620 2916l310 0 0 -407 -310 0 0 407z"/>
     </g>
     <path class="fil8" d="M1517 5807l474 0 0 -1557 -474 1557z"/>
     <path class="fil2" d="M1314 4921l582 0 0 -2427 -582 0 0 2427z"/>
     <path class="fil6" d="M1768 2584l128 -90 -582 0 454 90z"/>
     <g>
      <path class="fil3" d="M1942 4070l270 0 0 -26 -270 0 0 26z"/>
     </g>
     <path class="fil0" d="M813 7028l0 -4543 175 0 0 680 90 0 0 -262 170 0 0 -231 89 0 0 231 430 0 0 1178 260 0 0 807 244 0 0 719 81 0 0 -1509 94 -644 333 10 65 429 0 3135 -2031 0z"/>
     <g>
      <path class="fil2" d="M1131 7007l0 -3841 55 0 0 3841 -55 0z"/>
      <path class="fil2" d="M1253 7007l0 -3841 54 0 0 3841 -54 0z"/>
      <path class="fil2" d="M1374 7007l0 -1909 55 0 0 1909 -55 0z"/>
      <path class="fil2" d="M1496 7007l0 -1909 54 0 0 1909 -54 0z"/>
     </g>
     <path class="fil5" d="M2433 3493l251 0 0 -306 -251 0 0 306z"/>
     <path class="fil2" d="M1321 7028l0 -2020 366 0 0 2020 -366 0z"/>
     <g>
      <path class="fil1" d="M3072 7028l0 -5031 664 0 0 5031 -664 0z"/>
      <g>
       <g>
        <path class="fil4" d="M3934 1709l866 0 0 -87 -866 0 0 87z"/>
        <path class="fil4" d="M3934 1868l866 0 0 -87 -866 0 0 87z"/>
        <path class="fil4" d="M3934 2027l866 0 0 -87 -866 0 0 87z"/>
        <path class="fil4" d="M3934 2186l866 0 0 -87 -866 0 0 87z"/>
        <path class="fil4" d="M3934 2346l866 0 0 -88 -866 0 0 88z"/>
        <path class="fil4" d="M3934 2505l866 0 0 -87 -866 0 0 87z"/>
        <path class="fil4" d="M3934 2664l866 0 0 -87 -866 0 0 87z"/>
        <path class="fil4" d="M3934 2823l866 0 0 -87 -866 0 0 87z"/>
        <path class="fil4" d="M3934 2982l866 0 0 -87 -866 0 0 87z"/>
       </g>
       <path class="fil4" d="M3166 7028l1550 0 14 -5512 -1564 -185 0 5697z"/>
       <path class="fil16" d="M3166 7028l314 0 18 -5524 -332 -173 0 5697z"/>
       <path class="fil6" d="M3498 1504l1232 12 -1564 -185 332 173z"/>
      </g>
      <g>
       <path class="fil1" d="M3731 7028l0 -3787 638 0 342 406 0 3381 -980 0z"/>
       <path class="fil5" d="M4711 3647l-342 -406 -638 0 980 406z"/>
       <path class="fil17" d="M4134 7028l0 -2747 47 0 0 2747 -47 0z"/>
       <path class="fil17" d="M4238 7028l0 -2747 47 0 0 2747 -47 0z"/>
       <path class="fil17" d="M4342 7028l0 -2747 47 0 0 2747 -47 0z"/>
       <path class="fil17" d="M4446 7028l0 -2747 47 0 0 2747 -47 0z"/>
      </g>
      <path class="fil0" d="M3552 7028l382 0 0 -2653 -382 0 0 2653z"/>
      <path class="fil0" d="M4693 7028l287 0 0 -3405 -287 0 0 3405z"/>
     </g>
     <g>
      <path class="fil6" d="M2897 6304l61 0 0 142 -61 0 0 -142z"/>
      <path class="fil1" d="M2796 6290l60 0 0 142 -60 0 0 -142z"/>
      <path class="fil6" d="M3001 6122l60 0 0 141 -60 0 0 -141z"/>
      <path class="fil0" d="M2897 5939l61 0 0 142 -61 0 0 -142z"/>
      <path class="fil1" d="M2897 5757l61 0 0 142 -61 0 0 -142z"/>
      <path class="fil6" d="M2796 5757l60 0 0 142 -60 0 0 -142z"/>
      <path class="fil6" d="M3001 5392l60 0 0 142 -60 0 0 -142z"/>
      <path class="fil6" d="M2796 5392l60 0 0 142 -60 0 0 -142z"/>
      <path class="fil6" d="M2897 4502l61 0 0 142 -61 0 0 -142z"/>
      <path class="fil1" d="M2796 4488l60 0 0 142 -60 0 0 -142z"/>
      <path class="fil6" d="M3001 4320l60 0 0 141 -60 0 0 -141z"/>
      <path class="fil0" d="M2897 4137l61 0 0 142 -61 0 0 -142z"/>
      <path class="fil1" d="M2897 3955l61 0 0 142 -61 0 0 -142z"/>
      <path class="fil6" d="M2796 3955l60 0 0 142 -60 0 0 -142z"/>
      <path class="fil6" d="M3001 3590l60 0 0 142 -60 0 0 -142z"/>
      <path class="fil6" d="M2796 3590l60 0 0 142 -60 0 0 -142z"/>
      <path class="fil6" d="M2897 5210l61 0 0 142 -61 0 0 -142z"/>
      <path class="fil1" d="M2796 5210l60 0 0 142 -60 0 0 -142z"/>
      <path class="fil0" d="M3001 5028l60 0 0 142 -60 0 0 -142z"/>
      <path class="fil0" d="M2897 4846l61 0 0 141 -61 0 0 -141z"/>
      <path class="fil6" d="M2796 4846l60 0 0 141 -60 0 0 -141z"/>
     </g>
    </g>
   </g>
   <g>
    <path class="fil18" d="M5290 6185l1760 0c27,670 828,827 828,827l-1802 0c0,0 -759,-157 -786,-827z"/>
    <path class="fil19" d="M5468 6185l2174 0c28,670 829,827 829,827l-2052 0c0,0 -923,-157 -951,-827z"/>
    <g>
     <path class="fil18" d="M3127 6326l6860 0c107,0 319,-85 313,-191l-378 -4901c-5,-105 -96,-190 -203,-190l-6791 0c-106,0 -256,114 -251,219l247 4872c5,106 96,191 203,191z"/>
    </g>
    <path class="fil18" d="M3222 6296l6903 0c107,0 189,-85 184,-190l-247 -4872c-5,-105 -96,-190 -203,-190l-6903 0c-107,0 -189,85 -184,190l247 4872c5,105 96,190 203,190z"/>
    <path class="fil20" d="M3222 6296l6903 0c107,0 189,-85 184,-190l-41 -803 -7290 0 41 803c5,105 96,190 203,190z"/>
    <path class="fil21" d="M10003 5073l-191 -3780 -6784 0 192 3780 6783 0z"/>
   </g>
   <g>
    <path class="fil22" d="M1880 6370c0,0 66,-810 -86,-996 -129,-158 -40,-393 -9,-462 5,-12 4,-26 -3,-37 -32,-50 -116,-198 -70,-326 43,-118 133,-186 176,-212 14,-8 21,-24 18,-40 -19,-115 -65,-570 391,-675 17,-3 34,4 43,19 28,45 82,152 101,311 19,165 -58,309 -96,369 -11,17 -8,38 7,51 46,41 132,137 92,269 -40,132 -86,206 -108,236 -7,10 -9,23 -5,35 18,59 65,244 -7,421 -86,214 -413,1055 -391,1448 0,0 -26,-100 -53,-411z"/>
    <path class="fil23 str0" d="M2240 3818c0,0 -243,625 -359,2461"/>
    <path class="fil24" d="M1943 6122c0,0 -55,-653 74,-851 109,-168 -9,-395 -48,-460 -7,-12 -7,-25 -1,-37 26,-53 91,-208 29,-331 -56,-113 -155,-173 -201,-195 -14,-8 -23,-22 -23,-38 6,-115 -4,-573 -470,-638 -18,-3 -35,7 -42,23 -22,48 -63,158 -62,317 1,166 96,303 141,359 13,15 12,37 -1,51 -41,45 -114,148 -59,276 57,128 112,198 137,226 8,9 11,21 9,33 -11,60 -35,249 58,419 112,205 340,975 366,1368 0,0 104,-210 93,-522z"/>
    <path class="fil25" d="M1508 4825c-283,-436 -647,-521 -763,-537 -22,-3 -43,12 -46,34 -7,58 -2,172 127,263l139 98c20,14 22,43 5,60 -48,49 -103,151 75,287 164,125 257,205 302,246 18,16 17,44 -1,59 -51,44 -126,139 -1,254 174,159 468,811 502,1096 0,0 1,-1335 -339,-1860z"/>
    <path class="fil25" d="M2258 4465c282,-435 646,-520 762,-537 23,-3 43,13 46,34 8,58 2,173 -127,264l-139 98c-20,14 -22,42 -4,60 47,48 103,151 -76,287 -163,124 -256,205 -301,245 -18,17 -18,44 1,60 51,44 125,139 0,253 -173,159 -468,812 -501,1096 0,0 -1,-1335 339,-1860z"/>
    <g>
     <path class="fil24" d="M1927 6279c171,-398 233,-724 463,-1104 135,-225 291,-660 749,-918 28,-16 62,5 61,36 -4,125 -25,387 -138,500 -60,60 -97,95 -119,116 -17,16 -17,41 -1,57 48,47 109,152 -65,295 -159,130 -254,204 -301,240 -18,13 -21,39 -6,56 39,49 90,150 -48,248 -283,202 -522,531 -676,873l81 -399z"/>
    </g>
    <path class="fil23 str0" d="M1881 6584c91,-1666 -516,-2836 -516,-2836"/>
    <path class="fil23 str0" d="M3087 4407c0,0 -973,1196 -1188,2146"/>
    <path class="fil23 str0" d="M2193 7007l-521 0"/>
    <path class="fil23 str0" d="M1672 7007c-115,0 -213,-84 -228,-197"/>
    <path class="fil23 str0" d="M1444 6810l-117 -860 1211 0 -117 860"/>
    <path class="fil23 str0" d="M2421 6810c-15,113 -113,197 -228,197"/>
    <path class="fil18" d="M1409 6555l35 255c15,113 113,197 228,197l521 0c115,0 213,-84 228,-197l35 -255 -1047 0z"/>
    <path class="fil23 str0" d="M2619 5943l-1369 0 0 -198 1369 0 0 198z"/>
   </g>
   <path class="fil23 str1" d="M8587 2993l-3885 0"/>
   <path class="fil23 str1" d="M4702 2993c-51,0 -92,-40 -92,-90"/>
   <path class="fil23 str1" d="M4610 2903l0 -432"/>
   <path class="fil23 str1" d="M4610 2471c0,-50 41,-90 92,-90"/>
   <path class="fil23 str1" d="M4702 2381l3885 0"/>
   <path class="fil23 str1" d="M8587 2381c50,0 91,40 91,90"/>
   <path class="fil23 str1" d="M8678 2471l0 432"/>
   <path class="fil23 str1" d="M8678 2903c0,50 -41,90 -91,90"/>
   <g>
    <path class="fil26" d="M9469 3426c-19,13 -40,21 -62,28 -204,63 -518,-112 -726,-420 -207,-309 -250,-661 -113,-822 15,-17 32,-33 51,-45 196,-129 557,51 787,392 230,342 259,739 63,867z"/>
    <g>
     <path class="fil27" d="M9942 3871c-46,-65 -80,-53 -106,-61 -26,-8 -80,31 -90,70 -10,39 -19,40 -14,69 5,29 86,26 124,25 37,-2 154,21 154,21l112 -123 -180 -1z"/>
     <path class="fil27" d="M9991 3853c-33,-58 -60,-35 -100,-20 -41,15 -98,49 -98,49 0,0 -9,36 18,45 27,9 103,-23 118,23 15,47 193,-78 193,-78l-131 -19z"/>
     <g>
      <path class="fil28" d="M11171 3071c-119,-14 -196,54 -260,353 -51,236 -159,412 -159,412l-733 12 -47 144c0,0 729,137 884,117 215,-29 326,-390 432,-672 74,-199 46,-347 -117,-366z"/>
     </g>
    </g>
    <g>
     <path class="fil27" d="M10339 2766c28,64 47,124 72,163 26,40 8,117 -1,152 -10,35 67,27 67,27 0,0 48,37 105,114 25,34 90,-10 135,-24 45,-15 64,-67 117,-141 53,-73 67,-194 67,-194l-68 -250 -296 -24 -198 177z"/>
     <path class="fil29" d="M10357 2810c-87,18 -230,-154 -23,-220 94,-30 291,-173 388,-131 97,43 107,116 107,116 0,0 56,-18 111,92 56,111 -19,343 -8,406l-134 -107c0,0 63,-78 33,-144 -29,-67 -134,-66 -127,3 6,70 -32,83 -32,83 0,0 -61,-57 -49,-101 23,-83 -117,-164 -147,-111 -30,53 -42,99 -119,114z"/>
     <path class="fil27" d="M11067 3026c-12,1 -22,1 -25,0 -35,-9 -252,-78 -252,-78l-41 241c0,0 294,210 398,261 -32,-140 -60,-281 -80,-424z"/>
    </g>
    <path class="fil30" d="M11019 2994l-107 392 96 63 115 -437 -104 -18z"/>
    <path class="fil30" d="M11123 3012c0,0 70,-1 165,-3 159,-3 469,123 648,259 288,217 590,794 590,794 0,0 -116,109 -300,175 -183,66 -373,85 -373,85 0,0 -294,-444 -526,-495 -233,-50 -375,-216 -375,-216l171 -599z"/>
    <g>
     <path class="fil28" d="M12526 4062c82,211 65,476 0,666 -53,153 -156,476 -213,791 -33,184 156,708 362,1142l-224 120c0,0 -605,-891 -605,-1155 0,-264 7,-1304 7,-1304l673 -260z"/>
     <path class="fil28" d="M12675 6661l122 227 -285 162 -123 0 151 -191 -58 -108 193 -90z"/>
     <g>
      <path class="fil30" d="M12506 4093c82,210 55,472 0,666 -55,193 -564,752 -593,906 -60,316 -296,1075 -296,1075l-255 0c0,0 136,-850 136,-1114 0,-264 335,-1274 335,-1274l673 -259z"/>
      <path class="fil30" d="M11617 6740l-30 287 -387 6 169 -125 53 -168 195 0z"/>
     </g>
    </g>
    <g>
     <path class="fil30" d="M9666 3690l-92 76 -229 -275 92 -75 229 274z"/>
     <path class="fil31" d="M10215 4352l-88 72c-17,14 -42,12 -56,-5l-555 -665c-14,-17 -12,-41 5,-55l88 -73c17,-14 42,-11 56,5l555 666c14,16 12,41 -5,55z"/>
     <g>
      <path class="fil31" d="M9458 2525c-267,-394 -683,-583 -931,-421 -248,162 -233,614 34,1009 266,394 683,583 931,421 247,-163 232,-614 -34,-1009zm11 901l0 0c-19,13 -40,21 -62,28 -204,63 -518,-112 -726,-420 -207,-309 -250,-661 -113,-822 15,-17 32,-33 51,-45 196,-129 557,51 787,392 230,342 259,739 63,867z"/>
      <g>
       <path class="fil30" d="M9406 2559c-230,-341 -591,-521 -787,-392 -19,12 -36,28 -51,45 204,-63 518,113 726,421 207,308 250,661 113,821 22,-7 43,-15 62,-28 196,-128 167,-525 -63,-867z"/>
       <path class="fil30" d="M8561 3113c-267,-395 -282,-847 -34,-1009l-124 81c-248,163 -233,614 34,1009 266,394 683,583 931,421l124 -81c-248,162 -665,-27 -931,-421z"/>
      </g>
     </g>
    </g>
    <g>
     <path class="fil27" d="M10131 4065c0,0 -199,-38 -244,-28 -45,11 -168,87 -168,87l19 11 44 -3 -34 24 26 22 32 -9 42 -2 -55 24 26 16 62 -7 -40 19 16 20 146 -50 92 -38 107 21 -71 -107z"/>
     <path class="fil30" d="M11151 3102c-114,-38 -197,49 -193,354 4,263 -36,488 -36,488l-791 121 -17 151c0,0 790,4 945,21 156,18 191,-457 216,-668 24,-211 32,-417 -124,-467z"/>
    </g>
   </g>
   <g>
    <path class="fil32" d="M6191 3415l-1380 0 0 -89 1380 0 0 89z"/>
    <path class="fil24" d="M4701 3415l-92 0 0 -89 92 0 0 89z"/>
    <path class="fil24" d="M4701 3605l-92 0 0 -90 92 0 0 90z"/>
    <path class="fil24" d="M4701 3795l-92 0 0 -90 92 0 0 90z"/>
    <path class="fil32" d="M5978 3605l-1167 0 0 -90 1167 0 0 90z"/>
    <path class="fil32" d="M6524 3795l-1713 0 0 -90 1713 0 0 90z"/>
    <path class="fil32" d="M6373 3985l-1562 0 0 -90 1562 0 0 90z"/>
    <path class="fil24" d="M6122 4341l-658 0 0 -44 658 0 0 44z"/>
    <path class="fil31" d="M7256 2109l-1094 0 0 -216 1094 0 0 216z"/>
    <path class="fil24" d="M7870 4342l-440 0 0 -90 440 0 0 90z"/>
    <path class="fil24" d="M9189 4342l-1091 0 0 -90 1091 0 0 90z"/>
   </g>
   <path class="fil23 str1" d="M50 7021l15000 0"/>
  </g>
 </g>
</svg>
