<?xml version="1.0" encoding="UTF-8"?>
<!DOCTYPE svg PUBLIC "-//W3C//DTD SVG 1.1//EN" "http://www.w3.org/Graphics/SVG/1.1/DTD/svg11.dtd">
<!-- Creator: CorelDRAW X8 -->
<svg xmlns="http://www.w3.org/2000/svg" xml:space="preserve" width="50mm" height="50mm" version="1.1" style="shape-rendering:geometricPrecision; text-rendering:geometricPrecision; image-rendering:optimizeQuality; fill-rule:evenodd; clip-rule:evenodd"
viewBox="0 0 5000 5000"
 xmlns:xlink="http://www.w3.org/1999/xlink">
 <defs>
  <style type="text/css">
   <![CDATA[
    .fil0 {fill:#0F303F}
    .fil6 {fill:#14B0BF}
    .fil5 {fill:#16C1D1}
    .fil1 {fill:#2C5871}
    .fil3 {fill:#C1D64B}
    .fil4 {fill:#FD692B}
    .fil2 {fill:#FDC63A}
    .fil7 {fill:white}
   ]]>
  </style>
 </defs>
 <g id="Layer_x0020_1">
  <metadata id="CorelCorpID_0Corel-Layer"/>
  <path class="fil0" d="M4699 4120l-4317 0 0 -2757 4317 0 0 2757zm-4531 -2978l0 3199 4745 0 0 -3199 -4745 0z"/>
  <polygon class="fil1" points="4699,1812 382,1812 382,1363 4699,1363 "/>
  <polygon class="fil2" points="3933,1687 3735,1687 3735,1488 3933,1488 "/>
  <polygon class="fil3" points="4227,1687 4029,1687 4029,1488 4227,1488 "/>
  <polygon class="fil4" points="4521,1687 4323,1687 4323,1488 4521,1488 "/>
  <polygon class="fil5" points="2540,4120 382,4120 382,1812 2540,1812 "/>
  <polygon class="fil6" points="4699,4120 2540,4120 2540,1812 4699,1812 "/>
  <path class="fil1" d="M1891 3358c-217,30 -416,-122 -446,-338 -29,-217 122,-416 338,-446 217,-29 416,122 446,339 30,216 -122,416 -338,445zm811 -310l-54 -392 -198 9c-15,-30 -31,-57 -49,-84l105 -169 -315 -239 -134 147c-30,-10 -62,-19 -94,-25l-45 -193 -392 53 9 199c-29,14 -57,30 -83,48l-169 -105 -239 316 147 134c-11,30 -19,61 -25,93l-194 45 54 392 199 -9c14,29 30,57 48,83l-105 169 315 239 134 -146c31,10 62,18 94,24l45 194 392 -54 -9 -198c29,-14 57,-31 83,-49l169 105 239 -315 -146 -134c10,-30 18,-62 24,-94l194 -44z"/>
  <path class="fil7" d="M1837 2487c-264,0 -480,215 -480,479 0,265 216,480 480,480 265,0 480,-215 480,-480 0,-264 -215,-479 -480,-479zm0 1054c-317,0 -574,-258 -574,-575 0,-316 257,-574 574,-574 317,0 574,258 574,574 0,317 -257,575 -574,575z"/>
  <path class="fil0" d="M3723 3786c-53,18 -111,-11 -129,-64 -18,-53 10,-110 63,-129 53,-18 111,11 129,64 18,53 -10,110 -63,129zm-230 -1156l1 0 99 -296 -304 -225 99 288 -67 23 -185 63 -98 -288 -96 362 257 174 1 0 300 875c-21,46 -26,99 -8,151 37,108 154,165 261,128 107,-37 165,-154 128,-261 -16,-46 -46,-82 -84,-107l-304 -887z"/>
  <polygon class="fil1" points="3735,3458 3573,3358 3417,2564 "/>
 </g>
</svg>
