<?xml version="1.0" encoding="UTF-8"?>
<!DOCTYPE svg PUBLIC "-//W3C//DTD SVG 1.1//EN" "http://www.w3.org/Graphics/SVG/1.1/DTD/svg11.dtd">
<!-- Creator: CorelDRAW X8 -->
<svg xmlns="http://www.w3.org/2000/svg" xml:space="preserve" width="50mm" height="50mm" version="1.1" style="shape-rendering:geometricPrecision; text-rendering:geometricPrecision; image-rendering:optimizeQuality; fill-rule:evenodd; clip-rule:evenodd"
viewBox="0 0 5000 5000"
 xmlns:xlink="http://www.w3.org/1999/xlink">
 <defs>
  <style type="text/css">
   <![CDATA[
    .fil0 {fill:#0F303F}
    .fil1 {fill:#2C5871}
    .fil3 {fill:#FDA014}
    .fil2 {fill:white}
   ]]>
  </style>
 </defs>
 <g id="Layer_x0020_1">
  <metadata id="CorelCorpID_0Corel-Layer"/>
  <path class="fil0" d="M3937 1345c-1,-122 -84,-275 -186,-342l-993 -646c-51,-33 -118,-50 -185,-50l0 445c135,0 244,109 244,243 0,135 -109,243 -244,243l0 3490 1143 0c122,0 221,-99 221,-222 0,-644 0,-2516 0,-3161z"/>
  <path class="fil1" d="M2330 995c0,-134 109,-243 243,-243l0 -445c-67,0 -134,16 -185,50l-993 646c-102,67 -185,220 -185,342l0 3162c0,122 99,221 221,221l1142 0 0 -3490c-134,0 -243,-108 -243,-243z"/>
  <path class="fil2" d="M1468 4470l2211 0c0,-677 0,-2492 0,-3125 0,-35 -40,-106 -69,-126l-993 -646c-3,-2 -19,-8 -44,-8 -25,0 -41,6 -45,8l-992 646c-29,20 -68,91 -68,126l0 3125zm2248 73l-2322 0 0 -3198c0,-60 51,-155 102,-187l992 -647c15,-9 45,-20 85,-20 40,0 70,11 85,20l992 647c51,33 102,127 102,187 1,645 1,2517 1,3161l0 37 -37 0z"/>
  <path class="fil2" d="M2330 2222c40,0 71,-13 94,-41 22,-28 44,-77 66,-147 35,-119 78,-210 127,-272 49,-61 116,-92 200,-92 85,0 155,34 208,103 54,70 81,158 81,266 0,115 -29,208 -87,278 -57,70 -133,103 -227,101l-5 -1 0 -201c52,0 92,-16 120,-47 27,-32 41,-76 41,-132 0,-52 -12,-91 -37,-118 -24,-28 -56,-41 -94,-41 -36,0 -64,15 -87,45 -23,30 -46,82 -71,156 -33,115 -74,202 -125,262 -50,60 -118,90 -202,90 -89,0 -160,-35 -213,-105 -53,-70 -79,-161 -79,-275 0,-111 28,-206 83,-286 56,-80 139,-119 249,-116l4 1 0 201c-61,0 -106,18 -135,54 -29,36 -44,85 -44,146 0,56 13,98 37,128 25,29 57,43 96,43z"/>
  <polygon class="fil2" points="2510,3172 2510,2787 2214,2787 2214,3245 2055,3245 2055,2580 3091,2580 3091,3243 2931,3243 2931,2787 2671,2787 2671,3172 "/>
  <path class="fil2" d="M2668 4022c80,0 147,-20 198,-61 52,-40 78,-96 78,-167 0,-70 -26,-125 -78,-164 -51,-39 -118,-59 -198,-59l-188 0c-82,0 -149,20 -201,59 -52,40 -77,95 -77,165 0,72 25,127 77,167 52,40 119,60 201,60l188 0zm-188 207c-128,0 -233,-40 -316,-120 -83,-81 -124,-185 -124,-314 0,-128 41,-232 125,-311 83,-80 188,-120 315,-120l186 0c127,0 232,40 315,119 84,80 125,183 125,311 0,128 -41,233 -125,314 -83,80 -188,121 -315,121l-186 0z"/>
  <path class="fil3" d="M2646 1032c0,0 -6,13 -19,37 -12,23 -30,55 -56,95 -52,78 -133,187 -255,296 -122,109 -288,215 -487,280 -99,33 -205,55 -314,65l-82 6c-1,1 -28,2 -25,3l-17 5c-25,8 -49,23 -73,45 -49,44 -92,117 -126,196 -34,79 -60,165 -81,250 -41,171 -62,340 -74,484 -12,144 -15,265 -15,349 1,83 3,129 3,129 8,122 -85,227 -207,235 -123,7 -228,-86 -235,-208 0,-7 0,-13 0,-20l0 -7c0,0 2,-55 10,-148 8,-94 22,-225 49,-382 28,-156 66,-338 131,-531 33,-97 72,-196 126,-296 54,-99 121,-202 230,-286 55,-41 122,-75 196,-90 18,-3 34,-6 57,-8 27,-2 26,-1 50,-1l68 1c90,0 178,-11 261,-31 166,-39 312,-115 424,-199 113,-84 193,-173 244,-238 25,-33 44,-60 55,-78 11,-17 17,-26 17,-26l4 -6c23,-39 73,-50 111,-27 36,23 49,69 30,106z"/>
 </g>
</svg>
