<?xml version="1.0" encoding="UTF-8"?>
<!DOCTYPE svg PUBLIC "-//W3C//DTD SVG 1.1//EN" "http://www.w3.org/Graphics/SVG/1.1/DTD/svg11.dtd">
<!-- Creator: CorelDRAW X8 -->
<svg xmlns="http://www.w3.org/2000/svg" xml:space="preserve" width="30mm" height="30mm" version="1.1" style="shape-rendering:geometricPrecision; text-rendering:geometricPrecision; image-rendering:optimizeQuality; fill-rule:evenodd; clip-rule:evenodd"
viewBox="0 0 3000 3000"
 xmlns:xlink="http://www.w3.org/1999/xlink">
 <defs>
  <style type="text/css">
   <![CDATA[
    .fil10 {fill:black}
    .fil5 {fill:#1F3C49}
    .fil9 {fill:#60607F}
    .fil1 {fill:#6091A0}
    .fil2 {fill:#807D9D}
    .fil0 {fill:gray}
    .fil7 {fill:#D55454}
    .fil12 {fill:#F96B6B}
    .fil8 {fill:#F9B0AA}
    .fil4 {fill:#F9BFBB}
    .fil11 {fill:#FBB03B}
    .fil3 {fill:#FFCFCA}
    .fil6 {fill:white}
   ]]>
  </style>
 </defs>
 <g id="Layer_x0020_1">
  <metadata id="CorelCorpID_0Corel-Layer"/>
  <g id="_1946119592160">
   <path class="fil0" d="M2135 642c0,278 -164,504 -365,504 -201,0 -365,-226 -365,-504 0,-279 164,-505 365,-505 201,0 365,226 365,505z"/>
   <path class="fil1" d="M2769 2968l-2538 0c1,-59 5,-116 12,-173 1,-6 2,-12 3,-19 8,-51 18,-101 31,-151 1,-6 3,-12 5,-18 15,-54 32,-106 53,-156 3,-7 5,-13 8,-19 22,-51 47,-101 75,-148 3,-6 6,-12 10,-18 33,-55 69,-107 109,-155 5,-6 9,-12 14,-17 130,-154 293,-277 477,-355 28,-12 57,-23 85,-32 91,-31 185,-51 283,-59 34,-3 69,-5 104,-5 20,0 39,1 59,2 93,4 183,19 269,44 48,13 95,30 141,49 150,63 286,155 401,270 5,5 10,10 15,15 55,57 106,119 150,186 4,5 8,10 11,16 35,53 66,109 93,167 3,6 6,12 8,18 36,80 65,164 85,251 2,7 3,13 5,19 12,56 21,114 26,172 1,6 1,13 2,19 2,32 4,64 4,97z"/>
   <path class="fil2" d="M2769 2968l-2538 0c1,-59 5,-116 12,-173 1,-6 2,-12 3,-19 8,-51 18,-101 31,-151 1,-6 3,-12 5,-18 15,-54 32,-106 53,-156 3,-7 5,-13 8,-19 22,-51 47,-101 75,-148 3,-6 6,-12 10,-18 33,-55 69,-107 109,-155 5,-6 9,-12 14,-17 87,-103 188,-192 301,-263 56,-35 115,-66 176,-92l453 979 488 -980c77,32 150,72 219,119 65,45 126,95 182,151 5,5 10,10 15,15 55,57 106,119 150,186 4,5 8,10 11,16 35,53 66,109 93,167 3,6 6,12 8,18 36,80 65,164 85,251 2,7 3,13 5,19 12,56 21,114 26,172 1,6 1,13 2,19 2,32 4,64 4,97z"/>
   <path class="fil3" d="M1778 1638c0,5 0,10 0,16 0,54 -2,110 -6,164 -2,23 -5,47 -11,70 -17,61 -54,117 -109,149 -65,37 -144,50 -216,33 -77,-18 -145,-71 -178,-143 -24,-53 -29,-114 -26,-173 1,-16 2,-32 4,-48 4,-42 9,-84 12,-127 3,-39 -1,-79 -2,-118 0,-3 0,-6 0,-9 -2,-83 -14,-167 -25,-248 -3,-22 -7,-43 -9,-65 -2,-13 -2,-14 10,-7 9,5 17,11 25,16 34,23 69,45 104,66 70,44 142,85 214,124 33,18 67,35 100,52 4,2 7,4 10,5 18,9 37,19 55,28 6,2 54,21 54,25 -3,63 -7,127 -6,190z"/>
   <path class="fil4" d="M1778 1638c0,5 0,10 0,16 -44,14 -91,20 -137,17 -85,-4 -167,-34 -240,-80 -36,-23 -70,-50 -100,-80 -19,-19 -38,-38 -55,-59 -2,-83 -14,-167 -25,-248 -3,-22 -7,-43 -9,-65 -2,-13 -2,-14 10,-7 9,5 17,11 25,16 34,23 69,45 104,66 70,44 142,85 214,124 33,18 67,35 100,52 4,2 7,4 10,5 18,9 37,19 55,28 6,2 54,21 54,25 -3,63 -7,127 -6,190z"/>
   <path class="fil4" d="M1244 1087c-72,40 -165,39 -235,-3 -59,-36 -100,-101 -108,-170 -2,-12 -2,-25 -2,-37 2,-22 6,-45 16,-64 24,-50 79,-81 134,-79 54,2 106,35 134,82l24 104 37 167z"/>
   <path class="fil4" d="M1823 1012c71,40 164,39 234,-4 60,-36 100,-101 109,-169 1,-13 2,-25 1,-38 -1,-22 -6,-44 -15,-64 -24,-49 -80,-80 -134,-78 -55,1 -107,34 -135,81l-23 105 -37 167z"/>
   <path class="fil3" d="M2048 1266c-32,79 -78,151 -152,197 -66,41 -145,61 -222,57 -85,-4 -167,-34 -240,-81 -36,-23 -69,-50 -100,-79 -53,-52 -98,-112 -137,-176 -62,-103 -112,-220 -137,-342 -28,-137 -23,-279 33,-410 23,-53 55,-103 94,-146 166,-182 448,-212 648,-69 104,75 181,187 222,307 13,38 24,78 33,117 47,207 39,430 -42,625z"/>
   <path class="fil5" d="M1644 892c-10,-1 -23,-19 -25,-45 0,-13 2,-27 8,-36 2,-3 7,-11 14,-11 0,0 0,0 1,0 10,0 23,19 25,45 0,13 -2,26 -8,36 -2,3 -7,11 -14,11 0,0 0,0 -1,0z"/>
   <path class="fil5" d="M1968 895c-9,0 -22,-17 -24,-43 0,-13 2,-26 8,-35 3,-7 8,-10 13,-11 0,0 0,0 0,0 10,1 23,18 24,44 1,13 -1,26 -7,35 -4,6 -8,10 -13,10 0,0 0,0 -1,0l0 0z"/>
   <path class="fil5" d="M1801 936c10,-8 24,-10 37,-7 14,4 25,15 30,28 5,13 4,29 -3,41 -7,12 -19,20 -32,20 10,-7 16,-17 19,-26 3,-10 2,-19 -2,-28 -3,-8 -9,-16 -17,-21 -9,-5 -20,-8 -32,-7z"/>
   <path class="fil5" d="M1587 736c-2,0 -4,-1 -5,-3 -2,-4 -1,-8 3,-10 26,-15 59,-19 88,-10 4,1 6,5 5,9 -1,4 -6,6 -9,5 -26,-8 -54,-4 -77,9 -1,1 -3,1 -5,0z"/>
   <path class="fil5" d="M1911 720c-2,-1 -3,-2 -4,-4 -2,-4 0,-8 4,-10 25,-11 55,-11 80,0 4,2 6,6 4,10 -1,4 -6,6 -9,4 -22,-9 -48,-9 -69,0 -2,1 -5,1 -6,0z"/>
   <path class="fil6" d="M1646 817c-15,-5 -23,19 -7,24 15,5 23,-19 7,-24z"/>
   <path class="fil6" d="M1975 821c-15,-5 -23,18 -7,23 15,5 22,-18 7,-23z"/>
   <path class="fil7" d="M1930 1062c0,42 -7,81 -19,113 -19,51 -51,85 -88,85 -37,0 -70,-35 -90,-88 -11,-31 -18,-68 -18,-108 0,-2 0,-3 0,-5l215 -1c0,2 0,3 0,4z"/>
   <path class="fil6" d="M1921 1058c-24,41 -59,67 -98,67 -40,1 -75,-25 -100,-66l198 -1z"/>
   <path class="fil8" d="M1647 1003c-2,41 -49,71 -105,68 -55,-3 -99,-38 -96,-79 2,-41 49,-72 104,-69 56,3 99,39 97,80z"/>
   <path class="fil8" d="M2087 972c-1,28 -33,49 -70,47 -38,-2 -67,-26 -66,-54 2,-28 33,-49 71,-47 38,3 67,27 65,54z"/>
   <polygon class="fil9" points="798,2410 730,2968 688,2968 "/>
   <polygon class="fil9" points="2291,2968 2249,2968 2181,2410 "/>
   <path class="fil10" d="M2023 997c-105,0 -191,-85 -191,-190 0,-105 86,-191 191,-191 105,0 191,86 191,191 0,105 -86,190 -191,190zm-467 54c-110,0 -199,-89 -199,-199 0,-109 89,-198 199,-198 109,0 198,89 198,198 0,110 -89,199 -198,199zm467 -446c-111,0 -201,91 -201,202 0,2 0,4 0,5l-60 4c-17,-98 -103,-173 -206,-173 -116,0 -210,94 -210,209 0,116 94,210 210,210 115,0 209,-94 209,-210 0,-8 0,-17 -1,-25l58 -4c9,104 96,185 201,185 111,0 202,-90 202,-201 0,-111 -91,-202 -202,-202z"/>
   <path class="fil0" d="M2001 139c-76,-55 -175,-80 -264,-93 -263,-39 -602,-4 -779,220 -43,55 -72,120 -84,188 -11,65 -6,132 7,196 9,48 31,102 41,150 57,-37 103,7 114,29 47,95 61,142 66,166 2,10 26,-15 32,-22 15,-16 27,-34 36,-53 49,-98 40,-205 41,-311 1,-35 2,-73 11,-107 5,-18 14,-36 28,-48 27,-25 69,-28 103,-30 49,-4 99,5 147,12 84,13 169,15 253,7 90,-10 188,-20 271,-60 52,-25 80,-77 63,-134 -14,-46 -48,-82 -86,-110z"/>
   <path class="fil11" d="M1863 1677c-2,-61 -97,-61 -95,0 3,77 7,158 -24,230 -24,56 -66,103 -118,133 -61,35 -133,41 -200,22 -63,-19 -128,-61 -156,-122 -16,-38 -23,-82 -29,-123 -6,-47 -7,-96 3,-143 13,-59 -78,-84 -91,-25 -21,97 -11,208 21,302 30,88 101,151 185,187 84,35 182,41 267,7 77,-31 141,-87 184,-159 55,-94 56,-203 53,-309z"/>
   <path class="fil12" d="M1028 1739l453 979 -629 -887c56,-35 115,-66 176,-92z"/>
   <path class="fil12" d="M2188 1857l-707 861 488 -980c77,32 150,72 219,119z"/>
  </g>
 </g>
</svg>
